<ttFont>
    <TTGlyph name=".notdef" xMin="0" yMin="0" xMax="500" yMax="700">
      <contour>
        <pt x="0" y="0" on="1"/>
        <pt x="0" y="700" on="1"/>
        <pt x="500" y="700" on="1"/>
        <pt x="500" y="0" on="1"/>
      </contour>
      <contour>
        <pt x="50" y="95" on="1"/>
        <pt x="220" y="350" on="1"/>
        <pt x="50" y="605" on="1"/>
      </contour>
      <contour>
        <pt x="80" y="50" on="1"/>
        <pt x="420" y="50" on="1"/>
        <pt x="250" y="305" on="1"/>
      </contour>
      <contour>
        <pt x="80" y="650" on="1"/>
        <pt x="250" y="395" on="1"/>
        <pt x="420" y="650" on="1"/>
      </contour>
      <contour>
        <pt x="280" y="350" on="1"/>
        <pt x="450" y="95" on="1"/>
        <pt x="450" y="605" on="1"/>
      </contour>
    </TTGlyph>
    <TTGlyph name="A" xMin="-5" yMin="0" xMax="714" yMax="686">
      <contour>
        <pt x="-5" y="0" on="1"/>
        <pt x="224" y="686" on="1"/>
        <pt x="485" y="686" on="1"/>
        <pt x="714" y="0" on="1"/>
        <pt x="496" y="0" on="1"/>
        <pt x="455" y="122" on="1"/>
        <pt x="237" y="122" on="1"/>
        <pt x="197" y="0" on="1"/>
      </contour>
      <contour>
        <pt x="285" y="267" on="1"/>
        <pt x="407" y="267" on="1"/>
        <pt x="349" y="475" on="1"/>
        <pt x="344" y="475" on="1"/>
      </contour>
    </TTGlyph>
    <TTGlyph name="AE" xMin="-13" yMin="0" xMax="983" yMax="686">
      <contour>
        <pt x="-13" y="0" on="1"/>
        <pt x="312" y="686" on="1"/>
        <pt x="983" y="686" on="1"/>
        <pt x="963" y="528" on="1"/>
        <pt x="603" y="528" on="1"/>
        <pt x="622" y="428" on="1"/>
        <pt x="952" y="428" on="1"/>
        <pt x="952" y="275" on="1"/>
        <pt x="652" y="275" on="1"/>
        <pt x="674" y="164" on="1"/>
        <pt x="963" y="164" on="1"/>
        <pt x="983" y="0" on="1"/>
        <pt x="487" y="0" on="1"/>
        <pt x="463" y="122" on="1"/>
        <pt x="245" y="122" on="1"/>
        <pt x="187" y="0" on="1"/>
      </contour>
      <contour>
        <pt x="314" y="267" on="1"/>
        <pt x="436" y="267" on="1"/>
        <pt x="407" y="475" on="1"/>
        <pt x="402" y="475" on="1"/>
      </contour>
    </TTGlyph>
    <TTGlyph name="Aacute" xMin="-5" yMin="0" xMax="714" yMax="896">
      <contour>
        <pt x="-5" y="0" on="1"/>
        <pt x="224" y="686" on="1"/>
        <pt x="485" y="686" on="1"/>
        <pt x="714" y="0" on="1"/>
        <pt x="496" y="0" on="1"/>
        <pt x="455" y="122" on="1"/>
        <pt x="237" y="122" on="1"/>
        <pt x="197" y="0" on="1"/>
      </contour>
      <contour>
        <pt x="285" y="267" on="1"/>
        <pt x="407" y="267" on="1"/>
        <pt x="349" y="475" on="1"/>
        <pt x="344" y="475" on="1"/>
      </contour>
      <contour>
        <pt x="301" y="751" on="1"/>
        <pt x="392" y="896" on="1"/>
        <pt x="543" y="896" on="1"/>
        <pt x="545" y="893" on="1"/>
        <pt x="419" y="751" on="1"/>
      </contour>
    </TTGlyph>
    <TTGlyph name="Acircumflex" xMin="-5" yMin="0" xMax="714" yMax="896">
      <contour>
        <pt x="-5" y="0" on="1"/>
        <pt x="224" y="686" on="1"/>
        <pt x="485" y="686" on="1"/>
        <pt x="714" y="0" on="1"/>
        <pt x="496" y="0" on="1"/>
        <pt x="455" y="122" on="1"/>
        <pt x="237" y="122" on="1"/>
        <pt x="197" y="0" on="1"/>
      </contour>
      <contour>
        <pt x="146" y="751" on="1"/>
        <pt x="285" y="896" on="1"/>
        <pt x="413" y="896" on="1"/>
        <pt x="552" y="751" on="1"/>
        <pt x="422" y="751" on="1"/>
        <pt x="348" y="828" on="1"/>
        <pt x="274" y="751" on="1"/>
      </contour>
      <contour>
        <pt x="285" y="267" on="1"/>
        <pt x="407" y="267" on="1"/>
        <pt x="349" y="475" on="1"/>
        <pt x="344" y="475" on="1"/>
      </contour>
    </TTGlyph>
    <TTGlyph name="Adieresis" xMin="-5" yMin="0" xMax="714" yMax="897">
      <contour>
        <pt x="-5" y="0" on="1"/>
        <pt x="224" y="686" on="1"/>
        <pt x="485" y="686" on="1"/>
        <pt x="714" y="0" on="1"/>
        <pt x="496" y="0" on="1"/>
        <pt x="455" y="122" on="1"/>
        <pt x="237" y="122" on="1"/>
        <pt x="197" y="0" on="1"/>
      </contour>
      <contour>
        <pt x="162" y="750" on="1"/>
        <pt x="162" y="897" on="1"/>
        <pt x="314" y="897" on="1"/>
        <pt x="314" y="750" on="1"/>
      </contour>
      <contour>
        <pt x="285" y="267" on="1"/>
        <pt x="407" y="267" on="1"/>
        <pt x="349" y="475" on="1"/>
        <pt x="344" y="475" on="1"/>
      </contour>
      <contour>
        <pt x="382" y="750" on="1"/>
        <pt x="382" y="897" on="1"/>
        <pt x="534" y="897" on="1"/>
        <pt x="534" y="750" on="1"/>
      </contour>
    </TTGlyph>
    <TTGlyph name="Agrave" xMin="-5" yMin="0" xMax="714" yMax="895">
      <contour>
        <pt x="-5" y="0" on="1"/>
        <pt x="224" y="686" on="1"/>
        <pt x="485" y="686" on="1"/>
        <pt x="714" y="0" on="1"/>
        <pt x="496" y="0" on="1"/>
        <pt x="455" y="122" on="1"/>
        <pt x="237" y="122" on="1"/>
        <pt x="197" y="0" on="1"/>
      </contour>
      <contour>
        <pt x="171" y="892" on="1"/>
        <pt x="173" y="895" on="1"/>
        <pt x="324" y="895" on="1"/>
        <pt x="415" y="750" on="1"/>
        <pt x="297" y="750" on="1"/>
      </contour>
      <contour>
        <pt x="285" y="267" on="1"/>
        <pt x="407" y="267" on="1"/>
        <pt x="349" y="475" on="1"/>
        <pt x="344" y="475" on="1"/>
      </contour>
    </TTGlyph>
    <TTGlyph name="Aring" xMin="-5" yMin="0" xMax="714" yMax="937">
      <contour>
        <pt x="-5" y="0" on="1"/>
        <pt x="224" y="686" on="1"/>
        <pt x="485" y="686" on="1"/>
        <pt x="714" y="0" on="1"/>
        <pt x="496" y="0" on="1"/>
        <pt x="455" y="122" on="1"/>
        <pt x="237" y="122" on="1"/>
        <pt x="197" y="0" on="1"/>
      </contour>
      <contour>
        <pt x="253" y="836" on="1"/>
        <pt x="253" y="878" on="0"/>
        <pt x="312" y="937" on="0"/>
        <pt x="354" y="937" on="1"/>
        <pt x="394" y="937" on="0"/>
        <pt x="425" y="908" on="1"/>
        <pt x="455" y="879" on="0"/>
        <pt x="455" y="836" on="1"/>
        <pt x="455" y="795" on="0"/>
        <pt x="396" y="736" on="0"/>
        <pt x="354" y="736" on="1"/>
        <pt x="313" y="736" on="0"/>
        <pt x="283" y="764" on="1"/>
        <pt x="253" y="793" on="0"/>
      </contour>
      <contour>
        <pt x="285" y="267" on="1"/>
        <pt x="407" y="267" on="1"/>
        <pt x="349" y="475" on="1"/>
        <pt x="344" y="475" on="1"/>
      </contour>
      <contour>
        <pt x="354" y="871" on="1"/>
        <pt x="339" y="871" on="0"/>
        <pt x="319" y="850" on="0"/>
        <pt x="319" y="836" on="1"/>
        <pt x="319" y="821" on="0"/>
        <pt x="340" y="801" on="0"/>
        <pt x="355" y="801" on="1"/>
        <pt x="369" y="801" on="0"/>
        <pt x="389" y="822" on="0"/>
        <pt x="389" y="837" on="1"/>
        <pt x="389" y="851" on="0"/>
        <pt x="368" y="871" on="0"/>
      </contour>
    </TTGlyph>
    <TTGlyph name="Atilde" xMin="-5" yMin="0" xMax="714" yMax="893">
      <contour>
        <pt x="-5" y="0" on="1"/>
        <pt x="224" y="686" on="1"/>
        <pt x="485" y="686" on="1"/>
        <pt x="714" y="0" on="1"/>
        <pt x="496" y="0" on="1"/>
        <pt x="455" y="122" on="1"/>
        <pt x="237" y="122" on="1"/>
        <pt x="197" y="0" on="1"/>
      </contour>
      <contour>
        <pt x="126" y="750" on="1"/>
        <pt x="126" y="804" on="0"/>
        <pt x="167" y="848" on="1"/>
        <pt x="208" y="893" on="0"/>
        <pt x="266" y="893" on="1"/>
        <pt x="298" y="893" on="0"/>
        <pt x="378" y="865" on="0"/>
        <pt x="419" y="853" on="0"/>
        <pt x="439" y="853" on="1"/>
        <pt x="458" y="853" on="0"/>
        <pt x="484" y="876" on="0"/>
        <pt x="489" y="893" on="1"/>
        <pt x="570" y="893" on="1"/>
        <pt x="570" y="839" on="0"/>
        <pt x="529" y="794" on="1"/>
        <pt x="488" y="750" on="0"/>
        <pt x="430" y="750" on="1"/>
        <pt x="394" y="750" on="0"/>
        <pt x="339" y="770" on="1"/>
        <pt x="297" y="784" on="1"/>
        <pt x="277" y="790" on="0"/>
        <pt x="258" y="790" on="1"/>
        <pt x="238" y="790" on="0"/>
        <pt x="212" y="767" on="0"/>
        <pt x="207" y="750" on="1"/>
      </contour>
      <contour>
        <pt x="285" y="267" on="1"/>
        <pt x="407" y="267" on="1"/>
        <pt x="349" y="475" on="1"/>
        <pt x="344" y="475" on="1"/>
      </contour>
    </TTGlyph>
    <TTGlyph name="B" xMin="57" yMin="0" xMax="629" yMax="686">
      <contour>
        <pt x="498" y="354" on="1"/>
        <pt x="629" y="325" on="0"/>
        <pt x="629" y="183" on="1"/>
        <pt x="629" y="107" on="0"/>
        <pt x="518" y="0" on="0"/>
        <pt x="439" y="0" on="1"/>
        <pt x="57" y="0" on="1"/>
        <pt x="57" y="686" on="1"/>
        <pt x="433" y="686" on="1"/>
        <pt x="508" y="686" on="0"/>
        <pt x="560" y="637" on="1"/>
        <pt x="613" y="588" on="0"/>
        <pt x="613" y="518" on="1"/>
        <pt x="613" y="415" on="0"/>
        <pt x="542" y="376" on="1"/>
        <pt x="521" y="365" on="0"/>
        <pt x="498" y="358" on="1"/>
      </contour>
      <contour>
        <pt x="250" y="159" on="1"/>
        <pt x="377" y="159" on="1"/>
        <pt x="398" y="159" on="0"/>
        <pt x="427" y="188" on="0"/>
        <pt x="427" y="209" on="1"/>
        <pt x="427" y="227" on="1"/>
        <pt x="427" y="248" on="0"/>
        <pt x="398" y="277" on="0"/>
        <pt x="377" y="277" on="1"/>
        <pt x="250" y="277" on="1"/>
      </contour>
      <contour>
        <pt x="250" y="423" on="1"/>
        <pt x="365" y="423" on="1"/>
        <pt x="386" y="423" on="0"/>
        <pt x="415" y="452" on="0"/>
        <pt x="415" y="473" on="1"/>
        <pt x="415" y="490" on="1"/>
        <pt x="415" y="511" on="0"/>
        <pt x="386" y="540" on="0"/>
        <pt x="365" y="540" on="1"/>
        <pt x="250" y="540" on="1"/>
      </contour>
    </TTGlyph>
    <TTGlyph name="C" xMin="31" yMin="-10" xMax="659" yMax="696">
      <contour>
        <pt x="31" y="290" on="1"/>
        <pt x="31" y="396" on="1"/>
        <pt x="31" y="528" on="0"/>
        <pt x="124" y="614" on="1"/>
        <pt x="212" y="696" on="0"/>
        <pt x="341" y="696" on="1"/>
        <pt x="369" y="696" on="1"/>
        <pt x="498" y="696" on="0"/>
        <pt x="575" y="624" on="1"/>
        <pt x="659" y="545" on="0"/>
        <pt x="659" y="405" on="1"/>
        <pt x="462" y="405" on="1"/>
        <pt x="462" y="440" on="1"/>
        <pt x="462" y="487" on="0"/>
        <pt x="404" y="540" on="0"/>
        <pt x="362" y="540" on="1"/>
        <pt x="357" y="540" on="1"/>
        <pt x="315" y="540" on="0"/>
        <pt x="257" y="482" on="0"/>
        <pt x="257" y="440" on="1"/>
        <pt x="257" y="247" on="1"/>
        <pt x="257" y="205" on="0"/>
        <pt x="315" y="147" on="0"/>
        <pt x="357" y="147" on="1"/>
        <pt x="371" y="147" on="1"/>
        <pt x="413" y="147" on="0"/>
        <pt x="471" y="199" on="0"/>
        <pt x="471" y="247" on="1"/>
        <pt x="471" y="280" on="1"/>
        <pt x="659" y="280" on="1"/>
        <pt x="659" y="148" on="0"/>
        <pt x="578" y="68" on="1"/>
        <pt x="501" y="-10" on="0"/>
        <pt x="377" y="-10" on="1"/>
        <pt x="349" y="-10" on="1"/>
        <pt x="212" y="-10" on="0"/>
        <pt x="124" y="68" on="1"/>
        <pt x="31" y="152" on="0"/>
      </contour>
    </TTGlyph>
    <TTGlyph name="Ccedilla" xMin="31" yMin="-197" xMax="659" yMax="696">
      <contour>
        <pt x="31" y="290" on="1"/>
        <pt x="31" y="396" on="1"/>
        <pt x="31" y="528" on="0"/>
        <pt x="124" y="614" on="1"/>
        <pt x="212" y="696" on="0"/>
        <pt x="341" y="696" on="1"/>
        <pt x="369" y="696" on="1"/>
        <pt x="498" y="696" on="0"/>
        <pt x="575" y="624" on="1"/>
        <pt x="659" y="545" on="0"/>
        <pt x="659" y="405" on="1"/>
        <pt x="462" y="405" on="1"/>
        <pt x="462" y="440" on="1"/>
        <pt x="462" y="487" on="0"/>
        <pt x="404" y="540" on="0"/>
        <pt x="362" y="540" on="1"/>
        <pt x="357" y="540" on="1"/>
        <pt x="315" y="540" on="0"/>
        <pt x="257" y="482" on="0"/>
        <pt x="257" y="440" on="1"/>
        <pt x="257" y="247" on="1"/>
        <pt x="257" y="205" on="0"/>
        <pt x="315" y="147" on="0"/>
        <pt x="357" y="147" on="1"/>
        <pt x="371" y="147" on="1"/>
        <pt x="413" y="147" on="0"/>
        <pt x="471" y="199" on="0"/>
        <pt x="471" y="247" on="1"/>
        <pt x="471" y="280" on="1"/>
        <pt x="659" y="280" on="1"/>
        <pt x="659" y="148" on="0"/>
        <pt x="578" y="68" on="1"/>
        <pt x="501" y="-10" on="0"/>
        <pt x="377" y="-10" on="1"/>
        <pt x="349" y="-10" on="1"/>
        <pt x="212" y="-10" on="0"/>
        <pt x="124" y="68" on="1"/>
        <pt x="31" y="152" on="0"/>
      </contour>
      <contour>
        <pt x="259" y="-107" on="1"/>
        <pt x="295" y="-139" on="0"/>
        <pt x="340" y="-139" on="1"/>
        <pt x="384" y="-139" on="0"/>
        <pt x="384" y="-107" on="1"/>
        <pt x="384" y="-76" on="0"/>
        <pt x="346" y="-76" on="1"/>
        <pt x="328" y="-76" on="1"/>
        <pt x="328" y="-17" on="1"/>
        <pt x="349" y="-17" on="1"/>
        <pt x="401" y="-17" on="0"/>
        <pt x="449" y="-45" on="0"/>
        <pt x="471" y="-80" on="0"/>
        <pt x="471" y="-107" on="1"/>
        <pt x="471" y="-135" on="0"/>
        <pt x="447" y="-170" on="0"/>
        <pt x="429" y="-180" on="1"/>
        <pt x="398" y="-197" on="0"/>
        <pt x="358" y="-197" on="1"/>
        <pt x="271" y="-197" on="0"/>
        <pt x="227" y="-161" on="1"/>
      </contour>
    </TTGlyph>
    <TTGlyph name="D" xMin="57" yMin="0" xMax="666" yMax="686">
      <contour>
        <pt x="57" y="0" on="1"/>
        <pt x="57" y="686" on="1"/>
        <pt x="366" y="686" on="1"/>
        <pt x="428" y="686" on="0"/>
        <pt x="538" y="639" on="0"/>
        <pt x="619" y="558" on="0"/>
        <pt x="666" y="448" on="0"/>
        <pt x="666" y="386" on="1"/>
        <pt x="666" y="300" on="1"/>
        <pt x="666" y="238" on="0"/>
        <pt x="619" y="128" on="0"/>
        <pt x="538" y="47" on="0"/>
        <pt x="428" y="0" on="0"/>
        <pt x="366" y="0" on="1"/>
      </contour>
      <contour>
        <pt x="269" y="159" on="1"/>
        <pt x="346" y="159" on="1"/>
        <pt x="388" y="159" on="0"/>
        <pt x="446" y="217" on="0"/>
        <pt x="446" y="259" on="1"/>
        <pt x="446" y="430" on="1"/>
        <pt x="446" y="472" on="0"/>
        <pt x="388" y="530" on="0"/>
        <pt x="346" y="530" on="1"/>
        <pt x="269" y="530" on="1"/>
      </contour>
    </TTGlyph>
    <TTGlyph name="E" xMin="57" yMin="0" xMax="572" yMax="686">
      <contour>
        <pt x="57" y="0" on="1"/>
        <pt x="57" y="686" on="1"/>
        <pt x="572" y="686" on="1"/>
        <pt x="552" y="528" on="1"/>
        <pt x="263" y="528" on="1"/>
        <pt x="263" y="428" on="1"/>
        <pt x="541" y="428" on="1"/>
        <pt x="541" y="275" on="1"/>
        <pt x="263" y="275" on="1"/>
        <pt x="263" y="164" on="1"/>
        <pt x="552" y="164" on="1"/>
        <pt x="572" y="0" on="1"/>
      </contour>
    </TTGlyph>
    <TTGlyph name="Eacute" xMin="57" yMin="0" xMax="572" yMax="895">
      <contour>
        <pt x="57" y="0" on="1"/>
        <pt x="57" y="686" on="1"/>
        <pt x="572" y="686" on="1"/>
        <pt x="552" y="528" on="1"/>
        <pt x="263" y="528" on="1"/>
        <pt x="263" y="428" on="1"/>
        <pt x="541" y="428" on="1"/>
        <pt x="541" y="275" on="1"/>
        <pt x="263" y="275" on="1"/>
        <pt x="263" y="164" on="1"/>
        <pt x="552" y="164" on="1"/>
        <pt x="572" y="0" on="1"/>
      </contour>
      <contour>
        <pt x="250" y="750" on="1"/>
        <pt x="341" y="895" on="1"/>
        <pt x="492" y="895" on="1"/>
        <pt x="494" y="892" on="1"/>
        <pt x="368" y="750" on="1"/>
      </contour>
    </TTGlyph>
    <TTGlyph name="Ecircumflex" xMin="57" yMin="0" xMax="572" yMax="896">
      <contour>
        <pt x="57" y="0" on="1"/>
        <pt x="57" y="686" on="1"/>
        <pt x="572" y="686" on="1"/>
        <pt x="552" y="528" on="1"/>
        <pt x="263" y="528" on="1"/>
        <pt x="263" y="428" on="1"/>
        <pt x="541" y="428" on="1"/>
        <pt x="541" y="275" on="1"/>
        <pt x="263" y="275" on="1"/>
        <pt x="263" y="164" on="1"/>
        <pt x="552" y="164" on="1"/>
        <pt x="572" y="0" on="1"/>
      </contour>
      <contour>
        <pt x="112" y="751" on="1"/>
        <pt x="251" y="896" on="1"/>
        <pt x="379" y="896" on="1"/>
        <pt x="518" y="751" on="1"/>
        <pt x="388" y="751" on="1"/>
        <pt x="314" y="828" on="1"/>
        <pt x="240" y="751" on="1"/>
      </contour>
    </TTGlyph>
    <TTGlyph name="Edieresis" xMin="57" yMin="0" xMax="572" yMax="898">
      <contour>
        <pt x="57" y="0" on="1"/>
        <pt x="57" y="686" on="1"/>
        <pt x="572" y="686" on="1"/>
        <pt x="552" y="528" on="1"/>
        <pt x="263" y="528" on="1"/>
        <pt x="263" y="428" on="1"/>
        <pt x="541" y="428" on="1"/>
        <pt x="541" y="275" on="1"/>
        <pt x="263" y="275" on="1"/>
        <pt x="263" y="164" on="1"/>
        <pt x="552" y="164" on="1"/>
        <pt x="572" y="0" on="1"/>
      </contour>
      <contour>
        <pt x="125" y="751" on="1"/>
        <pt x="125" y="898" on="1"/>
        <pt x="277" y="898" on="1"/>
        <pt x="277" y="751" on="1"/>
      </contour>
      <contour>
        <pt x="345" y="751" on="1"/>
        <pt x="345" y="898" on="1"/>
        <pt x="497" y="898" on="1"/>
        <pt x="497" y="751" on="1"/>
      </contour>
    </TTGlyph>
    <TTGlyph name="Egrave" xMin="57" yMin="0" xMax="572" yMax="896">
      <contour>
        <pt x="57" y="0" on="1"/>
        <pt x="57" y="686" on="1"/>
        <pt x="572" y="686" on="1"/>
        <pt x="552" y="528" on="1"/>
        <pt x="263" y="528" on="1"/>
        <pt x="263" y="428" on="1"/>
        <pt x="541" y="428" on="1"/>
        <pt x="541" y="275" on="1"/>
        <pt x="263" y="275" on="1"/>
        <pt x="263" y="164" on="1"/>
        <pt x="552" y="164" on="1"/>
        <pt x="572" y="0" on="1"/>
      </contour>
      <contour>
        <pt x="147" y="893" on="1"/>
        <pt x="149" y="896" on="1"/>
        <pt x="300" y="896" on="1"/>
        <pt x="391" y="751" on="1"/>
        <pt x="273" y="751" on="1"/>
      </contour>
    </TTGlyph>
    <TTGlyph name="Eth" xMin="7" yMin="0" xMax="690" yMax="686">
      <contour>
        <pt x="7" y="297" on="1"/>
        <pt x="7" y="391" on="1"/>
        <pt x="83" y="391" on="1"/>
        <pt x="83" y="686" on="1"/>
        <pt x="392" y="686" on="1"/>
        <pt x="454" y="686" on="0"/>
        <pt x="563" y="639" on="0"/>
        <pt x="644" y="558" on="0"/>
        <pt x="690" y="448" on="0"/>
        <pt x="690" y="386" on="1"/>
        <pt x="690" y="300" on="1"/>
        <pt x="690" y="238" on="0"/>
        <pt x="644" y="128" on="0"/>
        <pt x="563" y="47" on="0"/>
        <pt x="454" y="0" on="0"/>
        <pt x="392" y="0" on="1"/>
        <pt x="83" y="0" on="1"/>
        <pt x="83" y="297" on="1"/>
      </contour>
      <contour>
        <pt x="292" y="159" on="1"/>
        <pt x="372" y="159" on="1"/>
        <pt x="414" y="159" on="0"/>
        <pt x="472" y="217" on="0"/>
        <pt x="472" y="259" on="1"/>
        <pt x="472" y="430" on="1"/>
        <pt x="472" y="472" on="0"/>
        <pt x="414" y="530" on="0"/>
        <pt x="372" y="530" on="1"/>
        <pt x="292" y="530" on="1"/>
        <pt x="292" y="391" on="1"/>
        <pt x="371" y="391" on="1"/>
        <pt x="371" y="297" on="1"/>
        <pt x="292" y="297" on="1"/>
      </contour>
    </TTGlyph>
    <TTGlyph name="Euro" xMin="28" yMin="-10" xMax="553" yMax="692">
      <contour>
        <pt x="553" y="15" on="1"/>
        <pt x="486" y="-10" on="0"/>
        <pt x="431" y="-10" on="1"/>
        <pt x="376" y="-10" on="0"/>
        <pt x="284" y="12" on="0"/>
        <pt x="242" y="39" on="1"/>
        <pt x="147" y="101" on="0"/>
        <pt x="118" y="225" on="1"/>
        <pt x="28" y="225" on="1"/>
        <pt x="28" y="317" on="1"/>
        <pt x="106" y="317" on="1"/>
        <pt x="106" y="365" on="1"/>
        <pt x="28" y="365" on="1"/>
        <pt x="28" y="457" on="1"/>
        <pt x="118" y="457" on="1"/>
        <pt x="147" y="581" on="0"/>
        <pt x="240" y="642" on="1"/>
        <pt x="317" y="692" on="0"/>
        <pt x="420" y="692" on="1"/>
        <pt x="494" y="692" on="0"/>
        <pt x="553" y="674" on="1"/>
        <pt x="553" y="514" on="1"/>
        <pt x="508" y="532" on="0"/>
        <pt x="451" y="532" on="1"/>
        <pt x="364" y="532" on="0"/>
        <pt x="325" y="457" on="1"/>
        <pt x="462" y="457" on="1"/>
        <pt x="462" y="365" on="1"/>
        <pt x="304" y="365" on="1"/>
        <pt x="303" y="360" on="0"/>
        <pt x="303" y="354" on="1"/>
        <pt x="303" y="329" on="1"/>
        <pt x="303" y="323" on="0"/>
        <pt x="304" y="317" on="1"/>
        <pt x="462" y="317" on="1"/>
        <pt x="462" y="225" on="1"/>
        <pt x="329" y="225" on="1"/>
        <pt x="368" y="156" on="0"/>
        <pt x="463" y="156" on="1"/>
        <pt x="508" y="156" on="0"/>
        <pt x="553" y="182" on="1"/>
      </contour>
    </TTGlyph>
    <TTGlyph name="F" xMin="57" yMin="0" xMax="553" yMax="686">
      <contour>
        <pt x="57" y="0" on="1"/>
        <pt x="57" y="686" on="1"/>
        <pt x="553" y="686" on="1"/>
        <pt x="533" y="523" on="1"/>
        <pt x="262" y="523" on="1"/>
        <pt x="262" y="411" on="1"/>
        <pt x="514" y="411" on="1"/>
        <pt x="514" y="257" on="1"/>
        <pt x="262" y="257" on="1"/>
        <pt x="262" y="0" on="1"/>
      </contour>
    </TTGlyph>
    <TTGlyph name="G" xMin="31" yMin="-10" xMax="663" yMax="696">
      <contour>
        <pt x="656" y="144" on="1"/>
        <pt x="656" y="60" on="0"/>
        <pt x="663" y="0" on="1"/>
        <pt x="551" y="0" on="1"/>
        <pt x="523" y="73" on="1"/>
        <pt x="492" y="38" on="0"/>
        <pt x="437" y="14" on="1"/>
        <pt x="384" y="-10" on="0"/>
        <pt x="327" y="-10" on="1"/>
        <pt x="317" y="-10" on="1"/>
        <pt x="194" y="-10" on="0"/>
        <pt x="112" y="78" on="1"/>
        <pt x="31" y="164" on="0"/>
        <pt x="31" y="290" on="1"/>
        <pt x="31" y="396" on="1"/>
        <pt x="31" y="458" on="0"/>
        <pt x="78" y="568" on="0"/>
        <pt x="120" y="608" on="1"/>
        <pt x="211" y="696" on="0"/>
        <pt x="350" y="696" on="1"/>
        <pt x="378" y="696" on="1"/>
        <pt x="492" y="696" on="0"/>
        <pt x="573" y="626" on="1"/>
        <pt x="656" y="554" on="0"/>
        <pt x="656" y="446" on="1"/>
        <pt x="656" y="439" on="1"/>
        <pt x="462" y="439" on="1"/>
        <pt x="462" y="492" on="0"/>
        <pt x="403" y="540" on="0"/>
        <pt x="362" y="540" on="1"/>
        <pt x="357" y="540" on="1"/>
        <pt x="315" y="540" on="0"/>
        <pt x="257" y="482" on="0"/>
        <pt x="257" y="440" on="1"/>
        <pt x="257" y="247" on="1"/>
        <pt x="257" y="205" on="0"/>
        <pt x="315" y="147" on="0"/>
        <pt x="357" y="147" on="1"/>
        <pt x="375" y="147" on="1"/>
        <pt x="417" y="147" on="0"/>
        <pt x="462" y="201" on="0"/>
        <pt x="462" y="248" on="1"/>
        <pt x="346" y="248" on="1"/>
        <pt x="346" y="384" on="1"/>
        <pt x="656" y="384" on="1"/>
      </contour>
    </TTGlyph>
    <TTGlyph name="H" xMin="57" yMin="0" xMax="640" yMax="686">
      <contour>
        <pt x="57" y="0" on="1"/>
        <pt x="57" y="686" on="1"/>
        <pt x="267" y="686" on="1"/>
        <pt x="267" y="433" on="1"/>
        <pt x="429" y="433" on="1"/>
        <pt x="429" y="686" on="1"/>
        <pt x="640" y="686" on="1"/>
        <pt x="640" y="0" on="1"/>
        <pt x="430" y="0" on="1"/>
        <pt x="430" y="267" on="1"/>
        <pt x="268" y="267" on="1"/>
        <pt x="268" y="0" on="1"/>
      </contour>
    </TTGlyph>
    <TTGlyph name="I" xMin="36" yMin="0" xMax="410" yMax="686">
      <contour>
        <pt x="36" y="0" on="1"/>
        <pt x="36" y="148" on="1"/>
        <pt x="117" y="148" on="1"/>
        <pt x="117" y="539" on="1"/>
        <pt x="36" y="539" on="1"/>
        <pt x="36" y="686" on="1"/>
        <pt x="410" y="686" on="1"/>
        <pt x="410" y="539" on="1"/>
        <pt x="329" y="539" on="1"/>
        <pt x="329" y="148" on="1"/>
        <pt x="410" y="148" on="1"/>
        <pt x="410" y="0" on="1"/>
      </contour>
    </TTGlyph>
    <TTGlyph name="Iacute" xMin="36" yMin="0" xMax="410" yMax="895">
      <contour>
        <pt x="36" y="0" on="1"/>
        <pt x="36" y="148" on="1"/>
        <pt x="117" y="148" on="1"/>
        <pt x="117" y="539" on="1"/>
        <pt x="36" y="539" on="1"/>
        <pt x="36" y="686" on="1"/>
        <pt x="410" y="686" on="1"/>
        <pt x="410" y="539" on="1"/>
        <pt x="329" y="539" on="1"/>
        <pt x="329" y="148" on="1"/>
        <pt x="410" y="148" on="1"/>
        <pt x="410" y="0" on="1"/>
      </contour>
      <contour>
        <pt x="162" y="750" on="1"/>
        <pt x="253" y="895" on="1"/>
        <pt x="404" y="895" on="1"/>
        <pt x="406" y="892" on="1"/>
        <pt x="280" y="750" on="1"/>
      </contour>
    </TTGlyph>
    <TTGlyph name="Icircumflex" xMin="21" yMin="0" xMax="427" yMax="895">
      <contour>
        <pt x="21" y="750" on="1"/>
        <pt x="160" y="895" on="1"/>
        <pt x="288" y="895" on="1"/>
        <pt x="427" y="750" on="1"/>
        <pt x="297" y="750" on="1"/>
        <pt x="223" y="827" on="1"/>
        <pt x="149" y="750" on="1"/>
      </contour>
      <contour>
        <pt x="36" y="0" on="1"/>
        <pt x="36" y="148" on="1"/>
        <pt x="117" y="148" on="1"/>
        <pt x="117" y="539" on="1"/>
        <pt x="36" y="539" on="1"/>
        <pt x="36" y="686" on="1"/>
        <pt x="410" y="686" on="1"/>
        <pt x="410" y="539" on="1"/>
        <pt x="329" y="539" on="1"/>
        <pt x="329" y="148" on="1"/>
        <pt x="410" y="148" on="1"/>
        <pt x="410" y="0" on="1"/>
      </contour>
    </TTGlyph>
    <TTGlyph name="Idieresis" xMin="36" yMin="0" xMax="410" yMax="897">
      <contour>
        <pt x="36" y="0" on="1"/>
        <pt x="36" y="148" on="1"/>
        <pt x="117" y="148" on="1"/>
        <pt x="117" y="539" on="1"/>
        <pt x="36" y="539" on="1"/>
        <pt x="36" y="686" on="1"/>
        <pt x="410" y="686" on="1"/>
        <pt x="410" y="539" on="1"/>
        <pt x="329" y="539" on="1"/>
        <pt x="329" y="148" on="1"/>
        <pt x="410" y="148" on="1"/>
        <pt x="410" y="0" on="1"/>
      </contour>
      <contour>
        <pt x="37" y="750" on="1"/>
        <pt x="37" y="897" on="1"/>
        <pt x="189" y="897" on="1"/>
        <pt x="189" y="750" on="1"/>
      </contour>
      <contour>
        <pt x="257" y="750" on="1"/>
        <pt x="257" y="897" on="1"/>
        <pt x="409" y="897" on="1"/>
        <pt x="409" y="750" on="1"/>
      </contour>
    </TTGlyph>
    <TTGlyph name="Igrave" xMin="36" yMin="0" xMax="410" yMax="895">
      <contour>
        <pt x="36" y="0" on="1"/>
        <pt x="36" y="148" on="1"/>
        <pt x="117" y="148" on="1"/>
        <pt x="117" y="539" on="1"/>
        <pt x="36" y="539" on="1"/>
        <pt x="36" y="686" on="1"/>
        <pt x="410" y="686" on="1"/>
        <pt x="410" y="539" on="1"/>
        <pt x="329" y="539" on="1"/>
        <pt x="329" y="148" on="1"/>
        <pt x="410" y="148" on="1"/>
        <pt x="410" y="0" on="1"/>
      </contour>
      <contour>
        <pt x="37" y="892" on="1"/>
        <pt x="39" y="895" on="1"/>
        <pt x="190" y="895" on="1"/>
        <pt x="281" y="750" on="1"/>
        <pt x="163" y="750" on="1"/>
      </contour>
    </TTGlyph>
    <TTGlyph name="J" xMin="11" yMin="-10" xMax="492" yMax="686">
      <contour>
        <pt x="11" y="180" on="1"/>
        <pt x="11" y="248" on="1"/>
        <pt x="204" y="248" on="1"/>
        <pt x="204" y="186" on="1"/>
        <pt x="204" y="165" on="0"/>
        <pt x="228" y="140" on="0"/>
        <pt x="245" y="140" on="1"/>
        <pt x="262" y="140" on="0"/>
        <pt x="287" y="165" on="0"/>
        <pt x="287" y="186" on="1"/>
        <pt x="287" y="686" on="1"/>
        <pt x="492" y="686" on="1"/>
        <pt x="492" y="180" on="1"/>
        <pt x="492" y="89" on="0"/>
        <pt x="428" y="38" on="1"/>
        <pt x="366" y="-10" on="0"/>
        <pt x="262" y="-10" on="1"/>
        <pt x="231" y="-10" on="1"/>
        <pt x="130" y="-10" on="0"/>
        <pt x="11" y="88" on="0"/>
      </contour>
    </TTGlyph>
    <TTGlyph name="K" xMin="57" yMin="0" xMax="695" yMax="686">
      <contour>
        <pt x="57" y="0" on="1"/>
        <pt x="57" y="686" on="1"/>
        <pt x="261" y="686" on="1"/>
        <pt x="261" y="415" on="1"/>
        <pt x="457" y="686" on="1"/>
        <pt x="689" y="686" on="1"/>
        <pt x="480" y="411" on="1"/>
        <pt x="695" y="0" on="1"/>
        <pt x="460" y="0" on="1"/>
        <pt x="341" y="248" on="1"/>
        <pt x="261" y="152" on="1"/>
        <pt x="261" y="0" on="1"/>
      </contour>
    </TTGlyph>
    <TTGlyph name="L" xMin="57" yMin="0" xMax="538" yMax="686">
      <contour>
        <pt x="57" y="0" on="1"/>
        <pt x="57" y="686" on="1"/>
        <pt x="269" y="686" on="1"/>
        <pt x="269" y="168" on="1"/>
        <pt x="518" y="168" on="1"/>
        <pt x="538" y="0" on="1"/>
      </contour>
    </TTGlyph>
    <TTGlyph name="Lslash" xMin="9" yMin="0" xMax="556" yMax="686">
      <contour>
        <pt x="9" y="255" on="1"/>
        <pt x="9" y="360" on="1"/>
        <pt x="75" y="393" on="1"/>
        <pt x="75" y="686" on="1"/>
        <pt x="287" y="686" on="1"/>
        <pt x="287" y="499" on="1"/>
        <pt x="378" y="544" on="1"/>
        <pt x="378" y="439" on="1"/>
        <pt x="287" y="394" on="1"/>
        <pt x="287" y="168" on="1"/>
        <pt x="526" y="168" on="1"/>
        <pt x="556" y="0" on="1"/>
        <pt x="75" y="0" on="1"/>
        <pt x="75" y="288" on="1"/>
      </contour>
    </TTGlyph>
    <TTGlyph name="M" xMin="57" yMin="0" xMax="947" yMax="686">
      <contour>
        <pt x="57" y="0" on="1"/>
        <pt x="57" y="686" on="1"/>
        <pt x="401" y="686" on="1"/>
        <pt x="500" y="320" on="1"/>
        <pt x="504" y="320" on="1"/>
        <pt x="601" y="686" on="1"/>
        <pt x="947" y="686" on="1"/>
        <pt x="947" y="0" on="1"/>
        <pt x="737" y="0" on="1"/>
        <pt x="737" y="440" on="1"/>
        <pt x="733" y="440" on="1"/>
        <pt x="613" y="0" on="1"/>
        <pt x="372" y="0" on="1"/>
        <pt x="253" y="440" on="1"/>
        <pt x="248" y="440" on="1"/>
        <pt x="248" y="0" on="1"/>
      </contour>
    </TTGlyph>
    <TTGlyph name="N" xMin="57" yMin="0" xMax="639" yMax="686">
      <contour>
        <pt x="57" y="0" on="1"/>
        <pt x="57" y="686" on="1"/>
        <pt x="233" y="686" on="1"/>
        <pt x="443" y="382" on="1"/>
        <pt x="445" y="375" on="1"/>
        <pt x="445" y="686" on="1"/>
        <pt x="639" y="686" on="1"/>
        <pt x="639" y="0" on="1"/>
        <pt x="459" y="0" on="1"/>
        <pt x="253" y="297" on="1"/>
        <pt x="250" y="304" on="1"/>
        <pt x="250" y="0" on="1"/>
      </contour>
    </TTGlyph>
    <TTGlyph name="Ntilde" xMin="57" yMin="0" xMax="639" yMax="893">
      <contour>
        <pt x="57" y="0" on="1"/>
        <pt x="57" y="686" on="1"/>
        <pt x="233" y="686" on="1"/>
        <pt x="443" y="382" on="1"/>
        <pt x="445" y="375" on="1"/>
        <pt x="445" y="686" on="1"/>
        <pt x="639" y="686" on="1"/>
        <pt x="639" y="0" on="1"/>
        <pt x="459" y="0" on="1"/>
        <pt x="253" y="297" on="1"/>
        <pt x="250" y="304" on="1"/>
        <pt x="250" y="0" on="1"/>
      </contour>
      <contour>
        <pt x="130" y="750" on="1"/>
        <pt x="130" y="804" on="0"/>
        <pt x="171" y="848" on="1"/>
        <pt x="212" y="893" on="0"/>
        <pt x="270" y="893" on="1"/>
        <pt x="302" y="893" on="0"/>
        <pt x="382" y="865" on="0"/>
        <pt x="423" y="853" on="0"/>
        <pt x="443" y="853" on="1"/>
        <pt x="462" y="853" on="0"/>
        <pt x="488" y="876" on="0"/>
        <pt x="493" y="893" on="1"/>
        <pt x="574" y="893" on="1"/>
        <pt x="574" y="839" on="0"/>
        <pt x="533" y="794" on="1"/>
        <pt x="492" y="750" on="0"/>
        <pt x="434" y="750" on="1"/>
        <pt x="396" y="750" on="0"/>
        <pt x="344" y="770" on="1"/>
        <pt x="302" y="784" on="1"/>
        <pt x="281" y="790" on="0"/>
        <pt x="262" y="790" on="1"/>
        <pt x="242" y="790" on="0"/>
        <pt x="216" y="767" on="0"/>
        <pt x="211" y="750" on="1"/>
      </contour>
    </TTGlyph>
    <TTGlyph name="O" xMin="31" yMin="-10" xMax="687" yMax="694">
      <contour>
        <pt x="31" y="290" on="1"/>
        <pt x="31" y="394" on="1"/>
        <pt x="31" y="456" on="0"/>
        <pt x="78" y="566" on="0"/>
        <pt x="159" y="647" on="0"/>
        <pt x="269" y="694" on="0"/>
        <pt x="331" y="694" on="1"/>
        <pt x="387" y="694" on="1"/>
        <pt x="449" y="694" on="0"/>
        <pt x="559" y="647" on="0"/>
        <pt x="640" y="566" on="0"/>
        <pt x="687" y="456" on="0"/>
        <pt x="687" y="394" on="1"/>
        <pt x="687" y="290" on="1"/>
        <pt x="687" y="228" on="0"/>
        <pt x="640" y="118" on="0"/>
        <pt x="559" y="37" on="0"/>
        <pt x="449" y="-10" on="0"/>
        <pt x="387" y="-10" on="1"/>
        <pt x="331" y="-10" on="1"/>
        <pt x="269" y="-10" on="0"/>
        <pt x="159" y="37" on="0"/>
        <pt x="78" y="118" on="0"/>
        <pt x="31" y="228" on="0"/>
      </contour>
      <contour>
        <pt x="257" y="247" on="1"/>
        <pt x="257" y="205" on="0"/>
        <pt x="315" y="147" on="0"/>
        <pt x="357" y="147" on="1"/>
        <pt x="362" y="147" on="1"/>
        <pt x="404" y="147" on="0"/>
        <pt x="462" y="205" on="0"/>
        <pt x="462" y="247" on="1"/>
        <pt x="462" y="440" on="1"/>
        <pt x="462" y="482" on="0"/>
        <pt x="404" y="540" on="0"/>
        <pt x="362" y="540" on="1"/>
        <pt x="357" y="540" on="1"/>
        <pt x="315" y="540" on="0"/>
        <pt x="257" y="482" on="0"/>
        <pt x="257" y="440" on="1"/>
      </contour>
    </TTGlyph>
    <TTGlyph name="OE" xMin="31" yMin="-10" xMax="977" yMax="694">
      <contour>
        <pt x="462" y="0" on="1"/>
        <pt x="426" y="-10" on="0"/>
        <pt x="387" y="-10" on="1"/>
        <pt x="331" y="-10" on="1"/>
        <pt x="269" y="-10" on="0"/>
        <pt x="159" y="37" on="0"/>
        <pt x="78" y="118" on="0"/>
        <pt x="31" y="228" on="0"/>
        <pt x="31" y="290" on="1"/>
        <pt x="31" y="394" on="1"/>
        <pt x="31" y="456" on="0"/>
        <pt x="78" y="566" on="0"/>
        <pt x="159" y="647" on="0"/>
        <pt x="269" y="694" on="0"/>
        <pt x="331" y="694" on="1"/>
        <pt x="387" y="694" on="1"/>
        <pt x="425" y="694" on="0"/>
        <pt x="463" y="686" on="1"/>
        <pt x="967" y="686" on="1"/>
        <pt x="927" y="528" on="1"/>
        <pt x="672" y="528" on="1"/>
        <pt x="672" y="419" on="1"/>
        <pt x="916" y="419" on="1"/>
        <pt x="916" y="266" on="1"/>
        <pt x="672" y="266" on="1"/>
        <pt x="672" y="157" on="1"/>
        <pt x="947" y="157" on="1"/>
        <pt x="977" y="0" on="1"/>
      </contour>
      <contour>
        <pt x="257" y="247" on="1"/>
        <pt x="257" y="205" on="0"/>
        <pt x="315" y="147" on="0"/>
        <pt x="357" y="147" on="1"/>
        <pt x="362" y="147" on="1"/>
        <pt x="404" y="147" on="0"/>
        <pt x="462" y="205" on="0"/>
        <pt x="462" y="247" on="1"/>
        <pt x="462" y="440" on="1"/>
        <pt x="462" y="482" on="0"/>
        <pt x="404" y="540" on="0"/>
        <pt x="362" y="540" on="1"/>
        <pt x="357" y="540" on="1"/>
        <pt x="315" y="540" on="0"/>
        <pt x="257" y="482" on="0"/>
        <pt x="257" y="440" on="1"/>
      </contour>
    </TTGlyph>
    <TTGlyph name="Oacute" xMin="31" yMin="-10" xMax="687" yMax="895">
      <contour>
        <pt x="31" y="290" on="1"/>
        <pt x="31" y="394" on="1"/>
        <pt x="31" y="456" on="0"/>
        <pt x="78" y="566" on="0"/>
        <pt x="159" y="647" on="0"/>
        <pt x="269" y="694" on="0"/>
        <pt x="331" y="694" on="1"/>
        <pt x="387" y="694" on="1"/>
        <pt x="449" y="694" on="0"/>
        <pt x="559" y="647" on="0"/>
        <pt x="640" y="566" on="0"/>
        <pt x="687" y="456" on="0"/>
        <pt x="687" y="394" on="1"/>
        <pt x="687" y="290" on="1"/>
        <pt x="687" y="228" on="0"/>
        <pt x="640" y="118" on="0"/>
        <pt x="559" y="37" on="0"/>
        <pt x="449" y="-10" on="0"/>
        <pt x="387" y="-10" on="1"/>
        <pt x="331" y="-10" on="1"/>
        <pt x="269" y="-10" on="0"/>
        <pt x="159" y="37" on="0"/>
        <pt x="78" y="118" on="0"/>
        <pt x="31" y="228" on="0"/>
      </contour>
      <contour>
        <pt x="257" y="247" on="1"/>
        <pt x="257" y="205" on="0"/>
        <pt x="315" y="147" on="0"/>
        <pt x="357" y="147" on="1"/>
        <pt x="362" y="147" on="1"/>
        <pt x="404" y="147" on="0"/>
        <pt x="462" y="205" on="0"/>
        <pt x="462" y="247" on="1"/>
        <pt x="462" y="440" on="1"/>
        <pt x="462" y="482" on="0"/>
        <pt x="404" y="540" on="0"/>
        <pt x="362" y="540" on="1"/>
        <pt x="357" y="540" on="1"/>
        <pt x="315" y="540" on="0"/>
        <pt x="257" y="482" on="0"/>
        <pt x="257" y="440" on="1"/>
      </contour>
      <contour>
        <pt x="297" y="750" on="1"/>
        <pt x="388" y="895" on="1"/>
        <pt x="539" y="895" on="1"/>
        <pt x="541" y="892" on="1"/>
        <pt x="415" y="750" on="1"/>
      </contour>
    </TTGlyph>
    <TTGlyph name="Ocircumflex" xMin="31" yMin="-10" xMax="687" yMax="895">
      <contour>
        <pt x="31" y="290" on="1"/>
        <pt x="31" y="394" on="1"/>
        <pt x="31" y="456" on="0"/>
        <pt x="78" y="566" on="0"/>
        <pt x="159" y="647" on="0"/>
        <pt x="269" y="694" on="0"/>
        <pt x="331" y="694" on="1"/>
        <pt x="387" y="694" on="1"/>
        <pt x="449" y="694" on="0"/>
        <pt x="559" y="647" on="0"/>
        <pt x="640" y="566" on="0"/>
        <pt x="687" y="456" on="0"/>
        <pt x="687" y="394" on="1"/>
        <pt x="687" y="290" on="1"/>
        <pt x="687" y="228" on="0"/>
        <pt x="640" y="118" on="0"/>
        <pt x="559" y="37" on="0"/>
        <pt x="449" y="-10" on="0"/>
        <pt x="387" y="-10" on="1"/>
        <pt x="331" y="-10" on="1"/>
        <pt x="269" y="-10" on="0"/>
        <pt x="159" y="37" on="0"/>
        <pt x="78" y="118" on="0"/>
        <pt x="31" y="228" on="0"/>
      </contour>
      <contour>
        <pt x="153" y="750" on="1"/>
        <pt x="292" y="895" on="1"/>
        <pt x="420" y="895" on="1"/>
        <pt x="559" y="750" on="1"/>
        <pt x="429" y="750" on="1"/>
        <pt x="355" y="827" on="1"/>
        <pt x="281" y="750" on="1"/>
      </contour>
      <contour>
        <pt x="257" y="247" on="1"/>
        <pt x="257" y="205" on="0"/>
        <pt x="315" y="147" on="0"/>
        <pt x="357" y="147" on="1"/>
        <pt x="362" y="147" on="1"/>
        <pt x="404" y="147" on="0"/>
        <pt x="462" y="205" on="0"/>
        <pt x="462" y="247" on="1"/>
        <pt x="462" y="440" on="1"/>
        <pt x="462" y="482" on="0"/>
        <pt x="404" y="540" on="0"/>
        <pt x="362" y="540" on="1"/>
        <pt x="357" y="540" on="1"/>
        <pt x="315" y="540" on="0"/>
        <pt x="257" y="482" on="0"/>
        <pt x="257" y="440" on="1"/>
      </contour>
    </TTGlyph>
    <TTGlyph name="Odieresis" xMin="31" yMin="-10" xMax="687" yMax="897">
      <contour>
        <pt x="31" y="290" on="1"/>
        <pt x="31" y="394" on="1"/>
        <pt x="31" y="456" on="0"/>
        <pt x="78" y="566" on="0"/>
        <pt x="159" y="647" on="0"/>
        <pt x="269" y="694" on="0"/>
        <pt x="331" y="694" on="1"/>
        <pt x="387" y="694" on="1"/>
        <pt x="449" y="694" on="0"/>
        <pt x="559" y="647" on="0"/>
        <pt x="640" y="566" on="0"/>
        <pt x="687" y="456" on="0"/>
        <pt x="687" y="394" on="1"/>
        <pt x="687" y="290" on="1"/>
        <pt x="687" y="228" on="0"/>
        <pt x="640" y="118" on="0"/>
        <pt x="559" y="37" on="0"/>
        <pt x="449" y="-10" on="0"/>
        <pt x="387" y="-10" on="1"/>
        <pt x="331" y="-10" on="1"/>
        <pt x="269" y="-10" on="0"/>
        <pt x="159" y="37" on="0"/>
        <pt x="78" y="118" on="0"/>
        <pt x="31" y="228" on="0"/>
      </contour>
      <contour>
        <pt x="177" y="750" on="1"/>
        <pt x="177" y="897" on="1"/>
        <pt x="329" y="897" on="1"/>
        <pt x="329" y="750" on="1"/>
      </contour>
      <contour>
        <pt x="257" y="247" on="1"/>
        <pt x="257" y="205" on="0"/>
        <pt x="315" y="147" on="0"/>
        <pt x="357" y="147" on="1"/>
        <pt x="362" y="147" on="1"/>
        <pt x="404" y="147" on="0"/>
        <pt x="462" y="205" on="0"/>
        <pt x="462" y="247" on="1"/>
        <pt x="462" y="440" on="1"/>
        <pt x="462" y="482" on="0"/>
        <pt x="404" y="540" on="0"/>
        <pt x="362" y="540" on="1"/>
        <pt x="357" y="540" on="1"/>
        <pt x="315" y="540" on="0"/>
        <pt x="257" y="482" on="0"/>
        <pt x="257" y="440" on="1"/>
      </contour>
      <contour>
        <pt x="397" y="750" on="1"/>
        <pt x="397" y="897" on="1"/>
        <pt x="549" y="897" on="1"/>
        <pt x="549" y="750" on="1"/>
      </contour>
    </TTGlyph>
    <TTGlyph name="Ograve" xMin="31" yMin="-10" xMax="687" yMax="895">
      <contour>
        <pt x="31" y="290" on="1"/>
        <pt x="31" y="394" on="1"/>
        <pt x="31" y="456" on="0"/>
        <pt x="78" y="566" on="0"/>
        <pt x="159" y="647" on="0"/>
        <pt x="269" y="694" on="0"/>
        <pt x="331" y="694" on="1"/>
        <pt x="387" y="694" on="1"/>
        <pt x="449" y="694" on="0"/>
        <pt x="559" y="647" on="0"/>
        <pt x="640" y="566" on="0"/>
        <pt x="687" y="456" on="0"/>
        <pt x="687" y="394" on="1"/>
        <pt x="687" y="290" on="1"/>
        <pt x="687" y="228" on="0"/>
        <pt x="640" y="118" on="0"/>
        <pt x="559" y="37" on="0"/>
        <pt x="449" y="-10" on="0"/>
        <pt x="387" y="-10" on="1"/>
        <pt x="331" y="-10" on="1"/>
        <pt x="269" y="-10" on="0"/>
        <pt x="159" y="37" on="0"/>
        <pt x="78" y="118" on="0"/>
        <pt x="31" y="228" on="0"/>
      </contour>
      <contour>
        <pt x="181" y="892" on="1"/>
        <pt x="183" y="895" on="1"/>
        <pt x="334" y="895" on="1"/>
        <pt x="425" y="750" on="1"/>
        <pt x="307" y="750" on="1"/>
      </contour>
      <contour>
        <pt x="257" y="247" on="1"/>
        <pt x="257" y="205" on="0"/>
        <pt x="315" y="147" on="0"/>
        <pt x="357" y="147" on="1"/>
        <pt x="362" y="147" on="1"/>
        <pt x="404" y="147" on="0"/>
        <pt x="462" y="205" on="0"/>
        <pt x="462" y="247" on="1"/>
        <pt x="462" y="440" on="1"/>
        <pt x="462" y="482" on="0"/>
        <pt x="404" y="540" on="0"/>
        <pt x="362" y="540" on="1"/>
        <pt x="357" y="540" on="1"/>
        <pt x="315" y="540" on="0"/>
        <pt x="257" y="482" on="0"/>
        <pt x="257" y="440" on="1"/>
      </contour>
    </TTGlyph>
    <TTGlyph name="Oslash" xMin="31" yMin="-65" xMax="687" yMax="754">
      <contour>
        <pt x="132" y="65" on="1"/>
        <pt x="31" y="155" on="0"/>
        <pt x="31" y="290" on="1"/>
        <pt x="31" y="394" on="1"/>
        <pt x="31" y="456" on="0"/>
        <pt x="78" y="566" on="0"/>
        <pt x="159" y="647" on="0"/>
        <pt x="269" y="694" on="0"/>
        <pt x="331" y="694" on="1"/>
        <pt x="387" y="694" on="1"/>
        <pt x="448" y="694" on="0"/>
        <pt x="502" y="671" on="1"/>
        <pt x="553" y="754" on="1"/>
        <pt x="661" y="754" on="1"/>
        <pt x="581" y="623" on="1"/>
        <pt x="630" y="581" on="0"/>
        <pt x="687" y="463" on="0"/>
        <pt x="687" y="394" on="1"/>
        <pt x="687" y="290" on="1"/>
        <pt x="687" y="228" on="0"/>
        <pt x="640" y="118" on="0"/>
        <pt x="559" y="37" on="0"/>
        <pt x="449" y="-10" on="0"/>
        <pt x="387" y="-10" on="1"/>
        <pt x="331" y="-10" on="1"/>
        <pt x="268" y="-10" on="0"/>
        <pt x="210" y="15" on="1"/>
        <pt x="161" y="-65" on="1"/>
        <pt x="53" y="-65" on="1"/>
      </contour>
      <contour>
        <pt x="257" y="269" on="1"/>
        <pt x="414" y="526" on="1"/>
        <pt x="389" y="540" on="0"/>
        <pt x="362" y="540" on="1"/>
        <pt x="357" y="540" on="1"/>
        <pt x="315" y="540" on="0"/>
        <pt x="257" y="482" on="0"/>
        <pt x="257" y="440" on="1"/>
      </contour>
      <contour>
        <pt x="301" y="164" on="1"/>
        <pt x="326" y="147" on="0"/>
        <pt x="357" y="147" on="1"/>
        <pt x="362" y="147" on="1"/>
        <pt x="404" y="147" on="0"/>
        <pt x="462" y="205" on="0"/>
        <pt x="462" y="247" on="1"/>
        <pt x="462" y="428" on="1"/>
      </contour>
    </TTGlyph>
    <TTGlyph name="Otilde" xMin="31" yMin="-10" xMax="687" yMax="893">
      <contour>
        <pt x="31" y="290" on="1"/>
        <pt x="31" y="394" on="1"/>
        <pt x="31" y="456" on="0"/>
        <pt x="78" y="566" on="0"/>
        <pt x="159" y="647" on="0"/>
        <pt x="269" y="694" on="0"/>
        <pt x="331" y="694" on="1"/>
        <pt x="387" y="694" on="1"/>
        <pt x="449" y="694" on="0"/>
        <pt x="559" y="647" on="0"/>
        <pt x="640" y="566" on="0"/>
        <pt x="687" y="456" on="0"/>
        <pt x="687" y="394" on="1"/>
        <pt x="687" y="290" on="1"/>
        <pt x="687" y="228" on="0"/>
        <pt x="640" y="118" on="0"/>
        <pt x="559" y="37" on="0"/>
        <pt x="449" y="-10" on="0"/>
        <pt x="387" y="-10" on="1"/>
        <pt x="331" y="-10" on="1"/>
        <pt x="269" y="-10" on="0"/>
        <pt x="159" y="37" on="0"/>
        <pt x="78" y="118" on="0"/>
        <pt x="31" y="228" on="0"/>
      </contour>
      <contour>
        <pt x="135" y="750" on="1"/>
        <pt x="135" y="804" on="0"/>
        <pt x="176" y="848" on="1"/>
        <pt x="217" y="893" on="0"/>
        <pt x="275" y="893" on="1"/>
        <pt x="307" y="893" on="0"/>
        <pt x="387" y="865" on="0"/>
        <pt x="428" y="853" on="0"/>
        <pt x="448" y="853" on="1"/>
        <pt x="467" y="853" on="0"/>
        <pt x="493" y="876" on="0"/>
        <pt x="498" y="893" on="1"/>
        <pt x="579" y="893" on="1"/>
        <pt x="579" y="839" on="0"/>
        <pt x="538" y="794" on="1"/>
        <pt x="497" y="750" on="0"/>
        <pt x="439" y="750" on="1"/>
        <pt x="403" y="750" on="0"/>
        <pt x="348" y="770" on="1"/>
        <pt x="306" y="784" on="1"/>
        <pt x="286" y="790" on="0"/>
        <pt x="267" y="790" on="1"/>
        <pt x="247" y="790" on="0"/>
        <pt x="221" y="767" on="0"/>
        <pt x="216" y="750" on="1"/>
      </contour>
      <contour>
        <pt x="257" y="247" on="1"/>
        <pt x="257" y="205" on="0"/>
        <pt x="315" y="147" on="0"/>
        <pt x="357" y="147" on="1"/>
        <pt x="362" y="147" on="1"/>
        <pt x="404" y="147" on="0"/>
        <pt x="462" y="205" on="0"/>
        <pt x="462" y="247" on="1"/>
        <pt x="462" y="440" on="1"/>
        <pt x="462" y="482" on="0"/>
        <pt x="404" y="540" on="0"/>
        <pt x="362" y="540" on="1"/>
        <pt x="357" y="540" on="1"/>
        <pt x="315" y="540" on="0"/>
        <pt x="257" y="482" on="0"/>
        <pt x="257" y="440" on="1"/>
      </contour>
    </TTGlyph>
    <TTGlyph name="P" xMin="57" yMin="0" xMax="632" yMax="686">
      <contour>
        <pt x="57" y="0" on="1"/>
        <pt x="57" y="686" on="1"/>
        <pt x="422" y="686" on="1"/>
        <pt x="509" y="686" on="0"/>
        <pt x="632" y="563" on="0"/>
        <pt x="632" y="476" on="1"/>
        <pt x="632" y="454" on="1"/>
        <pt x="632" y="367" on="0"/>
        <pt x="509" y="244" on="0"/>
        <pt x="422" y="244" on="1"/>
        <pt x="267" y="244" on="1"/>
        <pt x="267" y="0" on="1"/>
      </contour>
      <contour>
        <pt x="267" y="397" on="1"/>
        <pt x="359" y="397" on="1"/>
        <pt x="389" y="397" on="0"/>
        <pt x="419" y="436" on="0"/>
        <pt x="419" y="457" on="1"/>
        <pt x="419" y="469" on="1"/>
        <pt x="419" y="490" on="0"/>
        <pt x="390" y="529" on="0"/>
        <pt x="359" y="529" on="1"/>
        <pt x="267" y="529" on="1"/>
      </contour>
    </TTGlyph>
    <TTGlyph name="Q" xMin="31" yMin="-162" xMax="688" yMax="694">
      <contour>
        <pt x="484" y="6" on="1"/>
        <pt x="504" y="-39" on="0"/>
        <pt x="562" y="-39" on="1"/>
        <pt x="610" y="-39" on="0"/>
        <pt x="675" y="-19" on="1"/>
        <pt x="688" y="-15" on="1"/>
        <pt x="688" y="-120" on="1"/>
        <pt x="611" y="-162" on="0"/>
        <pt x="507" y="-162" on="1"/>
        <pt x="403" y="-162" on="0"/>
        <pt x="339" y="-108" on="1"/>
        <pt x="287" y="-65" on="0"/>
        <pt x="273" y="-4" on="1"/>
        <pt x="169" y="16" on="0"/>
        <pt x="100" y="98" on="1"/>
        <pt x="31" y="181" on="0"/>
        <pt x="31" y="290" on="1"/>
        <pt x="31" y="394" on="1"/>
        <pt x="31" y="456" on="0"/>
        <pt x="78" y="566" on="0"/>
        <pt x="159" y="647" on="0"/>
        <pt x="269" y="694" on="0"/>
        <pt x="331" y="694" on="1"/>
        <pt x="387" y="694" on="1"/>
        <pt x="449" y="694" on="0"/>
        <pt x="559" y="647" on="0"/>
        <pt x="640" y="566" on="0"/>
        <pt x="687" y="456" on="0"/>
        <pt x="687" y="394" on="1"/>
        <pt x="687" y="290" on="1"/>
        <pt x="687" y="192" on="0"/>
        <pt x="630" y="114" on="1"/>
        <pt x="573" y="36" on="0"/>
      </contour>
      <contour>
        <pt x="257" y="247" on="1"/>
        <pt x="257" y="205" on="0"/>
        <pt x="315" y="147" on="0"/>
        <pt x="357" y="147" on="1"/>
        <pt x="362" y="147" on="1"/>
        <pt x="404" y="147" on="0"/>
        <pt x="462" y="205" on="0"/>
        <pt x="462" y="247" on="1"/>
        <pt x="462" y="440" on="1"/>
        <pt x="462" y="482" on="0"/>
        <pt x="404" y="540" on="0"/>
        <pt x="362" y="540" on="1"/>
        <pt x="357" y="540" on="1"/>
        <pt x="315" y="540" on="0"/>
        <pt x="257" y="482" on="0"/>
        <pt x="257" y="440" on="1"/>
      </contour>
    </TTGlyph>
    <TTGlyph name="R" xMin="57" yMin="-10" xMax="670" yMax="686">
      <contour>
        <pt x="670" y="9" on="1"/>
        <pt x="623" y="-10" on="0"/>
        <pt x="553" y="-10" on="1"/>
        <pt x="482" y="-10" on="0"/>
        <pt x="409" y="47" on="0"/>
        <pt x="409" y="119" on="1"/>
        <pt x="409" y="185" on="0"/>
        <pt x="388" y="238" on="0"/>
        <pt x="352" y="266" on="0"/>
        <pt x="320" y="266" on="1"/>
        <pt x="262" y="266" on="1"/>
        <pt x="262" y="0" on="1"/>
        <pt x="57" y="0" on="1"/>
        <pt x="57" y="686" on="1"/>
        <pt x="442" y="686" on="1"/>
        <pt x="519" y="686" on="0"/>
        <pt x="574" y="640" on="1"/>
        <pt x="632" y="590" on="0"/>
        <pt x="632" y="516" on="1"/>
        <pt x="632" y="461" on="0"/>
        <pt x="561" y="364" on="0"/>
        <pt x="509" y="354" on="1"/>
        <pt x="509" y="349" on="1"/>
        <pt x="567" y="332" on="0"/>
        <pt x="619" y="235" on="0"/>
        <pt x="619" y="173" on="1"/>
        <pt x="619" y="100" on="0"/>
        <pt x="641" y="69" on="1"/>
        <pt x="651" y="55" on="0"/>
        <pt x="670" y="50" on="1"/>
      </contour>
      <contour>
        <pt x="262" y="419" on="1"/>
        <pt x="368" y="419" on="1"/>
        <pt x="389" y="419" on="0"/>
        <pt x="418" y="448" on="0"/>
        <pt x="418" y="469" on="1"/>
        <pt x="418" y="479" on="1"/>
        <pt x="418" y="500" on="0"/>
        <pt x="389" y="529" on="0"/>
        <pt x="368" y="529" on="1"/>
        <pt x="262" y="529" on="1"/>
      </contour>
    </TTGlyph>
    <TTGlyph name="S" xMin="25" yMin="-10" xMax="623" yMax="696">
      <contour>
        <pt x="335" y="544" on="1"/>
        <pt x="252" y="544" on="0"/>
        <pt x="252" y="502" on="1"/>
        <pt x="252" y="477" on="0"/>
        <pt x="307" y="452" on="0"/>
        <pt x="348" y="442" on="1"/>
        <pt x="437" y="422" on="1"/>
        <pt x="546" y="397" on="0"/>
        <pt x="596" y="330" on="1"/>
        <pt x="623" y="292" on="0"/>
        <pt x="623" y="229" on="1"/>
        <pt x="623" y="165" on="0"/>
        <pt x="579" y="75" on="0"/>
        <pt x="539" y="46" on="1"/>
        <pt x="462" y="-10" on="0"/>
        <pt x="318" y="-10" on="1"/>
        <pt x="194" y="-10" on="0"/>
        <pt x="114" y="43" on="1"/>
        <pt x="25" y="103" on="0"/>
        <pt x="25" y="210" on="1"/>
        <pt x="25" y="222" on="1"/>
        <pt x="25" y="228" on="0"/>
        <pt x="26" y="234" on="1"/>
        <pt x="220" y="234" on="1"/>
        <pt x="219" y="230" on="0"/>
        <pt x="219" y="220" on="1"/>
        <pt x="219" y="209" on="0"/>
        <pt x="228" y="183" on="0"/>
        <pt x="238" y="173" on="1"/>
        <pt x="262" y="151" on="0"/>
        <pt x="302" y="151" on="1"/>
        <pt x="342" y="151" on="0"/>
        <pt x="380" y="158" on="0"/>
        <pt x="390" y="164" on="1"/>
        <pt x="407" y="174" on="0"/>
        <pt x="407" y="196" on="1"/>
        <pt x="407" y="218" on="0"/>
        <pt x="353" y="242" on="0"/>
        <pt x="271" y="260" on="0"/>
        <pt x="176" y="283" on="0"/>
        <pt x="135" y="306" on="1"/>
        <pt x="40" y="361" on="0"/>
        <pt x="40" y="478" on="1"/>
        <pt x="40" y="582" on="0"/>
        <pt x="126" y="642" on="1"/>
        <pt x="204" y="696" on="0"/>
        <pt x="331" y="696" on="1"/>
        <pt x="453" y="696" on="0"/>
        <pt x="528" y="646" on="1"/>
        <pt x="610" y="590" on="0"/>
        <pt x="610" y="486" on="1"/>
        <pt x="610" y="474" on="1"/>
        <pt x="418" y="474" on="1"/>
        <pt x="418" y="478" on="1"/>
        <pt x="418" y="504" on="0"/>
        <pt x="380" y="544" on="0"/>
      </contour>
    </TTGlyph>
    <TTGlyph name="Scaron" xMin="25" yMin="-10" xMax="623" yMax="895">
      <contour>
        <pt x="335" y="544" on="1"/>
        <pt x="252" y="544" on="0"/>
        <pt x="252" y="502" on="1"/>
        <pt x="252" y="477" on="0"/>
        <pt x="307" y="452" on="0"/>
        <pt x="348" y="442" on="1"/>
        <pt x="437" y="422" on="1"/>
        <pt x="546" y="398" on="0"/>
        <pt x="596" y="330" on="1"/>
        <pt x="623" y="292" on="0"/>
        <pt x="623" y="229" on="1"/>
        <pt x="623" y="165" on="0"/>
        <pt x="579" y="75" on="0"/>
        <pt x="539" y="46" on="1"/>
        <pt x="462" y="-10" on="0"/>
        <pt x="318" y="-10" on="1"/>
        <pt x="194" y="-10" on="0"/>
        <pt x="114" y="43" on="1"/>
        <pt x="25" y="103" on="0"/>
        <pt x="25" y="210" on="1"/>
        <pt x="25" y="222" on="1"/>
        <pt x="25" y="228" on="0"/>
        <pt x="26" y="234" on="1"/>
        <pt x="220" y="234" on="1"/>
        <pt x="219" y="230" on="0"/>
        <pt x="219" y="220" on="1"/>
        <pt x="219" y="209" on="0"/>
        <pt x="228" y="183" on="0"/>
        <pt x="238" y="173" on="1"/>
        <pt x="262" y="151" on="0"/>
        <pt x="302" y="151" on="1"/>
        <pt x="342" y="151" on="0"/>
        <pt x="380" y="158" on="0"/>
        <pt x="390" y="164" on="1"/>
        <pt x="407" y="174" on="0"/>
        <pt x="407" y="196" on="1"/>
        <pt x="407" y="218" on="0"/>
        <pt x="353" y="242" on="0"/>
        <pt x="271" y="260" on="0"/>
        <pt x="176" y="283" on="0"/>
        <pt x="135" y="306" on="1"/>
        <pt x="40" y="361" on="0"/>
        <pt x="40" y="478" on="1"/>
        <pt x="40" y="582" on="0"/>
        <pt x="126" y="642" on="1"/>
        <pt x="204" y="696" on="0"/>
        <pt x="331" y="696" on="1"/>
        <pt x="453" y="696" on="0"/>
        <pt x="528" y="646" on="1"/>
        <pt x="610" y="590" on="0"/>
        <pt x="610" y="486" on="1"/>
        <pt x="610" y="474" on="1"/>
        <pt x="418" y="474" on="1"/>
        <pt x="418" y="478" on="1"/>
        <pt x="418" y="504" on="0"/>
        <pt x="380" y="544" on="0"/>
      </contour>
      <contour>
        <pt x="125" y="895" on="1"/>
        <pt x="255" y="895" on="1"/>
        <pt x="329" y="818" on="1"/>
        <pt x="403" y="895" on="1"/>
        <pt x="531" y="895" on="1"/>
        <pt x="392" y="750" on="1"/>
        <pt x="264" y="750" on="1"/>
      </contour>
    </TTGlyph>
    <TTGlyph name="T" xMin="15" yMin="0" xMax="571" yMax="686">
      <contour>
        <pt x="15" y="521" on="1"/>
        <pt x="15" y="686" on="1"/>
        <pt x="571" y="686" on="1"/>
        <pt x="571" y="521" on="1"/>
        <pt x="397" y="521" on="1"/>
        <pt x="397" y="0" on="1"/>
        <pt x="189" y="0" on="1"/>
        <pt x="189" y="521" on="1"/>
      </contour>
    </TTGlyph>
    <TTGlyph name="Thorn" xMin="57" yMin="0" xMax="632" yMax="686">
      <contour>
        <pt x="57" y="0" on="1"/>
        <pt x="57" y="686" on="1"/>
        <pt x="266" y="686" on="1"/>
        <pt x="266" y="583" on="1"/>
        <pt x="422" y="583" on="1"/>
        <pt x="509" y="583" on="0"/>
        <pt x="632" y="460" on="0"/>
        <pt x="632" y="373" on="1"/>
        <pt x="632" y="356" on="1"/>
        <pt x="632" y="269" on="0"/>
        <pt x="509" y="146" on="0"/>
        <pt x="422" y="146" on="1"/>
        <pt x="266" y="146" on="1"/>
        <pt x="266" y="0" on="1"/>
      </contour>
      <contour>
        <pt x="266" y="294" on="1"/>
        <pt x="369" y="294" on="1"/>
        <pt x="390" y="294" on="0"/>
        <pt x="419" y="323" on="0"/>
        <pt x="419" y="344" on="1"/>
        <pt x="419" y="377" on="1"/>
        <pt x="419" y="398" on="0"/>
        <pt x="390" y="427" on="0"/>
        <pt x="369" y="427" on="1"/>
        <pt x="266" y="427" on="1"/>
      </contour>
    </TTGlyph>
    <TTGlyph name="U" xMin="52" yMin="-10" xMax="635" yMax="686">
      <contour>
        <pt x="52" y="218" on="1"/>
        <pt x="52" y="686" on="1"/>
        <pt x="263" y="686" on="1"/>
        <pt x="263" y="221" on="1"/>
        <pt x="263" y="188" on="0"/>
        <pt x="310" y="146" on="0"/>
        <pt x="344" y="146" on="1"/>
        <pt x="378" y="146" on="0"/>
        <pt x="425" y="188" on="0"/>
        <pt x="425" y="221" on="1"/>
        <pt x="425" y="686" on="1"/>
        <pt x="635" y="686" on="1"/>
        <pt x="635" y="218" on="1"/>
        <pt x="635" y="115" on="0"/>
        <pt x="561" y="52" on="1"/>
        <pt x="489" y="-10" on="0"/>
        <pt x="365" y="-10" on="1"/>
        <pt x="322" y="-10" on="1"/>
        <pt x="198" y="-10" on="0"/>
        <pt x="126" y="52" on="1"/>
        <pt x="52" y="115" on="0"/>
      </contour>
    </TTGlyph>
    <TTGlyph name="Uacute" xMin="52" yMin="-10" xMax="635" yMax="895">
      <contour>
        <pt x="52" y="218" on="1"/>
        <pt x="52" y="686" on="1"/>
        <pt x="263" y="686" on="1"/>
        <pt x="263" y="221" on="1"/>
        <pt x="263" y="188" on="0"/>
        <pt x="310" y="146" on="0"/>
        <pt x="344" y="146" on="1"/>
        <pt x="378" y="146" on="0"/>
        <pt x="425" y="188" on="0"/>
        <pt x="425" y="221" on="1"/>
        <pt x="425" y="686" on="1"/>
        <pt x="635" y="686" on="1"/>
        <pt x="635" y="218" on="1"/>
        <pt x="635" y="115" on="0"/>
        <pt x="561" y="52" on="1"/>
        <pt x="489" y="-10" on="0"/>
        <pt x="365" y="-10" on="1"/>
        <pt x="322" y="-10" on="1"/>
        <pt x="198" y="-10" on="0"/>
        <pt x="126" y="52" on="1"/>
        <pt x="52" y="115" on="0"/>
      </contour>
      <contour>
        <pt x="285" y="750" on="1"/>
        <pt x="376" y="895" on="1"/>
        <pt x="527" y="895" on="1"/>
        <pt x="529" y="892" on="1"/>
        <pt x="403" y="750" on="1"/>
      </contour>
    </TTGlyph>
    <TTGlyph name="Ucircumflex" xMin="52" yMin="-10" xMax="635" yMax="895">
      <contour>
        <pt x="52" y="218" on="1"/>
        <pt x="52" y="686" on="1"/>
        <pt x="263" y="686" on="1"/>
        <pt x="263" y="221" on="1"/>
        <pt x="263" y="188" on="0"/>
        <pt x="310" y="146" on="0"/>
        <pt x="344" y="146" on="1"/>
        <pt x="378" y="146" on="0"/>
        <pt x="425" y="188" on="0"/>
        <pt x="425" y="221" on="1"/>
        <pt x="425" y="686" on="1"/>
        <pt x="635" y="686" on="1"/>
        <pt x="635" y="218" on="1"/>
        <pt x="635" y="115" on="0"/>
        <pt x="561" y="52" on="1"/>
        <pt x="489" y="-10" on="0"/>
        <pt x="365" y="-10" on="1"/>
        <pt x="322" y="-10" on="1"/>
        <pt x="198" y="-10" on="0"/>
        <pt x="126" y="52" on="1"/>
        <pt x="52" y="115" on="0"/>
      </contour>
      <contour>
        <pt x="144" y="750" on="1"/>
        <pt x="283" y="895" on="1"/>
        <pt x="411" y="895" on="1"/>
        <pt x="550" y="750" on="1"/>
        <pt x="420" y="750" on="1"/>
        <pt x="346" y="827" on="1"/>
        <pt x="272" y="750" on="1"/>
      </contour>
    </TTGlyph>
    <TTGlyph name="Udieresis" xMin="52" yMin="-10" xMax="635" yMax="897">
      <contour>
        <pt x="52" y="218" on="1"/>
        <pt x="52" y="686" on="1"/>
        <pt x="263" y="686" on="1"/>
        <pt x="263" y="221" on="1"/>
        <pt x="263" y="188" on="0"/>
        <pt x="310" y="146" on="0"/>
        <pt x="344" y="146" on="1"/>
        <pt x="378" y="146" on="0"/>
        <pt x="425" y="188" on="0"/>
        <pt x="425" y="221" on="1"/>
        <pt x="425" y="686" on="1"/>
        <pt x="635" y="686" on="1"/>
        <pt x="635" y="218" on="1"/>
        <pt x="635" y="115" on="0"/>
        <pt x="561" y="52" on="1"/>
        <pt x="489" y="-10" on="0"/>
        <pt x="365" y="-10" on="1"/>
        <pt x="322" y="-10" on="1"/>
        <pt x="198" y="-10" on="0"/>
        <pt x="126" y="52" on="1"/>
        <pt x="52" y="115" on="0"/>
      </contour>
      <contour>
        <pt x="159" y="750" on="1"/>
        <pt x="159" y="897" on="1"/>
        <pt x="311" y="897" on="1"/>
        <pt x="311" y="750" on="1"/>
      </contour>
      <contour>
        <pt x="379" y="750" on="1"/>
        <pt x="379" y="897" on="1"/>
        <pt x="531" y="897" on="1"/>
        <pt x="531" y="750" on="1"/>
      </contour>
    </TTGlyph>
    <TTGlyph name="Ugrave" xMin="52" yMin="-10" xMax="635" yMax="895">
      <contour>
        <pt x="52" y="218" on="1"/>
        <pt x="52" y="686" on="1"/>
        <pt x="263" y="686" on="1"/>
        <pt x="263" y="221" on="1"/>
        <pt x="263" y="188" on="0"/>
        <pt x="310" y="146" on="0"/>
        <pt x="344" y="146" on="1"/>
        <pt x="378" y="146" on="0"/>
        <pt x="425" y="188" on="0"/>
        <pt x="425" y="221" on="1"/>
        <pt x="425" y="686" on="1"/>
        <pt x="635" y="686" on="1"/>
        <pt x="635" y="218" on="1"/>
        <pt x="635" y="115" on="0"/>
        <pt x="561" y="52" on="1"/>
        <pt x="489" y="-10" on="0"/>
        <pt x="365" y="-10" on="1"/>
        <pt x="322" y="-10" on="1"/>
        <pt x="198" y="-10" on="0"/>
        <pt x="126" y="52" on="1"/>
        <pt x="52" y="115" on="0"/>
      </contour>
      <contour>
        <pt x="161" y="892" on="1"/>
        <pt x="163" y="895" on="1"/>
        <pt x="314" y="895" on="1"/>
        <pt x="405" y="750" on="1"/>
        <pt x="287" y="750" on="1"/>
      </contour>
    </TTGlyph>
    <TTGlyph name="V" xMin="-3" yMin="0" xMax="660" yMax="686">
      <contour>
        <pt x="-3" y="686" on="1"/>
        <pt x="215" y="686" on="1"/>
        <pt x="335" y="260" on="1"/>
        <pt x="339" y="260" on="1"/>
        <pt x="458" y="686" on="1"/>
        <pt x="660" y="686" on="1"/>
        <pt x="452" y="0" on="1"/>
        <pt x="202" y="0" on="1"/>
      </contour>
    </TTGlyph>
    <TTGlyph name="W" xMin="-2" yMin="0" xMax="1023" yMax="686">
      <contour>
        <pt x="-2" y="686" on="1"/>
        <pt x="215" y="686" on="1"/>
        <pt x="312" y="305" on="1"/>
        <pt x="316" y="305" on="1"/>
        <pt x="414" y="686" on="1"/>
        <pt x="629" y="686" on="1"/>
        <pt x="725" y="305" on="1"/>
        <pt x="729" y="305" on="1"/>
        <pt x="826" y="686" on="1"/>
        <pt x="1023" y="686" on="1"/>
        <pt x="837" y="0" on="1"/>
        <pt x="599" y="0" on="1"/>
        <pt x="516" y="329" on="1"/>
        <pt x="510" y="329" on="1"/>
        <pt x="427" y="0" on="1"/>
        <pt x="185" y="0" on="1"/>
      </contour>
    </TTGlyph>
    <TTGlyph name="X" xMin="-15" yMin="0" xMax="690" yMax="686">
      <contour>
        <pt x="-15" y="0" on="1"/>
        <pt x="200" y="363" on="1"/>
        <pt x="7" y="686" on="1"/>
        <pt x="250" y="686" on="1"/>
        <pt x="345" y="511" on="1"/>
        <pt x="349" y="511" on="1"/>
        <pt x="444" y="686" on="1"/>
        <pt x="669" y="686" on="1"/>
        <pt x="475" y="362" on="1"/>
        <pt x="690" y="0" on="1"/>
        <pt x="446" y="0" on="1"/>
        <pt x="330" y="213" on="1"/>
        <pt x="326" y="213" on="1"/>
        <pt x="211" y="0" on="1"/>
      </contour>
    </TTGlyph>
    <TTGlyph name="Y" xMin="-9" yMin="0" xMax="655" yMax="686">
      <contour>
        <pt x="-9" y="686" on="1"/>
        <pt x="227" y="686" on="1"/>
        <pt x="330" y="461" on="1"/>
        <pt x="335" y="461" on="1"/>
        <pt x="440" y="686" on="1"/>
        <pt x="655" y="686" on="1"/>
        <pt x="428" y="262" on="1"/>
        <pt x="428" y="0" on="1"/>
        <pt x="219" y="0" on="1"/>
        <pt x="219" y="262" on="1"/>
      </contour>
    </TTGlyph>
    <TTGlyph name="Yacute" xMin="-9" yMin="0" xMax="655" yMax="895">
      <contour>
        <pt x="-9" y="686" on="1"/>
        <pt x="227" y="686" on="1"/>
        <pt x="330" y="461" on="1"/>
        <pt x="335" y="461" on="1"/>
        <pt x="440" y="686" on="1"/>
        <pt x="655" y="686" on="1"/>
        <pt x="428" y="262" on="1"/>
        <pt x="428" y="0" on="1"/>
        <pt x="219" y="0" on="1"/>
        <pt x="219" y="262" on="1"/>
      </contour>
      <contour>
        <pt x="270" y="750" on="1"/>
        <pt x="361" y="895" on="1"/>
        <pt x="512" y="895" on="1"/>
        <pt x="514" y="892" on="1"/>
        <pt x="388" y="750" on="1"/>
      </contour>
    </TTGlyph>
    <TTGlyph name="Ydieresis" xMin="-9" yMin="0" xMax="655" yMax="897">
      <contour>
        <pt x="-9" y="686" on="1"/>
        <pt x="227" y="686" on="1"/>
        <pt x="330" y="461" on="1"/>
        <pt x="335" y="461" on="1"/>
        <pt x="440" y="686" on="1"/>
        <pt x="655" y="686" on="1"/>
        <pt x="428" y="262" on="1"/>
        <pt x="428" y="0" on="1"/>
        <pt x="219" y="0" on="1"/>
        <pt x="219" y="262" on="1"/>
      </contour>
      <contour>
        <pt x="149" y="750" on="1"/>
        <pt x="149" y="897" on="1"/>
        <pt x="301" y="897" on="1"/>
        <pt x="301" y="750" on="1"/>
      </contour>
      <contour>
        <pt x="369" y="750" on="1"/>
        <pt x="369" y="897" on="1"/>
        <pt x="521" y="897" on="1"/>
        <pt x="521" y="750" on="1"/>
      </contour>
    </TTGlyph>
    <TTGlyph name="Z" xMin="14" yMin="0" xMax="585" yMax="686">
      <contour>
        <pt x="14" y="0" on="1"/>
        <pt x="14" y="61" on="1"/>
        <pt x="282" y="530" on="1"/>
        <pt x="38" y="526" on="1"/>
        <pt x="38" y="686" on="1"/>
        <pt x="577" y="686" on="1"/>
        <pt x="577" y="625" on="1"/>
        <pt x="314" y="158" on="1"/>
        <pt x="585" y="161" on="1"/>
        <pt x="585" y="0" on="1"/>
      </contour>
    </TTGlyph>
    <TTGlyph name="Zcaron" xMin="14" yMin="0" xMax="585" yMax="895">
      <contour>
        <pt x="14" y="0" on="1"/>
        <pt x="14" y="61" on="1"/>
        <pt x="282" y="530" on="1"/>
        <pt x="38" y="526" on="1"/>
        <pt x="38" y="686" on="1"/>
        <pt x="577" y="686" on="1"/>
        <pt x="577" y="625" on="1"/>
        <pt x="314" y="158" on="1"/>
        <pt x="585" y="161" on="1"/>
        <pt x="585" y="0" on="1"/>
      </contour>
      <contour>
        <pt x="105" y="895" on="1"/>
        <pt x="235" y="895" on="1"/>
        <pt x="309" y="818" on="1"/>
        <pt x="383" y="895" on="1"/>
        <pt x="511" y="895" on="1"/>
        <pt x="372" y="750" on="1"/>
        <pt x="244" y="750" on="1"/>
      </contour>
    </TTGlyph>
    <TTGlyph name="a" xMin="24" yMin="-10" xMax="617" yMax="521">
      <contour>
        <pt x="369" y="71" on="1"/>
        <pt x="299" y="-10" on="0"/>
        <pt x="204" y="-10" on="1"/>
        <pt x="126" y="-10" on="0"/>
        <pt x="83" y="16" on="1"/>
        <pt x="24" y="51" on="0"/>
        <pt x="24" y="143" on="1"/>
        <pt x="24" y="244" on="0"/>
        <pt x="114" y="283" on="1"/>
        <pt x="189" y="316" on="0"/>
        <pt x="359" y="316" on="1"/>
        <pt x="359" y="345" on="1"/>
        <pt x="359" y="374" on="0"/>
        <pt x="321" y="405" on="0"/>
        <pt x="297" y="405" on="1"/>
        <pt x="272" y="405" on="0"/>
        <pt x="230" y="379" on="0"/>
        <pt x="230" y="358" on="1"/>
        <pt x="230" y="354" on="1"/>
        <pt x="40" y="354" on="1"/>
        <pt x="39" y="359" on="0"/>
        <pt x="39" y="368" on="1"/>
        <pt x="39" y="435" on="0"/>
        <pt x="104" y="476" on="1"/>
        <pt x="172" y="521" on="0"/>
        <pt x="279" y="521" on="1"/>
        <pt x="312" y="521" on="1"/>
        <pt x="427" y="521" on="0"/>
        <pt x="492" y="474" on="1"/>
        <pt x="551" y="432" on="0"/>
        <pt x="551" y="359" on="1"/>
        <pt x="551" y="148" on="1"/>
        <pt x="551" y="128" on="0"/>
        <pt x="571" y="111" on="0"/>
        <pt x="585" y="111" on="1"/>
        <pt x="599" y="111" on="0"/>
        <pt x="617" y="120" on="1"/>
        <pt x="617" y="13" on="1"/>
        <pt x="581" y="-10" on="0"/>
        <pt x="515" y="-10" on="1"/>
        <pt x="449" y="-10" on="0"/>
        <pt x="377" y="35" on="0"/>
      </contour>
      <contour>
        <pt x="231" y="159" on="1"/>
        <pt x="231" y="130" on="0"/>
        <pt x="268" y="111" on="0"/>
        <pt x="293" y="111" on="1"/>
        <pt x="318" y="111" on="0"/>
        <pt x="359" y="149" on="0"/>
        <pt x="359" y="181" on="1"/>
        <pt x="359" y="225" on="1"/>
        <pt x="290" y="225" on="0"/>
        <pt x="231" y="188" on="0"/>
      </contour>
    </TTGlyph>
    <TTGlyph name="aacute" xMin="24" yMin="-10" xMax="617" yMax="720">
      <contour>
        <pt x="369" y="71" on="1"/>
        <pt x="299" y="-10" on="0"/>
        <pt x="204" y="-10" on="1"/>
        <pt x="126" y="-10" on="0"/>
        <pt x="83" y="16" on="1"/>
        <pt x="24" y="51" on="0"/>
        <pt x="24" y="143" on="1"/>
        <pt x="24" y="244" on="0"/>
        <pt x="114" y="283" on="1"/>
        <pt x="189" y="316" on="0"/>
        <pt x="359" y="316" on="1"/>
        <pt x="359" y="345" on="1"/>
        <pt x="359" y="374" on="0"/>
        <pt x="321" y="405" on="0"/>
        <pt x="297" y="405" on="1"/>
        <pt x="272" y="405" on="0"/>
        <pt x="230" y="379" on="0"/>
        <pt x="230" y="358" on="1"/>
        <pt x="230" y="354" on="1"/>
        <pt x="40" y="354" on="1"/>
        <pt x="39" y="359" on="0"/>
        <pt x="39" y="368" on="1"/>
        <pt x="39" y="435" on="0"/>
        <pt x="104" y="476" on="1"/>
        <pt x="172" y="521" on="0"/>
        <pt x="279" y="521" on="1"/>
        <pt x="312" y="521" on="1"/>
        <pt x="427" y="521" on="0"/>
        <pt x="492" y="474" on="1"/>
        <pt x="551" y="432" on="0"/>
        <pt x="551" y="359" on="1"/>
        <pt x="551" y="148" on="1"/>
        <pt x="551" y="128" on="0"/>
        <pt x="571" y="111" on="0"/>
        <pt x="585" y="111" on="1"/>
        <pt x="599" y="111" on="0"/>
        <pt x="617" y="120" on="1"/>
        <pt x="617" y="13" on="1"/>
        <pt x="581" y="-10" on="0"/>
        <pt x="515" y="-10" on="1"/>
        <pt x="449" y="-10" on="0"/>
        <pt x="377" y="35" on="0"/>
      </contour>
      <contour>
        <pt x="231" y="159" on="1"/>
        <pt x="231" y="130" on="0"/>
        <pt x="268" y="111" on="0"/>
        <pt x="293" y="111" on="1"/>
        <pt x="318" y="111" on="0"/>
        <pt x="359" y="149" on="0"/>
        <pt x="359" y="181" on="1"/>
        <pt x="359" y="225" on="1"/>
        <pt x="290" y="225" on="0"/>
        <pt x="231" y="188" on="0"/>
      </contour>
      <contour>
        <pt x="245" y="575" on="1"/>
        <pt x="336" y="720" on="1"/>
        <pt x="487" y="720" on="1"/>
        <pt x="489" y="717" on="1"/>
        <pt x="363" y="575" on="1"/>
      </contour>
    </TTGlyph>
    <TTGlyph name="acircumflex" xMin="24" yMin="-10" xMax="617" yMax="720">
      <contour>
        <pt x="369" y="71" on="1"/>
        <pt x="299" y="-10" on="0"/>
        <pt x="204" y="-10" on="1"/>
        <pt x="126" y="-10" on="0"/>
        <pt x="83" y="16" on="1"/>
        <pt x="24" y="51" on="0"/>
        <pt x="24" y="143" on="1"/>
        <pt x="24" y="244" on="0"/>
        <pt x="114" y="283" on="1"/>
        <pt x="189" y="316" on="0"/>
        <pt x="359" y="316" on="1"/>
        <pt x="359" y="345" on="1"/>
        <pt x="359" y="374" on="0"/>
        <pt x="321" y="405" on="0"/>
        <pt x="297" y="405" on="1"/>
        <pt x="272" y="405" on="0"/>
        <pt x="230" y="379" on="0"/>
        <pt x="230" y="358" on="1"/>
        <pt x="230" y="354" on="1"/>
        <pt x="40" y="354" on="1"/>
        <pt x="39" y="359" on="0"/>
        <pt x="39" y="368" on="1"/>
        <pt x="39" y="435" on="0"/>
        <pt x="104" y="476" on="1"/>
        <pt x="172" y="521" on="0"/>
        <pt x="279" y="521" on="1"/>
        <pt x="312" y="521" on="1"/>
        <pt x="427" y="521" on="0"/>
        <pt x="492" y="474" on="1"/>
        <pt x="551" y="432" on="0"/>
        <pt x="551" y="359" on="1"/>
        <pt x="551" y="148" on="1"/>
        <pt x="551" y="128" on="0"/>
        <pt x="571" y="111" on="0"/>
        <pt x="585" y="111" on="1"/>
        <pt x="599" y="111" on="0"/>
        <pt x="617" y="120" on="1"/>
        <pt x="617" y="13" on="1"/>
        <pt x="581" y="-10" on="0"/>
        <pt x="515" y="-10" on="1"/>
        <pt x="449" y="-10" on="0"/>
        <pt x="377" y="35" on="0"/>
      </contour>
      <contour>
        <pt x="98" y="575" on="1"/>
        <pt x="237" y="720" on="1"/>
        <pt x="365" y="720" on="1"/>
        <pt x="504" y="575" on="1"/>
        <pt x="374" y="575" on="1"/>
        <pt x="300" y="652" on="1"/>
        <pt x="226" y="575" on="1"/>
      </contour>
      <contour>
        <pt x="231" y="159" on="1"/>
        <pt x="231" y="130" on="0"/>
        <pt x="268" y="111" on="0"/>
        <pt x="293" y="111" on="1"/>
        <pt x="318" y="111" on="0"/>
        <pt x="359" y="149" on="0"/>
        <pt x="359" y="181" on="1"/>
        <pt x="359" y="225" on="1"/>
        <pt x="290" y="225" on="0"/>
        <pt x="231" y="188" on="0"/>
      </contour>
    </TTGlyph>
    <TTGlyph name="acute" xMin="42" yMin="575" xMax="286" yMax="720">
      <contour>
        <pt x="42" y="575" on="1"/>
        <pt x="133" y="720" on="1"/>
        <pt x="284" y="720" on="1"/>
        <pt x="286" y="717" on="1"/>
        <pt x="160" y="575" on="1"/>
      </contour>
    </TTGlyph>
    <TTGlyph name="adieresis" xMin="24" yMin="-10" xMax="617" yMax="720">
      <contour>
        <pt x="369" y="71" on="1"/>
        <pt x="299" y="-10" on="0"/>
        <pt x="204" y="-10" on="1"/>
        <pt x="126" y="-10" on="0"/>
        <pt x="83" y="16" on="1"/>
        <pt x="24" y="51" on="0"/>
        <pt x="24" y="143" on="1"/>
        <pt x="24" y="244" on="0"/>
        <pt x="114" y="283" on="1"/>
        <pt x="189" y="316" on="0"/>
        <pt x="359" y="316" on="1"/>
        <pt x="359" y="345" on="1"/>
        <pt x="359" y="374" on="0"/>
        <pt x="321" y="405" on="0"/>
        <pt x="297" y="405" on="1"/>
        <pt x="272" y="405" on="0"/>
        <pt x="230" y="379" on="0"/>
        <pt x="230" y="358" on="1"/>
        <pt x="230" y="354" on="1"/>
        <pt x="40" y="354" on="1"/>
        <pt x="39" y="359" on="0"/>
        <pt x="39" y="368" on="1"/>
        <pt x="39" y="435" on="0"/>
        <pt x="104" y="476" on="1"/>
        <pt x="172" y="521" on="0"/>
        <pt x="279" y="521" on="1"/>
        <pt x="312" y="521" on="1"/>
        <pt x="427" y="521" on="0"/>
        <pt x="492" y="474" on="1"/>
        <pt x="551" y="432" on="0"/>
        <pt x="551" y="359" on="1"/>
        <pt x="551" y="148" on="1"/>
        <pt x="551" y="128" on="0"/>
        <pt x="571" y="111" on="0"/>
        <pt x="585" y="111" on="1"/>
        <pt x="599" y="111" on="0"/>
        <pt x="617" y="120" on="1"/>
        <pt x="617" y="13" on="1"/>
        <pt x="581" y="-10" on="0"/>
        <pt x="515" y="-10" on="1"/>
        <pt x="449" y="-10" on="0"/>
        <pt x="377" y="35" on="0"/>
      </contour>
      <contour>
        <pt x="111" y="573" on="1"/>
        <pt x="111" y="720" on="1"/>
        <pt x="263" y="720" on="1"/>
        <pt x="263" y="573" on="1"/>
      </contour>
      <contour>
        <pt x="231" y="159" on="1"/>
        <pt x="231" y="130" on="0"/>
        <pt x="268" y="111" on="0"/>
        <pt x="293" y="111" on="1"/>
        <pt x="318" y="111" on="0"/>
        <pt x="359" y="149" on="0"/>
        <pt x="359" y="181" on="1"/>
        <pt x="359" y="225" on="1"/>
        <pt x="290" y="225" on="0"/>
        <pt x="231" y="188" on="0"/>
      </contour>
      <contour>
        <pt x="331" y="573" on="1"/>
        <pt x="331" y="720" on="1"/>
        <pt x="483" y="720" on="1"/>
        <pt x="483" y="573" on="1"/>
      </contour>
    </TTGlyph>
    <TTGlyph name="ae" xMin="23" yMin="-10" xMax="895" yMax="521">
      <contour>
        <pt x="630" y="-10" on="1"/>
        <pt x="505" y="-10" on="0"/>
        <pt x="427" y="58" on="1"/>
        <pt x="393" y="28" on="0"/>
        <pt x="283" y="-10" on="0"/>
        <pt x="235" y="-10" on="1"/>
        <pt x="186" y="-10" on="0"/>
        <pt x="118" y="0" on="0"/>
        <pt x="90" y="16" on="1"/>
        <pt x="23" y="52" on="0"/>
        <pt x="23" y="143" on="1"/>
        <pt x="23" y="244" on="0"/>
        <pt x="112" y="283" on="1"/>
        <pt x="188" y="316" on="0"/>
        <pt x="358" y="316" on="1"/>
        <pt x="358" y="345" on="1"/>
        <pt x="358" y="374" on="0"/>
        <pt x="320" y="405" on="0"/>
        <pt x="296" y="405" on="1"/>
        <pt x="271" y="405" on="0"/>
        <pt x="229" y="379" on="0"/>
        <pt x="229" y="358" on="1"/>
        <pt x="229" y="354" on="1"/>
        <pt x="39" y="354" on="1"/>
        <pt x="38" y="359" on="0"/>
        <pt x="38" y="368" on="1"/>
        <pt x="38" y="435" on="0"/>
        <pt x="102" y="476" on="1"/>
        <pt x="171" y="521" on="0"/>
        <pt x="278" y="521" on="1"/>
        <pt x="311" y="521" on="1"/>
        <pt x="410" y="521" on="0"/>
        <pt x="472" y="487" on="1"/>
        <pt x="537" y="521" on="0"/>
        <pt x="623" y="521" on="1"/>
        <pt x="648" y="521" on="1"/>
        <pt x="764" y="521" on="0"/>
        <pt x="830" y="456" on="1"/>
        <pt x="895" y="393" on="0"/>
        <pt x="895" y="291" on="1"/>
        <pt x="895" y="229" on="1"/>
        <pt x="562" y="229" on="1"/>
        <pt x="562" y="181" on="1"/>
        <pt x="562" y="146" on="0"/>
        <pt x="607" y="111" on="0"/>
        <pt x="641" y="111" on="1"/>
        <pt x="675" y="111" on="0"/>
        <pt x="711" y="155" on="0"/>
        <pt x="711" y="192" on="1"/>
        <pt x="894" y="192" on="1"/>
        <pt x="894" y="104" on="0"/>
        <pt x="829" y="48" on="1"/>
        <pt x="761" y="-10" on="0"/>
        <pt x="645" y="-10" on="1"/>
      </contour>
      <contour>
        <pt x="230" y="159" on="1"/>
        <pt x="230" y="130" on="0"/>
        <pt x="267" y="111" on="0"/>
        <pt x="292" y="111" on="1"/>
        <pt x="317" y="111" on="0"/>
        <pt x="358" y="149" on="0"/>
        <pt x="358" y="181" on="1"/>
        <pt x="358" y="225" on="1"/>
        <pt x="289" y="225" on="0"/>
        <pt x="230" y="188" on="0"/>
      </contour>
      <contour>
        <pt x="562" y="316" on="1"/>
        <pt x="700" y="316" on="1"/>
        <pt x="700" y="330" on="1"/>
        <pt x="700" y="359" on="0"/>
        <pt x="660" y="400" on="0"/>
        <pt x="631" y="400" on="1"/>
        <pt x="602" y="400" on="0"/>
        <pt x="562" y="359" on="0"/>
        <pt x="562" y="330" on="1"/>
      </contour>
    </TTGlyph>
    <TTGlyph name="agrave" xMin="24" yMin="-10" xMax="617" yMax="720">
      <contour>
        <pt x="369" y="71" on="1"/>
        <pt x="299" y="-10" on="0"/>
        <pt x="204" y="-10" on="1"/>
        <pt x="126" y="-10" on="0"/>
        <pt x="83" y="16" on="1"/>
        <pt x="24" y="51" on="0"/>
        <pt x="24" y="143" on="1"/>
        <pt x="24" y="244" on="0"/>
        <pt x="114" y="283" on="1"/>
        <pt x="189" y="316" on="0"/>
        <pt x="359" y="316" on="1"/>
        <pt x="359" y="345" on="1"/>
        <pt x="359" y="374" on="0"/>
        <pt x="321" y="405" on="0"/>
        <pt x="297" y="405" on="1"/>
        <pt x="272" y="405" on="0"/>
        <pt x="230" y="379" on="0"/>
        <pt x="230" y="358" on="1"/>
        <pt x="230" y="354" on="1"/>
        <pt x="40" y="354" on="1"/>
        <pt x="39" y="359" on="0"/>
        <pt x="39" y="368" on="1"/>
        <pt x="39" y="435" on="0"/>
        <pt x="104" y="476" on="1"/>
        <pt x="172" y="521" on="0"/>
        <pt x="279" y="521" on="1"/>
        <pt x="312" y="521" on="1"/>
        <pt x="427" y="521" on="0"/>
        <pt x="492" y="474" on="1"/>
        <pt x="551" y="432" on="0"/>
        <pt x="551" y="359" on="1"/>
        <pt x="551" y="148" on="1"/>
        <pt x="551" y="128" on="0"/>
        <pt x="571" y="111" on="0"/>
        <pt x="585" y="111" on="1"/>
        <pt x="599" y="111" on="0"/>
        <pt x="617" y="120" on="1"/>
        <pt x="617" y="13" on="1"/>
        <pt x="581" y="-10" on="0"/>
        <pt x="515" y="-10" on="1"/>
        <pt x="449" y="-10" on="0"/>
        <pt x="377" y="35" on="0"/>
      </contour>
      <contour>
        <pt x="114" y="717" on="1"/>
        <pt x="116" y="720" on="1"/>
        <pt x="267" y="720" on="1"/>
        <pt x="358" y="575" on="1"/>
        <pt x="240" y="575" on="1"/>
      </contour>
      <contour>
        <pt x="231" y="159" on="1"/>
        <pt x="231" y="130" on="0"/>
        <pt x="268" y="111" on="0"/>
        <pt x="293" y="111" on="1"/>
        <pt x="318" y="111" on="0"/>
        <pt x="359" y="149" on="0"/>
        <pt x="359" y="181" on="1"/>
        <pt x="359" y="225" on="1"/>
        <pt x="290" y="225" on="0"/>
        <pt x="231" y="188" on="0"/>
      </contour>
    </TTGlyph>
    <TTGlyph name="ampersand" xMin="28" yMin="0" xMax="699" yMax="696">
      <contour>
        <pt x="28" y="197" on="1"/>
        <pt x="28" y="321" on="0"/>
        <pt x="151" y="358" on="1"/>
        <pt x="101" y="374" on="0"/>
        <pt x="49" y="455" on="0"/>
        <pt x="49" y="504" on="1"/>
        <pt x="49" y="553" on="0"/>
        <pt x="97" y="634" on="0"/>
        <pt x="134" y="656" on="1"/>
        <pt x="202" y="696" on="0"/>
        <pt x="295" y="696" on="1"/>
        <pt x="321" y="696" on="0"/>
        <pt x="345" y="693" on="1"/>
        <pt x="345" y="543" on="1"/>
        <pt x="330" y="548" on="0"/>
        <pt x="309" y="548" on="1"/>
        <pt x="287" y="548" on="0"/>
        <pt x="243" y="515" on="0"/>
        <pt x="243" y="484" on="1"/>
        <pt x="243" y="463" on="0"/>
        <pt x="254" y="449" on="1"/>
        <pt x="275" y="421" on="0"/>
        <pt x="307" y="421" on="1"/>
        <pt x="428" y="421" on="1"/>
        <pt x="482" y="540" on="1"/>
        <pt x="619" y="540" on="1"/>
        <pt x="619" y="421" on="1"/>
        <pt x="699" y="421" on="1"/>
        <pt x="699" y="279" on="1"/>
        <pt x="619" y="279" on="1"/>
        <pt x="619" y="0" on="1"/>
        <pt x="300" y="0" on="1"/>
        <pt x="112" y="0" on="0"/>
        <pt x="51" y="101" on="1"/>
        <pt x="28" y="139" on="0"/>
      </contour>
      <contour>
        <pt x="227" y="203" on="1"/>
        <pt x="227" y="173" on="0"/>
        <pt x="279" y="138" on="0"/>
        <pt x="312" y="138" on="1"/>
        <pt x="421" y="138" on="1"/>
        <pt x="421" y="279" on="1"/>
        <pt x="307" y="279" on="1"/>
        <pt x="264" y="279" on="0"/>
        <pt x="243" y="253" on="1"/>
        <pt x="227" y="233" on="0"/>
      </contour>
    </TTGlyph>
    <TTGlyph name="approxequal" xMin="26" yMin="45" xMax="590" yMax="482">
      <contour>
        <pt x="26" y="45" on="1"/>
        <pt x="26" y="171" on="1"/>
        <pt x="46" y="192" on="0"/>
        <pt x="70" y="208" on="1"/>
        <pt x="132" y="249" on="0"/>
        <pt x="189" y="249" on="1"/>
        <pt x="221" y="249" on="0"/>
        <pt x="278" y="228" on="0"/>
        <pt x="335" y="204" on="0"/>
        <pt x="394" y="183" on="0"/>
        <pt x="428" y="183" on="1"/>
        <pt x="487" y="183" on="0"/>
        <pt x="544" y="222" on="1"/>
        <pt x="570" y="239" on="0"/>
        <pt x="590" y="261" on="1"/>
        <pt x="590" y="135" on="1"/>
        <pt x="552" y="93" on="0"/>
        <pt x="492" y="69" on="1"/>
        <pt x="462" y="57" on="0"/>
        <pt x="429" y="57" on="1"/>
        <pt x="395" y="57" on="0"/>
        <pt x="338" y="78" on="0"/>
        <pt x="281" y="102" on="0"/>
        <pt x="222" y="123" on="0"/>
        <pt x="188" y="123" on="1"/>
        <pt x="133" y="123" on="0"/>
        <pt x="72" y="84" on="1"/>
        <pt x="46" y="66" on="0"/>
      </contour>
      <contour>
        <pt x="26" y="266" on="1"/>
        <pt x="26" y="392" on="1"/>
        <pt x="46" y="413" on="0"/>
        <pt x="70" y="429" on="1"/>
        <pt x="132" y="470" on="0"/>
        <pt x="189" y="470" on="1"/>
        <pt x="221" y="470" on="0"/>
        <pt x="278" y="449" on="0"/>
        <pt x="335" y="425" on="0"/>
        <pt x="394" y="404" on="0"/>
        <pt x="428" y="404" on="1"/>
        <pt x="487" y="404" on="0"/>
        <pt x="544" y="443" on="1"/>
        <pt x="570" y="460" on="0"/>
        <pt x="590" y="482" on="1"/>
        <pt x="590" y="356" on="1"/>
        <pt x="552" y="314" on="0"/>
        <pt x="492" y="290" on="1"/>
        <pt x="462" y="278" on="0"/>
        <pt x="429" y="278" on="1"/>
        <pt x="395" y="278" on="0"/>
        <pt x="338" y="299" on="0"/>
        <pt x="281" y="323" on="0"/>
        <pt x="222" y="344" on="0"/>
        <pt x="188" y="344" on="1"/>
        <pt x="133" y="344" on="0"/>
        <pt x="72" y="305" on="1"/>
        <pt x="46" y="287" on="0"/>
      </contour>
    </TTGlyph>
    <TTGlyph name="aring" xMin="24" yMin="-10" xMax="617" yMax="760">
      <contour>
        <pt x="369" y="71" on="1"/>
        <pt x="299" y="-10" on="0"/>
        <pt x="204" y="-10" on="1"/>
        <pt x="126" y="-10" on="0"/>
        <pt x="83" y="16" on="1"/>
        <pt x="24" y="51" on="0"/>
        <pt x="24" y="143" on="1"/>
        <pt x="24" y="244" on="0"/>
        <pt x="114" y="283" on="1"/>
        <pt x="189" y="316" on="0"/>
        <pt x="359" y="316" on="1"/>
        <pt x="359" y="345" on="1"/>
        <pt x="359" y="374" on="0"/>
        <pt x="321" y="405" on="0"/>
        <pt x="297" y="405" on="1"/>
        <pt x="272" y="405" on="0"/>
        <pt x="230" y="379" on="0"/>
        <pt x="230" y="358" on="1"/>
        <pt x="230" y="354" on="1"/>
        <pt x="40" y="354" on="1"/>
        <pt x="39" y="359" on="0"/>
        <pt x="39" y="368" on="1"/>
        <pt x="39" y="435" on="0"/>
        <pt x="104" y="476" on="1"/>
        <pt x="172" y="521" on="0"/>
        <pt x="279" y="521" on="1"/>
        <pt x="312" y="521" on="1"/>
        <pt x="427" y="521" on="0"/>
        <pt x="492" y="474" on="1"/>
        <pt x="551" y="432" on="0"/>
        <pt x="551" y="359" on="1"/>
        <pt x="551" y="148" on="1"/>
        <pt x="551" y="128" on="0"/>
        <pt x="571" y="111" on="0"/>
        <pt x="585" y="111" on="1"/>
        <pt x="599" y="111" on="0"/>
        <pt x="617" y="120" on="1"/>
        <pt x="617" y="13" on="1"/>
        <pt x="581" y="-10" on="0"/>
        <pt x="515" y="-10" on="1"/>
        <pt x="449" y="-10" on="0"/>
        <pt x="377" y="35" on="0"/>
      </contour>
      <contour>
        <pt x="195" y="659" on="1"/>
        <pt x="195" y="701" on="0"/>
        <pt x="254" y="760" on="0"/>
        <pt x="296" y="760" on="1"/>
        <pt x="336" y="760" on="0"/>
        <pt x="367" y="730" on="1"/>
        <pt x="397" y="702" on="0"/>
        <pt x="397" y="659" on="1"/>
        <pt x="397" y="618" on="0"/>
        <pt x="338" y="559" on="0"/>
        <pt x="296" y="559" on="1"/>
        <pt x="255" y="559" on="0"/>
        <pt x="225" y="588" on="1"/>
        <pt x="195" y="616" on="0"/>
      </contour>
      <contour>
        <pt x="231" y="159" on="1"/>
        <pt x="231" y="130" on="0"/>
        <pt x="268" y="111" on="0"/>
        <pt x="293" y="111" on="1"/>
        <pt x="318" y="111" on="0"/>
        <pt x="359" y="149" on="0"/>
        <pt x="359" y="181" on="1"/>
        <pt x="359" y="225" on="1"/>
        <pt x="290" y="225" on="0"/>
        <pt x="231" y="188" on="0"/>
      </contour>
      <contour>
        <pt x="296" y="694" on="1"/>
        <pt x="281" y="694" on="0"/>
        <pt x="261" y="673" on="0"/>
        <pt x="261" y="659" on="1"/>
        <pt x="261" y="644" on="0"/>
        <pt x="282" y="624" on="0"/>
        <pt x="297" y="624" on="1"/>
        <pt x="311" y="624" on="0"/>
        <pt x="331" y="645" on="0"/>
        <pt x="331" y="660" on="1"/>
        <pt x="331" y="674" on="0"/>
        <pt x="310" y="694" on="0"/>
      </contour>
    </TTGlyph>
    <TTGlyph name="asciicircum" xMin="33" yMin="0" xMax="566" yMax="511">
      <contour>
        <pt x="33" y="0" on="1"/>
        <pt x="230" y="511" on="1"/>
        <pt x="369" y="511" on="1"/>
        <pt x="566" y="0" on="1"/>
        <pt x="428" y="0" on="1"/>
        <pt x="301" y="350" on="1"/>
        <pt x="173" y="0" on="1"/>
      </contour>
    </TTGlyph>
    <TTGlyph name="asciitilde" xMin="43" yMin="190" xMax="607" yMax="406">
      <contour>
        <pt x="43" y="190" on="1"/>
        <pt x="43" y="316" on="1"/>
        <pt x="63" y="337" on="0"/>
        <pt x="87" y="353" on="1"/>
        <pt x="148" y="394" on="0"/>
        <pt x="206" y="394" on="1"/>
        <pt x="238" y="394" on="0"/>
        <pt x="295" y="373" on="0"/>
        <pt x="352" y="349" on="0"/>
        <pt x="411" y="328" on="0"/>
        <pt x="445" y="328" on="1"/>
        <pt x="504" y="328" on="0"/>
        <pt x="561" y="367" on="1"/>
        <pt x="587" y="384" on="0"/>
        <pt x="607" y="406" on="1"/>
        <pt x="607" y="280" on="1"/>
        <pt x="569" y="238" on="0"/>
        <pt x="509" y="214" on="1"/>
        <pt x="479" y="202" on="0"/>
        <pt x="446" y="202" on="1"/>
        <pt x="412" y="202" on="0"/>
        <pt x="355" y="223" on="0"/>
        <pt x="298" y="247" on="0"/>
        <pt x="239" y="268" on="0"/>
        <pt x="204" y="268" on="1"/>
        <pt x="150" y="268" on="0"/>
        <pt x="89" y="229" on="1"/>
        <pt x="63" y="211" on="0"/>
      </contour>
    </TTGlyph>
    <TTGlyph name="asterisk" xMin="26" yMin="265" xMax="480" yMax="686">
      <contour>
        <pt x="26" y="483" on="1"/>
        <pt x="65" y="593" on="1"/>
        <pt x="205" y="533" on="1"/>
        <pt x="192" y="686" on="1"/>
        <pt x="312" y="686" on="1"/>
        <pt x="297" y="533" on="1"/>
        <pt x="445" y="593" on="1"/>
        <pt x="480" y="483" on="1"/>
        <pt x="330" y="448" on="1"/>
        <pt x="430" y="335" on="1"/>
        <pt x="330" y="265" on="1"/>
        <pt x="251" y="396" on="1"/>
        <pt x="173" y="265" on="1"/>
        <pt x="73" y="335" on="1"/>
        <pt x="173" y="448" on="1"/>
      </contour>
    </TTGlyph>
    <TTGlyph name="at" xMin="34" yMin="-153" xMax="879" yMax="697">
      <contour>
        <pt x="62" y="76" on="1"/>
        <pt x="34" y="154" on="0"/>
        <pt x="34" y="268" on="1"/>
        <pt x="34" y="381" on="0"/>
        <pt x="104" y="547" on="0"/>
        <pt x="164" y="598" on="1"/>
        <pt x="277" y="697" on="0"/>
        <pt x="469" y="697" on="1"/>
        <pt x="759" y="697" on="0"/>
        <pt x="848" y="492" on="1"/>
        <pt x="879" y="420" on="0"/>
        <pt x="879" y="327" on="1"/>
        <pt x="879" y="233" on="0"/>
        <pt x="839" y="119" on="0"/>
        <pt x="808" y="84" on="1"/>
        <pt x="750" y="22" on="0"/>
        <pt x="660" y="22" on="1"/>
        <pt x="582" y="22" on="0"/>
        <pt x="548" y="70" on="1"/>
        <pt x="538" y="84" on="0"/>
        <pt x="531" y="99" on="1"/>
        <pt x="500" y="63" on="0"/>
        <pt x="476" y="50" on="1"/>
        <pt x="427" y="23" on="0"/>
        <pt x="376" y="23" on="1"/>
        <pt x="302" y="23" on="0"/>
        <pt x="262" y="47" on="1"/>
        <pt x="207" y="81" on="0"/>
        <pt x="207" y="166" on="1"/>
        <pt x="207" y="260" on="0"/>
        <pt x="292" y="298" on="1"/>
        <pt x="361" y="329" on="0"/>
        <pt x="521" y="329" on="1"/>
        <pt x="521" y="356" on="1"/>
        <pt x="521" y="384" on="0"/>
        <pt x="486" y="412" on="0"/>
        <pt x="468" y="412" on="1"/>
        <pt x="450" y="412" on="0"/>
        <pt x="429" y="406" on="0"/>
        <pt x="420" y="400" on="1"/>
        <pt x="400" y="387" on="0"/>
        <pt x="400" y="368" on="1"/>
        <pt x="400" y="364" on="1"/>
        <pt x="222" y="364" on="1"/>
        <pt x="221" y="369" on="0"/>
        <pt x="221" y="389" on="1"/>
        <pt x="221" y="408" on="0"/>
        <pt x="252" y="460" on="0"/>
        <pt x="282" y="480" on="1"/>
        <pt x="344" y="521" on="0"/>
        <pt x="446" y="521" on="1"/>
        <pt x="477" y="521" on="1"/>
        <pt x="641" y="521" on="0"/>
        <pt x="687" y="429" on="1"/>
        <pt x="701" y="401" on="0"/>
        <pt x="701" y="369" on="1"/>
        <pt x="701" y="171" on="1"/>
        <pt x="701" y="153" on="0"/>
        <pt x="724" y="136" on="0"/>
        <pt x="733" y="136" on="1"/>
        <pt x="741" y="136" on="0"/>
        <pt x="766" y="146" on="0"/>
        <pt x="778" y="165" on="1"/>
        <pt x="806" y="212" on="0"/>
        <pt x="806" y="309" on="1"/>
        <pt x="806" y="405" on="0"/>
        <pt x="756" y="524" on="0"/>
        <pt x="712" y="562" on="1"/>
        <pt x="625" y="636" on="0"/>
        <pt x="468" y="636" on="1"/>
        <pt x="297" y="636" on="0"/>
        <pt x="204" y="544" on="1"/>
        <pt x="107" y="448" on="0"/>
        <pt x="107" y="266" on="1"/>
        <pt x="107" y="84" on="0"/>
        <pt x="266" y="-92" on="0"/>
        <pt x="434" y="-92" on="1"/>
        <pt x="490" y="-92" on="0"/>
        <pt x="585" y="-67" on="0"/>
        <pt x="599" y="-60" on="1"/>
        <pt x="599" y="-126" on="1"/>
        <pt x="552" y="-144" on="0"/>
        <pt x="450" y="-153" on="0"/>
        <pt x="434" y="-153" on="1"/>
        <pt x="144" y="-153" on="0"/>
      </contour>
      <contour>
        <pt x="401" y="181" on="1"/>
        <pt x="401" y="136" on="0"/>
        <pt x="457" y="136" on="1"/>
        <pt x="483" y="136" on="0"/>
        <pt x="521" y="173" on="0"/>
        <pt x="521" y="202" on="1"/>
        <pt x="521" y="243" on="1"/>
        <pt x="457" y="243" on="0"/>
        <pt x="401" y="208" on="0"/>
      </contour>
    </TTGlyph>
    <TTGlyph name="atilde" xMin="24" yMin="-10" xMax="617" yMax="720">
      <contour>
        <pt x="369" y="71" on="1"/>
        <pt x="299" y="-10" on="0"/>
        <pt x="204" y="-10" on="1"/>
        <pt x="126" y="-10" on="0"/>
        <pt x="83" y="16" on="1"/>
        <pt x="24" y="51" on="0"/>
        <pt x="24" y="143" on="1"/>
        <pt x="24" y="244" on="0"/>
        <pt x="114" y="283" on="1"/>
        <pt x="189" y="316" on="0"/>
        <pt x="359" y="316" on="1"/>
        <pt x="359" y="345" on="1"/>
        <pt x="359" y="374" on="0"/>
        <pt x="321" y="405" on="0"/>
        <pt x="297" y="405" on="1"/>
        <pt x="272" y="405" on="0"/>
        <pt x="230" y="379" on="0"/>
        <pt x="230" y="358" on="1"/>
        <pt x="230" y="354" on="1"/>
        <pt x="40" y="354" on="1"/>
        <pt x="39" y="359" on="0"/>
        <pt x="39" y="368" on="1"/>
        <pt x="39" y="435" on="0"/>
        <pt x="104" y="476" on="1"/>
        <pt x="172" y="521" on="0"/>
        <pt x="279" y="521" on="1"/>
        <pt x="312" y="521" on="1"/>
        <pt x="427" y="521" on="0"/>
        <pt x="492" y="474" on="1"/>
        <pt x="551" y="432" on="0"/>
        <pt x="551" y="359" on="1"/>
        <pt x="551" y="148" on="1"/>
        <pt x="551" y="128" on="0"/>
        <pt x="571" y="111" on="0"/>
        <pt x="585" y="111" on="1"/>
        <pt x="599" y="111" on="0"/>
        <pt x="617" y="120" on="1"/>
        <pt x="617" y="13" on="1"/>
        <pt x="581" y="-10" on="0"/>
        <pt x="515" y="-10" on="1"/>
        <pt x="449" y="-10" on="0"/>
        <pt x="377" y="35" on="0"/>
      </contour>
      <contour>
        <pt x="79" y="577" on="1"/>
        <pt x="79" y="631" on="0"/>
        <pt x="120" y="676" on="1"/>
        <pt x="161" y="720" on="0"/>
        <pt x="219" y="720" on="1"/>
        <pt x="251" y="720" on="0"/>
        <pt x="331" y="692" on="0"/>
        <pt x="372" y="680" on="0"/>
        <pt x="392" y="680" on="1"/>
        <pt x="411" y="680" on="0"/>
        <pt x="437" y="703" on="0"/>
        <pt x="442" y="720" on="1"/>
        <pt x="523" y="720" on="1"/>
        <pt x="523" y="666" on="0"/>
        <pt x="482" y="622" on="1"/>
        <pt x="441" y="577" on="0"/>
        <pt x="383" y="577" on="1"/>
        <pt x="352" y="577" on="0"/>
        <pt x="292" y="596" on="1"/>
        <pt x="250" y="610" on="1"/>
        <pt x="230" y="617" on="0"/>
        <pt x="211" y="617" on="1"/>
        <pt x="191" y="617" on="0"/>
        <pt x="165" y="594" on="0"/>
        <pt x="160" y="577" on="1"/>
      </contour>
      <contour>
        <pt x="231" y="159" on="1"/>
        <pt x="231" y="130" on="0"/>
        <pt x="268" y="111" on="0"/>
        <pt x="293" y="111" on="1"/>
        <pt x="318" y="111" on="0"/>
        <pt x="359" y="149" on="0"/>
        <pt x="359" y="181" on="1"/>
        <pt x="359" y="225" on="1"/>
        <pt x="290" y="225" on="0"/>
        <pt x="231" y="188" on="0"/>
      </contour>
    </TTGlyph>
    <TTGlyph name="b" xMin="50" yMin="-10" xMax="573" yMax="720">
      <contour>
        <pt x="188" y="75" on="1"/>
        <pt x="120" y="0" on="1"/>
        <pt x="50" y="0" on="1"/>
        <pt x="50" y="720" on="1"/>
        <pt x="248" y="720" on="1"/>
        <pt x="248" y="458" on="1"/>
        <pt x="279" y="498" on="0"/>
        <pt x="333" y="514" on="1"/>
        <pt x="354" y="521" on="0"/>
        <pt x="387" y="521" on="1"/>
        <pt x="420" y="521" on="0"/>
        <pt x="490" y="489" on="0"/>
        <pt x="516" y="456" on="1"/>
        <pt x="573" y="387" on="0"/>
        <pt x="573" y="261" on="1"/>
        <pt x="573" y="250" on="1"/>
        <pt x="573" y="124" on="0"/>
        <pt x="510" y="54" on="1"/>
        <pt x="451" y="-10" on="0"/>
        <pt x="350" y="-10" on="1"/>
        <pt x="248" y="-10" on="0"/>
      </contour>
      <contour>
        <pt x="248" y="181" on="1"/>
        <pt x="248" y="152" on="0"/>
        <pt x="284" y="111" on="0"/>
        <pt x="310" y="111" on="1"/>
        <pt x="336" y="111" on="0"/>
        <pt x="372" y="152" on="0"/>
        <pt x="372" y="181" on="1"/>
        <pt x="372" y="326" on="1"/>
        <pt x="372" y="355" on="0"/>
        <pt x="336" y="396" on="0"/>
        <pt x="310" y="396" on="1"/>
        <pt x="284" y="396" on="0"/>
        <pt x="248" y="355" on="0"/>
        <pt x="248" y="326" on="1"/>
      </contour>
    </TTGlyph>
    <TTGlyph name="backslash" xMin="15" yMin="-171" xMax="636" yMax="686">
      <contour>
        <pt x="15" y="686" on="1"/>
        <pt x="146" y="686" on="1"/>
        <pt x="636" y="-171" on="1"/>
        <pt x="504" y="-171" on="1"/>
      </contour>
    </TTGlyph>
    <TTGlyph name="bar" xMin="56" yMin="-199" xMax="176" yMax="720">
      <contour>
        <pt x="56" y="-199" on="1"/>
        <pt x="56" y="720" on="1"/>
        <pt x="176" y="720" on="1"/>
        <pt x="176" y="-199" on="1"/>
      </contour>
    </TTGlyph>
    <TTGlyph name="braceleft" xMin="21" yMin="-159" xMax="320" yMax="686">
      <contour>
        <pt x="21" y="224" on="1"/>
        <pt x="21" y="303" on="1"/>
        <pt x="49" y="303" on="0"/>
        <pt x="66" y="313" on="1"/>
        <pt x="98" y="331" on="0"/>
        <pt x="98" y="360" on="1"/>
        <pt x="98" y="574" on="1"/>
        <pt x="98" y="628" on="0"/>
        <pt x="143" y="659" on="1"/>
        <pt x="182" y="686" on="0"/>
        <pt x="239" y="686" on="1"/>
        <pt x="320" y="686" on="1"/>
        <pt x="320" y="618" on="1"/>
        <pt x="247" y="618" on="0"/>
        <pt x="244" y="577" on="1"/>
        <pt x="234" y="371" on="1"/>
        <pt x="230" y="268" on="0"/>
        <pt x="133" y="268" on="1"/>
        <pt x="133" y="259" on="1"/>
        <pt x="230" y="259" on="0"/>
        <pt x="234" y="156" on="1"/>
        <pt x="244" y="-49" on="1"/>
        <pt x="246" y="-74" on="0"/>
        <pt x="272" y="-84" on="1"/>
        <pt x="288" y="-91" on="0"/>
        <pt x="320" y="-91" on="1"/>
        <pt x="320" y="-159" on="1"/>
        <pt x="239" y="-159" on="1"/>
        <pt x="147" y="-159" on="0"/>
        <pt x="110" y="-97" on="1"/>
        <pt x="98" y="-76" on="0"/>
        <pt x="98" y="-47" on="1"/>
        <pt x="98" y="169" on="1"/>
        <pt x="98" y="199" on="0"/>
        <pt x="51" y="224" on="0"/>
      </contour>
    </TTGlyph>
    <TTGlyph name="braceright" xMin="23" yMin="-159" xMax="321" yMax="686">
      <contour>
        <pt x="23" y="-91" on="1"/>
        <pt x="96" y="-91" on="0"/>
        <pt x="99" y="-49" on="1"/>
        <pt x="109" y="156" on="1"/>
        <pt x="113" y="259" on="0"/>
        <pt x="210" y="259" on="1"/>
        <pt x="210" y="268" on="1"/>
        <pt x="113" y="268" on="0"/>
        <pt x="109" y="371" on="1"/>
        <pt x="99" y="577" on="1"/>
        <pt x="97" y="601" on="0"/>
        <pt x="70" y="612" on="1"/>
        <pt x="54" y="618" on="0"/>
        <pt x="23" y="618" on="1"/>
        <pt x="23" y="686" on="1"/>
        <pt x="104" y="686" on="1"/>
        <pt x="196" y="686" on="0"/>
        <pt x="232" y="624" on="1"/>
        <pt x="245" y="603" on="0"/>
        <pt x="245" y="574" on="1"/>
        <pt x="245" y="360" on="1"/>
        <pt x="245" y="330" on="0"/>
        <pt x="293" y="303" on="0"/>
        <pt x="321" y="303" on="1"/>
        <pt x="321" y="224" on="1"/>
        <pt x="272" y="224" on="0"/>
        <pt x="252" y="194" on="1"/>
        <pt x="245" y="184" on="0"/>
        <pt x="245" y="169" on="1"/>
        <pt x="245" y="-47" on="1"/>
        <pt x="245" y="-100" on="0"/>
        <pt x="200" y="-132" on="1"/>
        <pt x="161" y="-159" on="0"/>
        <pt x="104" y="-159" on="1"/>
        <pt x="23" y="-159" on="1"/>
      </contour>
    </TTGlyph>
    <TTGlyph name="bracketleft" xMin="57" yMin="-161" xMax="294" yMax="686">
      <contour>
        <pt x="57" y="-161" on="1"/>
        <pt x="57" y="686" on="1"/>
        <pt x="294" y="686" on="1"/>
        <pt x="294" y="603" on="1"/>
        <pt x="206" y="603" on="1"/>
        <pt x="206" y="-78" on="1"/>
        <pt x="294" y="-78" on="1"/>
        <pt x="294" y="-161" on="1"/>
      </contour>
    </TTGlyph>
    <TTGlyph name="bracketright" xMin="24" yMin="-161" xMax="261" yMax="686">
      <contour>
        <pt x="24" y="-78" on="1"/>
        <pt x="112" y="-78" on="1"/>
        <pt x="112" y="603" on="1"/>
        <pt x="24" y="603" on="1"/>
        <pt x="24" y="686" on="1"/>
        <pt x="261" y="686" on="1"/>
        <pt x="261" y="-161" on="1"/>
        <pt x="24" y="-161" on="1"/>
      </contour>
    </TTGlyph>
    <TTGlyph name="breve" xMin="68" yMin="613" xMax="453" yMax="737">
      <contour>
        <pt x="68" y="737" on="1"/>
        <pt x="164" y="737" on="1"/>
        <pt x="164" y="727" on="0"/>
        <pt x="184" y="717" on="1"/>
        <pt x="224" y="699" on="0"/>
        <pt x="260" y="699" on="1"/>
        <pt x="296" y="699" on="0"/>
        <pt x="319" y="710" on="1"/>
        <pt x="358" y="727" on="0"/>
        <pt x="358" y="737" on="1"/>
        <pt x="453" y="737" on="1"/>
        <pt x="453" y="692" on="0"/>
        <pt x="396" y="654" on="1"/>
        <pt x="336" y="613" on="0"/>
        <pt x="260" y="613" on="1"/>
        <pt x="183" y="613" on="0"/>
        <pt x="124" y="654" on="1"/>
        <pt x="68" y="693" on="0"/>
      </contour>
    </TTGlyph>
    <TTGlyph name="brokenbar" xMin="61" yMin="0" xMax="211" yMax="686">
      <contour>
        <pt x="61" y="0" on="1"/>
        <pt x="61" y="274" on="1"/>
        <pt x="211" y="274" on="1"/>
        <pt x="211" y="0" on="1"/>
      </contour>
      <contour>
        <pt x="61" y="412" on="1"/>
        <pt x="61" y="686" on="1"/>
        <pt x="211" y="686" on="1"/>
        <pt x="211" y="412" on="1"/>
      </contour>
    </TTGlyph>
    <TTGlyph name="bullet" xMin="128" yMin="171" xMax="471" yMax="514">
      <contour>
        <pt x="128" y="343" on="1"/>
        <pt x="128" y="414" on="0"/>
        <pt x="228" y="514" on="0"/>
        <pt x="299" y="514" on="1"/>
        <pt x="369" y="514" on="0"/>
        <pt x="420" y="464" on="1"/>
        <pt x="471" y="415" on="0"/>
        <pt x="471" y="343" on="1"/>
        <pt x="471" y="272" on="0"/>
        <pt x="370" y="171" on="0"/>
        <pt x="299" y="171" on="1"/>
        <pt x="227" y="171" on="0"/>
        <pt x="178" y="222" on="1"/>
        <pt x="128" y="273" on="0"/>
      </contour>
    </TTGlyph>
    <TTGlyph name="c" xMin="26" yMin="-10" xMax="545" yMax="521">
      <contour>
        <pt x="26" y="235" on="1"/>
        <pt x="26" y="276" on="1"/>
        <pt x="26" y="378" on="0"/>
        <pt x="100" y="449" on="1"/>
        <pt x="176" y="521" on="0"/>
        <pt x="276" y="521" on="1"/>
        <pt x="306" y="521" on="1"/>
        <pt x="417" y="521" on="0"/>
        <pt x="482" y="459" on="1"/>
        <pt x="545" y="400" on="0"/>
        <pt x="545" y="304" on="1"/>
        <pt x="376" y="304" on="1"/>
        <pt x="376" y="330" on="1"/>
        <pt x="376" y="359" on="0"/>
        <pt x="336" y="400" on="0"/>
        <pt x="307" y="400" on="1"/>
        <pt x="278" y="400" on="0"/>
        <pt x="238" y="359" on="0"/>
        <pt x="238" y="330" on="1"/>
        <pt x="238" y="181" on="1"/>
        <pt x="238" y="152" on="0"/>
        <pt x="279" y="111" on="0"/>
        <pt x="308" y="111" on="1"/>
        <pt x="320" y="111" on="1"/>
        <pt x="349" y="111" on="0"/>
        <pt x="387" y="152" on="0"/>
        <pt x="387" y="181" on="1"/>
        <pt x="387" y="207" on="1"/>
        <pt x="545" y="207" on="1"/>
        <pt x="545" y="104" on="0"/>
        <pt x="480" y="46" on="1"/>
        <pt x="416" y="-10" on="0"/>
        <pt x="307" y="-10" on="1"/>
        <pt x="278" y="-10" on="1"/>
        <pt x="177" y="-10" on="0"/>
        <pt x="102" y="62" on="1"/>
        <pt x="26" y="134" on="0"/>
      </contour>
    </TTGlyph>
    <TTGlyph name="caron" xMin="65" yMin="575" xMax="471" yMax="720">
      <contour>
        <pt x="65" y="720" on="1"/>
        <pt x="195" y="720" on="1"/>
        <pt x="269" y="643" on="1"/>
        <pt x="343" y="720" on="1"/>
        <pt x="471" y="720" on="1"/>
        <pt x="332" y="575" on="1"/>
        <pt x="204" y="575" on="1"/>
      </contour>
    </TTGlyph>
    <TTGlyph name="ccedilla" xMin="26" yMin="-197" xMax="545" yMax="521">
      <contour>
        <pt x="26" y="235" on="1"/>
        <pt x="26" y="276" on="1"/>
        <pt x="26" y="378" on="0"/>
        <pt x="100" y="449" on="1"/>
        <pt x="176" y="521" on="0"/>
        <pt x="276" y="521" on="1"/>
        <pt x="306" y="521" on="1"/>
        <pt x="417" y="521" on="0"/>
        <pt x="482" y="459" on="1"/>
        <pt x="545" y="400" on="0"/>
        <pt x="545" y="304" on="1"/>
        <pt x="376" y="304" on="1"/>
        <pt x="376" y="330" on="1"/>
        <pt x="376" y="359" on="0"/>
        <pt x="336" y="400" on="0"/>
        <pt x="307" y="400" on="1"/>
        <pt x="278" y="400" on="0"/>
        <pt x="238" y="359" on="0"/>
        <pt x="238" y="330" on="1"/>
        <pt x="238" y="181" on="1"/>
        <pt x="238" y="152" on="0"/>
        <pt x="279" y="111" on="0"/>
        <pt x="308" y="111" on="1"/>
        <pt x="320" y="111" on="1"/>
        <pt x="349" y="111" on="0"/>
        <pt x="387" y="152" on="0"/>
        <pt x="387" y="181" on="1"/>
        <pt x="387" y="207" on="1"/>
        <pt x="545" y="207" on="1"/>
        <pt x="545" y="104" on="0"/>
        <pt x="480" y="46" on="1"/>
        <pt x="416" y="-10" on="0"/>
        <pt x="307" y="-10" on="1"/>
        <pt x="278" y="-10" on="1"/>
        <pt x="177" y="-10" on="0"/>
        <pt x="102" y="62" on="1"/>
        <pt x="26" y="134" on="0"/>
      </contour>
      <contour>
        <pt x="209" y="-107" on="1"/>
        <pt x="245" y="-139" on="0"/>
        <pt x="290" y="-139" on="1"/>
        <pt x="334" y="-139" on="0"/>
        <pt x="334" y="-107" on="1"/>
        <pt x="334" y="-76" on="0"/>
        <pt x="296" y="-76" on="1"/>
        <pt x="278" y="-76" on="1"/>
        <pt x="278" y="-17" on="1"/>
        <pt x="299" y="-17" on="1"/>
        <pt x="351" y="-17" on="0"/>
        <pt x="399" y="-45" on="0"/>
        <pt x="421" y="-80" on="0"/>
        <pt x="421" y="-107" on="1"/>
        <pt x="421" y="-135" on="0"/>
        <pt x="397" y="-170" on="0"/>
        <pt x="379" y="-180" on="1"/>
        <pt x="348" y="-197" on="0"/>
        <pt x="308" y="-197" on="1"/>
        <pt x="221" y="-197" on="0"/>
        <pt x="177" y="-161" on="1"/>
      </contour>
    </TTGlyph>
    <TTGlyph name="cedilla" xMin="47" yMin="-197" xMax="291" yMax="-17">
      <contour>
        <pt x="79" y="-107" on="1"/>
        <pt x="115" y="-139" on="0"/>
        <pt x="160" y="-139" on="1"/>
        <pt x="204" y="-139" on="0"/>
        <pt x="204" y="-107" on="1"/>
        <pt x="204" y="-76" on="0"/>
        <pt x="166" y="-76" on="1"/>
        <pt x="148" y="-76" on="1"/>
        <pt x="148" y="-17" on="1"/>
        <pt x="169" y="-17" on="1"/>
        <pt x="221" y="-17" on="0"/>
        <pt x="269" y="-45" on="0"/>
        <pt x="291" y="-80" on="0"/>
        <pt x="291" y="-107" on="1"/>
        <pt x="291" y="-135" on="0"/>
        <pt x="267" y="-170" on="0"/>
        <pt x="249" y="-180" on="1"/>
        <pt x="218" y="-197" on="0"/>
        <pt x="178" y="-197" on="1"/>
        <pt x="91" y="-197" on="0"/>
        <pt x="47" y="-161" on="1"/>
      </contour>
    </TTGlyph>
    <TTGlyph name="cent" xMin="32" yMin="-10" xMax="551" yMax="694">
      <contour>
        <pt x="32" y="321" on="1"/>
        <pt x="32" y="362" on="1"/>
        <pt x="32" y="455" on="0"/>
        <pt x="159" y="593" on="0"/>
        <pt x="250" y="605" on="1"/>
        <pt x="233" y="694" on="1"/>
        <pt x="362" y="694" on="1"/>
        <pt x="349" y="605" on="1"/>
        <pt x="447" y="594" on="0"/>
        <pt x="551" y="476" on="0"/>
        <pt x="551" y="390" on="1"/>
        <pt x="382" y="390" on="1"/>
        <pt x="382" y="416" on="1"/>
        <pt x="382" y="445" on="0"/>
        <pt x="342" y="486" on="0"/>
        <pt x="313" y="486" on="1"/>
        <pt x="284" y="486" on="0"/>
        <pt x="244" y="445" on="0"/>
        <pt x="244" y="416" on="1"/>
        <pt x="244" y="267" on="1"/>
        <pt x="244" y="238" on="0"/>
        <pt x="285" y="197" on="0"/>
        <pt x="314" y="197" on="1"/>
        <pt x="326" y="197" on="1"/>
        <pt x="355" y="197" on="0"/>
        <pt x="393" y="238" on="0"/>
        <pt x="393" y="267" on="1"/>
        <pt x="393" y="293" on="1"/>
        <pt x="551" y="293" on="1"/>
        <pt x="551" y="197" on="0"/>
        <pt x="443" y="87" on="0"/>
        <pt x="349" y="78" on="1"/>
        <pt x="364" y="-10" on="1"/>
        <pt x="233" y="-10" on="1"/>
        <pt x="250" y="78" on="1"/>
        <pt x="160" y="90" on="0"/>
        <pt x="32" y="229" on="0"/>
      </contour>
    </TTGlyph>
    <TTGlyph name="circumflex" xMin="65" yMin="575" xMax="471" yMax="720">
      <contour>
        <pt x="65" y="575" on="1"/>
        <pt x="204" y="720" on="1"/>
        <pt x="332" y="720" on="1"/>
        <pt x="471" y="575" on="1"/>
        <pt x="341" y="575" on="1"/>
        <pt x="267" y="652" on="1"/>
        <pt x="193" y="575" on="1"/>
      </contour>
    </TTGlyph>
    <TTGlyph name="colon" xMin="59" yMin="0" xMax="250" yMax="511">
      <contour>
        <pt x="59" y="0" on="1"/>
        <pt x="59" y="183" on="1"/>
        <pt x="250" y="183" on="1"/>
        <pt x="250" y="0" on="1"/>
      </contour>
      <contour>
        <pt x="59" y="328" on="1"/>
        <pt x="59" y="511" on="1"/>
        <pt x="250" y="511" on="1"/>
        <pt x="250" y="328" on="1"/>
      </contour>
    </TTGlyph>
    <TTGlyph name="comma" xMin="48" yMin="-165" xMax="239" yMax="183">
      <contour>
        <pt x="48" y="0" on="1"/>
        <pt x="48" y="183" on="1"/>
        <pt x="239" y="183" on="1"/>
        <pt x="239" y="22" on="1"/>
        <pt x="189" y="-165" on="1"/>
        <pt x="95" y="-165" on="1"/>
        <pt x="132" y="0" on="1"/>
      </contour>
    </TTGlyph>
    <TTGlyph name="copyright" xMin="31" yMin="-10" xMax="739" yMax="696">
      <contour>
        <pt x="86" y="141" on="0"/>
        <pt x="31" y="270" on="0"/>
        <pt x="31" y="344" on="1"/>
        <pt x="31" y="417" on="0"/>
        <pt x="86" y="545" on="0"/>
        <pt x="182" y="641" on="0"/>
        <pt x="311" y="696" on="0"/>
        <pt x="385" y="696" on="1"/>
        <pt x="458" y="696" on="0"/>
        <pt x="587" y="641" on="0"/>
        <pt x="683" y="545" on="0"/>
        <pt x="739" y="417" on="0"/>
        <pt x="739" y="344" on="1"/>
        <pt x="739" y="270" on="0"/>
        <pt x="683" y="141" on="0"/>
        <pt x="587" y="45" on="0"/>
        <pt x="458" y="-10" on="0"/>
        <pt x="385" y="-10" on="1"/>
        <pt x="311" y="-10" on="0"/>
        <pt x="182" y="45" on="0"/>
      </contour>
      <contour>
        <pt x="107" y="344" on="1"/>
        <pt x="107" y="278" on="0"/>
        <pt x="146" y="171" on="0"/>
        <pt x="182" y="134" on="1"/>
        <pt x="257" y="55" on="0"/>
        <pt x="385" y="55" on="1"/>
        <pt x="512" y="55" on="0"/>
        <pt x="587" y="134" on="1"/>
        <pt x="663" y="213" on="0"/>
        <pt x="663" y="344" on="1"/>
        <pt x="663" y="474" on="0"/>
        <pt x="587" y="554" on="1"/>
        <pt x="512" y="632" on="0"/>
        <pt x="385" y="632" on="1"/>
        <pt x="257" y="632" on="0"/>
        <pt x="182" y="554" on="1"/>
        <pt x="107" y="475" on="0"/>
      </contour>
      <contour>
        <pt x="192" y="311" on="1"/>
        <pt x="192" y="375" on="1"/>
        <pt x="192" y="454" on="0"/>
        <pt x="248" y="506" on="1"/>
        <pt x="301" y="555" on="0"/>
        <pt x="378" y="555" on="1"/>
        <pt x="394" y="555" on="1"/>
        <pt x="470" y="555" on="0"/>
        <pt x="518" y="512" on="1"/>
        <pt x="568" y="465" on="0"/>
        <pt x="568" y="380" on="1"/>
        <pt x="450" y="380" on="1"/>
        <pt x="450" y="401" on="1"/>
        <pt x="450" y="429" on="0"/>
        <pt x="414" y="461" on="0"/>
        <pt x="388" y="461" on="1"/>
        <pt x="362" y="461" on="0"/>
        <pt x="327" y="426" on="0"/>
        <pt x="327" y="401" on="1"/>
        <pt x="327" y="285" on="1"/>
        <pt x="327" y="260" on="0"/>
        <pt x="362" y="225" on="0"/>
        <pt x="387" y="225" on="1"/>
        <pt x="396" y="225" on="1"/>
        <pt x="421" y="225" on="0"/>
        <pt x="456" y="256" on="0"/>
        <pt x="456" y="285" on="1"/>
        <pt x="456" y="305" on="1"/>
        <pt x="568" y="305" on="1"/>
        <pt x="568" y="226" on="0"/>
        <pt x="520" y="178" on="1"/>
        <pt x="473" y="131" on="0"/>
        <pt x="399" y="131" on="1"/>
        <pt x="382" y="131" on="1"/>
        <pt x="300" y="131" on="0"/>
        <pt x="248" y="178" on="1"/>
        <pt x="192" y="228" on="0"/>
      </contour>
    </TTGlyph>
    <TTGlyph name="currency" xMin="43" yMin="80" xMax="565" yMax="603">
      <contour>
        <pt x="445" y="139" on="1"/>
        <pt x="397" y="91" on="0"/>
        <pt x="304" y="91" on="1"/>
        <pt x="211" y="91" on="0"/>
        <pt x="161" y="137" on="1"/>
        <pt x="104" y="80" on="1"/>
        <pt x="43" y="141" on="1"/>
        <pt x="101" y="199" on="1"/>
        <pt x="55" y="251" on="0"/>
        <pt x="55" y="342" on="1"/>
        <pt x="55" y="433" on="0"/>
        <pt x="101" y="479" on="1"/>
        <pt x="43" y="537" on="1"/>
        <pt x="106" y="600" on="1"/>
        <pt x="163" y="543" on="1"/>
        <pt x="186" y="563" on="0"/>
        <pt x="263" y="587" on="0"/>
        <pt x="304" y="587" on="1"/>
        <pt x="345" y="587" on="0"/>
        <pt x="419" y="563" on="0"/>
        <pt x="439" y="545" on="1"/>
        <pt x="497" y="603" on="1"/>
        <pt x="565" y="535" on="1"/>
        <pt x="509" y="479" on="1"/>
        <pt x="529" y="458" on="0"/>
        <pt x="551" y="381" on="0"/>
        <pt x="551" y="339" on="1"/>
        <pt x="551" y="251" on="0"/>
        <pt x="507" y="197" on="1"/>
        <pt x="563" y="141" on="1"/>
        <pt x="503" y="81" on="1"/>
      </contour>
      <contour>
        <pt x="175" y="338" on="1"/>
        <pt x="175" y="310" on="0"/>
        <pt x="194" y="260" on="0"/>
        <pt x="212" y="241" on="1"/>
        <pt x="248" y="201" on="0"/>
        <pt x="303" y="201" on="1"/>
        <pt x="359" y="201" on="0"/>
        <pt x="396" y="242" on="1"/>
        <pt x="431" y="281" on="0"/>
        <pt x="431" y="339" on="1"/>
        <pt x="431" y="397" on="0"/>
        <pt x="396" y="436" on="1"/>
        <pt x="359" y="477" on="0"/>
        <pt x="303" y="477" on="1"/>
        <pt x="248" y="477" on="0"/>
        <pt x="211" y="436" on="1"/>
        <pt x="175" y="397" on="0"/>
      </contour>
    </TTGlyph>
    <TTGlyph name="d" xMin="28" yMin="-10" xMax="551" yMax="720">
      <contour>
        <pt x="353" y="458" on="1"/>
        <pt x="353" y="720" on="1"/>
        <pt x="551" y="720" on="1"/>
        <pt x="551" y="0" on="1"/>
        <pt x="393" y="0" on="1"/>
        <pt x="375" y="59" on="1"/>
        <pt x="354" y="33" on="0"/>
        <pt x="292" y="-10" on="0"/>
        <pt x="247" y="-10" on="1"/>
        <pt x="201" y="-10" on="0"/>
        <pt x="121" y="22" on="0"/>
        <pt x="92" y="54" on="1"/>
        <pt x="28" y="124" on="0"/>
        <pt x="28" y="250" on="1"/>
        <pt x="28" y="261" on="1"/>
        <pt x="28" y="387" on="0"/>
        <pt x="84" y="456" on="1"/>
        <pt x="137" y="521" on="0"/>
        <pt x="226" y="521" on="1"/>
        <pt x="314" y="521" on="0"/>
      </contour>
      <contour>
        <pt x="229" y="181" on="1"/>
        <pt x="229" y="152" on="0"/>
        <pt x="265" y="111" on="0"/>
        <pt x="291" y="111" on="1"/>
        <pt x="317" y="111" on="0"/>
        <pt x="353" y="152" on="0"/>
        <pt x="353" y="181" on="1"/>
        <pt x="353" y="326" on="1"/>
        <pt x="353" y="355" on="0"/>
        <pt x="317" y="396" on="0"/>
        <pt x="291" y="396" on="1"/>
        <pt x="265" y="396" on="0"/>
        <pt x="229" y="355" on="0"/>
        <pt x="229" y="326" on="1"/>
      </contour>
    </TTGlyph>
    <TTGlyph name="dagger" xMin="25" yMin="-161" xMax="544" yMax="686">
      <contour>
        <pt x="25" y="368" on="1"/>
        <pt x="25" y="510" on="1"/>
        <pt x="233" y="490" on="1"/>
        <pt x="213" y="686" on="1"/>
        <pt x="356" y="686" on="1"/>
        <pt x="336" y="490" on="1"/>
        <pt x="544" y="510" on="1"/>
        <pt x="544" y="368" on="1"/>
        <pt x="336" y="388" on="1"/>
        <pt x="356" y="-161" on="1"/>
        <pt x="213" y="-161" on="1"/>
        <pt x="233" y="388" on="1"/>
      </contour>
    </TTGlyph>
    <TTGlyph name="daggerdbl" xMin="36" yMin="-175" xMax="555" yMax="686">
      <contour>
        <pt x="36" y="2" on="1"/>
        <pt x="36" y="144" on="1"/>
        <pt x="244" y="124" on="1"/>
        <pt x="224" y="257" on="1"/>
        <pt x="244" y="388" on="1"/>
        <pt x="36" y="368" on="1"/>
        <pt x="36" y="510" on="1"/>
        <pt x="244" y="490" on="1"/>
        <pt x="224" y="686" on="1"/>
        <pt x="367" y="686" on="1"/>
        <pt x="347" y="490" on="1"/>
        <pt x="555" y="510" on="1"/>
        <pt x="555" y="368" on="1"/>
        <pt x="347" y="388" on="1"/>
        <pt x="367" y="257" on="1"/>
        <pt x="347" y="124" on="1"/>
        <pt x="555" y="144" on="1"/>
        <pt x="555" y="2" on="1"/>
        <pt x="347" y="22" on="1"/>
        <pt x="367" y="-175" on="1"/>
        <pt x="224" y="-175" on="1"/>
        <pt x="244" y="22" on="1"/>
      </contour>
    </TTGlyph>
    <TTGlyph name="degree" xMin="27" yMin="396" xMax="327" yMax="696">
      <contour>
        <pt x="27" y="546" on="1"/>
        <pt x="27" y="606" on="0"/>
        <pt x="71" y="652" on="1"/>
        <pt x="114" y="696" on="0"/>
        <pt x="177" y="696" on="1"/>
        <pt x="238" y="696" on="0"/>
        <pt x="327" y="607" on="0"/>
        <pt x="327" y="546" on="1"/>
        <pt x="327" y="483" on="0"/>
        <pt x="282" y="440" on="1"/>
        <pt x="237" y="396" on="0"/>
        <pt x="177" y="396" on="1"/>
        <pt x="115" y="396" on="0"/>
        <pt x="27" y="484" on="0"/>
      </contour>
      <contour>
        <pt x="114" y="545" on="1"/>
        <pt x="114" y="519" on="0"/>
        <pt x="150" y="483" on="0"/>
        <pt x="176" y="483" on="1"/>
        <pt x="202" y="483" on="0"/>
        <pt x="238" y="519" on="0"/>
        <pt x="238" y="545" on="1"/>
        <pt x="238" y="571" on="0"/>
        <pt x="201" y="607" on="0"/>
        <pt x="176" y="607" on="1"/>
        <pt x="151" y="607" on="0"/>
        <pt x="114" y="571" on="0"/>
      </contour>
    </TTGlyph>
    <TTGlyph name="dieresis" xMin="37" yMin="603" xMax="409" yMax="750">
      <contour>
        <pt x="37" y="603" on="1"/>
        <pt x="37" y="750" on="1"/>
        <pt x="189" y="750" on="1"/>
        <pt x="189" y="603" on="1"/>
      </contour>
      <contour>
        <pt x="257" y="603" on="1"/>
        <pt x="257" y="750" on="1"/>
        <pt x="409" y="750" on="1"/>
        <pt x="409" y="603" on="1"/>
      </contour>
    </TTGlyph>
    <TTGlyph name="divide" xMin="51" yMin="17" xMax="563" yMax="496">
      <contour>
        <pt x="51" y="193" on="1"/>
        <pt x="51" y="321" on="1"/>
        <pt x="563" y="321" on="1"/>
        <pt x="563" y="193" on="1"/>
      </contour>
      <contour>
        <pt x="245" y="17" on="1"/>
        <pt x="245" y="144" on="1"/>
        <pt x="372" y="144" on="1"/>
        <pt x="372" y="17" on="1"/>
      </contour>
      <contour>
        <pt x="245" y="369" on="1"/>
        <pt x="245" y="496" on="1"/>
        <pt x="372" y="496" on="1"/>
        <pt x="372" y="369" on="1"/>
      </contour>
    </TTGlyph>
    <TTGlyph name="dollar" xMin="28" yMin="-66" xMax="568" yMax="757">
      <contour>
        <pt x="28" y="224" on="1"/>
        <pt x="28" y="234" on="1"/>
        <pt x="28" y="240" on="0"/>
        <pt x="29" y="246" on="1"/>
        <pt x="204" y="246" on="1"/>
        <pt x="203" y="235" on="1"/>
        <pt x="203" y="169" on="0"/>
        <pt x="287" y="169" on="1"/>
        <pt x="335" y="169" on="0"/>
        <pt x="367" y="186" on="0"/>
        <pt x="373" y="200" on="0"/>
        <pt x="373" y="208" on="1"/>
        <pt x="373" y="231" on="0"/>
        <pt x="324" y="253" on="0"/>
        <pt x="287" y="262" on="1"/>
        <pt x="208" y="280" on="1"/>
        <pt x="111" y="305" on="0"/>
        <pt x="66" y="372" on="1"/>
        <pt x="42" y="410" on="0"/>
        <pt x="42" y="463" on="1"/>
        <pt x="42" y="515" on="0"/>
        <pt x="72" y="583" on="0"/>
        <pt x="99" y="608" on="1"/>
        <pt x="154" y="659" on="0"/>
        <pt x="242" y="671" on="1"/>
        <pt x="227" y="757" on="1"/>
        <pt x="355" y="757" on="1"/>
        <pt x="340" y="674" on="1"/>
        <pt x="492" y="661" on="0"/>
        <pt x="540" y="560" on="1"/>
        <pt x="556" y="526" on="0"/>
        <pt x="556" y="480" on="1"/>
        <pt x="556" y="469" on="1"/>
        <pt x="383" y="469" on="1"/>
        <pt x="383" y="473" on="1"/>
        <pt x="383" y="496" on="0"/>
        <pt x="349" y="534" on="0"/>
        <pt x="310" y="534" on="1"/>
        <pt x="270" y="534" on="0"/>
        <pt x="233" y="512" on="0"/>
        <pt x="233" y="492" on="1"/>
        <pt x="233" y="472" on="0"/>
        <pt x="283" y="448" on="0"/>
        <pt x="320" y="440" on="1"/>
        <pt x="400" y="420" on="1"/>
        <pt x="497" y="398" on="0"/>
        <pt x="543" y="334" on="1"/>
        <pt x="568" y="299" on="0"/>
        <pt x="568" y="244" on="1"/>
        <pt x="568" y="188" on="0"/>
        <pt x="536" y="109" on="0"/>
        <pt x="506" y="82" on="1"/>
        <pt x="447" y="29" on="0"/>
        <pt x="340" y="21" on="1"/>
        <pt x="355" y="-66" on="1"/>
        <pt x="227" y="-66" on="1"/>
        <pt x="242" y="22" on="1"/>
        <pt x="94" y="39" on="0"/>
        <pt x="45" y="142" on="1"/>
        <pt x="28" y="177" on="0"/>
      </contour>
    </TTGlyph>
    <TTGlyph name="dotaccent" xMin="74" yMin="604" xMax="206" yMax="736">
      <contour>
        <pt x="140" y="604" on="1"/>
        <pt x="113" y="604" on="0"/>
        <pt x="74" y="643" on="0"/>
        <pt x="74" y="671" on="1"/>
        <pt x="74" y="698" on="0"/>
        <pt x="112" y="736" on="0"/>
        <pt x="140" y="736" on="1"/>
        <pt x="168" y="736" on="0"/>
        <pt x="206" y="697" on="0"/>
        <pt x="206" y="669" on="1"/>
        <pt x="206" y="641" on="0"/>
        <pt x="167" y="604" on="0"/>
      </contour>
    </TTGlyph>
    <TTGlyph name="dotlessi" xMin="50" yMin="0" xMax="247" yMax="510">
      <contour>
        <pt x="50" y="0" on="1"/>
        <pt x="50" y="510" on="1"/>
        <pt x="247" y="510" on="1"/>
        <pt x="247" y="0" on="1"/>
      </contour>
    </TTGlyph>
    <TTGlyph name="e" xMin="27" yMin="-10" xMax="572" yMax="521">
      <contour>
        <pt x="27" y="240" on="1"/>
        <pt x="27" y="271" on="1"/>
        <pt x="27" y="388" on="0"/>
        <pt x="104" y="456" on="1"/>
        <pt x="177" y="521" on="0"/>
        <pt x="300" y="521" on="1"/>
        <pt x="325" y="521" on="1"/>
        <pt x="441" y="521" on="0"/>
        <pt x="508" y="456" on="1"/>
        <pt x="572" y="393" on="0"/>
        <pt x="572" y="291" on="1"/>
        <pt x="572" y="229" on="1"/>
        <pt x="239" y="229" on="1"/>
        <pt x="239" y="181" on="1"/>
        <pt x="239" y="146" on="0"/>
        <pt x="284" y="111" on="0"/>
        <pt x="318" y="111" on="1"/>
        <pt x="352" y="111" on="0"/>
        <pt x="388" y="155" on="0"/>
        <pt x="388" y="192" on="1"/>
        <pt x="571" y="192" on="1"/>
        <pt x="571" y="104" on="0"/>
        <pt x="506" y="48" on="1"/>
        <pt x="438" y="-10" on="0"/>
        <pt x="322" y="-10" on="1"/>
        <pt x="307" y="-10" on="1"/>
        <pt x="184" y="-10" on="0"/>
        <pt x="108" y="55" on="1"/>
        <pt x="27" y="124" on="0"/>
      </contour>
      <contour>
        <pt x="239" y="316" on="1"/>
        <pt x="377" y="316" on="1"/>
        <pt x="377" y="330" on="1"/>
        <pt x="377" y="359" on="0"/>
        <pt x="337" y="400" on="0"/>
        <pt x="308" y="400" on="1"/>
        <pt x="279" y="400" on="0"/>
        <pt x="239" y="359" on="0"/>
        <pt x="239" y="330" on="1"/>
      </contour>
    </TTGlyph>
    <TTGlyph name="eacute" xMin="27" yMin="-10" xMax="572" yMax="720">
      <contour>
        <pt x="27" y="240" on="1"/>
        <pt x="27" y="271" on="1"/>
        <pt x="27" y="388" on="0"/>
        <pt x="104" y="456" on="1"/>
        <pt x="177" y="521" on="0"/>
        <pt x="300" y="521" on="1"/>
        <pt x="325" y="521" on="1"/>
        <pt x="441" y="521" on="0"/>
        <pt x="508" y="456" on="1"/>
        <pt x="572" y="393" on="0"/>
        <pt x="572" y="291" on="1"/>
        <pt x="572" y="229" on="1"/>
        <pt x="239" y="229" on="1"/>
        <pt x="239" y="181" on="1"/>
        <pt x="239" y="146" on="0"/>
        <pt x="284" y="111" on="0"/>
        <pt x="318" y="111" on="1"/>
        <pt x="352" y="111" on="0"/>
        <pt x="388" y="155" on="0"/>
        <pt x="388" y="192" on="1"/>
        <pt x="571" y="192" on="1"/>
        <pt x="571" y="104" on="0"/>
        <pt x="506" y="48" on="1"/>
        <pt x="438" y="-10" on="0"/>
        <pt x="322" y="-10" on="1"/>
        <pt x="307" y="-10" on="1"/>
        <pt x="184" y="-10" on="0"/>
        <pt x="108" y="55" on="1"/>
        <pt x="27" y="124" on="0"/>
      </contour>
      <contour>
        <pt x="239" y="316" on="1"/>
        <pt x="377" y="316" on="1"/>
        <pt x="377" y="330" on="1"/>
        <pt x="377" y="359" on="0"/>
        <pt x="337" y="400" on="0"/>
        <pt x="308" y="400" on="1"/>
        <pt x="279" y="400" on="0"/>
        <pt x="239" y="359" on="0"/>
        <pt x="239" y="330" on="1"/>
      </contour>
      <contour>
        <pt x="245" y="575" on="1"/>
        <pt x="336" y="720" on="1"/>
        <pt x="487" y="720" on="1"/>
        <pt x="489" y="717" on="1"/>
        <pt x="363" y="575" on="1"/>
      </contour>
    </TTGlyph>
    <TTGlyph name="ecircumflex" xMin="27" yMin="-10" xMax="572" yMax="720">
      <contour>
        <pt x="27" y="240" on="1"/>
        <pt x="27" y="271" on="1"/>
        <pt x="27" y="388" on="0"/>
        <pt x="104" y="456" on="1"/>
        <pt x="177" y="521" on="0"/>
        <pt x="300" y="521" on="1"/>
        <pt x="325" y="521" on="1"/>
        <pt x="441" y="521" on="0"/>
        <pt x="508" y="456" on="1"/>
        <pt x="572" y="393" on="0"/>
        <pt x="572" y="291" on="1"/>
        <pt x="572" y="229" on="1"/>
        <pt x="239" y="229" on="1"/>
        <pt x="239" y="181" on="1"/>
        <pt x="239" y="146" on="0"/>
        <pt x="284" y="111" on="0"/>
        <pt x="318" y="111" on="1"/>
        <pt x="352" y="111" on="0"/>
        <pt x="388" y="155" on="0"/>
        <pt x="388" y="192" on="1"/>
        <pt x="571" y="192" on="1"/>
        <pt x="571" y="104" on="0"/>
        <pt x="506" y="48" on="1"/>
        <pt x="438" y="-10" on="0"/>
        <pt x="322" y="-10" on="1"/>
        <pt x="307" y="-10" on="1"/>
        <pt x="184" y="-10" on="0"/>
        <pt x="108" y="55" on="1"/>
        <pt x="27" y="124" on="0"/>
      </contour>
      <contour>
        <pt x="105" y="575" on="1"/>
        <pt x="244" y="720" on="1"/>
        <pt x="372" y="720" on="1"/>
        <pt x="511" y="575" on="1"/>
        <pt x="381" y="575" on="1"/>
        <pt x="307" y="652" on="1"/>
        <pt x="233" y="575" on="1"/>
      </contour>
      <contour>
        <pt x="239" y="316" on="1"/>
        <pt x="377" y="316" on="1"/>
        <pt x="377" y="330" on="1"/>
        <pt x="377" y="359" on="0"/>
        <pt x="337" y="400" on="0"/>
        <pt x="308" y="400" on="1"/>
        <pt x="279" y="400" on="0"/>
        <pt x="239" y="359" on="0"/>
        <pt x="239" y="330" on="1"/>
      </contour>
    </TTGlyph>
    <TTGlyph name="edieresis" xMin="27" yMin="-10" xMax="572" yMax="720">
      <contour>
        <pt x="27" y="240" on="1"/>
        <pt x="27" y="271" on="1"/>
        <pt x="27" y="388" on="0"/>
        <pt x="104" y="456" on="1"/>
        <pt x="177" y="521" on="0"/>
        <pt x="300" y="521" on="1"/>
        <pt x="325" y="521" on="1"/>
        <pt x="441" y="521" on="0"/>
        <pt x="508" y="456" on="1"/>
        <pt x="572" y="393" on="0"/>
        <pt x="572" y="291" on="1"/>
        <pt x="572" y="229" on="1"/>
        <pt x="239" y="229" on="1"/>
        <pt x="239" y="181" on="1"/>
        <pt x="239" y="146" on="0"/>
        <pt x="284" y="111" on="0"/>
        <pt x="318" y="111" on="1"/>
        <pt x="352" y="111" on="0"/>
        <pt x="388" y="155" on="0"/>
        <pt x="388" y="192" on="1"/>
        <pt x="571" y="192" on="1"/>
        <pt x="571" y="104" on="0"/>
        <pt x="506" y="48" on="1"/>
        <pt x="438" y="-10" on="0"/>
        <pt x="322" y="-10" on="1"/>
        <pt x="307" y="-10" on="1"/>
        <pt x="184" y="-10" on="0"/>
        <pt x="108" y="55" on="1"/>
        <pt x="27" y="124" on="0"/>
      </contour>
      <contour>
        <pt x="122" y="573" on="1"/>
        <pt x="122" y="720" on="1"/>
        <pt x="274" y="720" on="1"/>
        <pt x="274" y="573" on="1"/>
      </contour>
      <contour>
        <pt x="239" y="316" on="1"/>
        <pt x="377" y="316" on="1"/>
        <pt x="377" y="330" on="1"/>
        <pt x="377" y="359" on="0"/>
        <pt x="337" y="400" on="0"/>
        <pt x="308" y="400" on="1"/>
        <pt x="279" y="400" on="0"/>
        <pt x="239" y="359" on="0"/>
        <pt x="239" y="330" on="1"/>
      </contour>
      <contour>
        <pt x="342" y="573" on="1"/>
        <pt x="342" y="720" on="1"/>
        <pt x="494" y="720" on="1"/>
        <pt x="494" y="573" on="1"/>
      </contour>
    </TTGlyph>
    <TTGlyph name="egrave" xMin="27" yMin="-10" xMax="572" yMax="720">
      <contour>
        <pt x="27" y="240" on="1"/>
        <pt x="27" y="271" on="1"/>
        <pt x="27" y="388" on="0"/>
        <pt x="104" y="456" on="1"/>
        <pt x="177" y="521" on="0"/>
        <pt x="300" y="521" on="1"/>
        <pt x="325" y="521" on="1"/>
        <pt x="441" y="521" on="0"/>
        <pt x="508" y="456" on="1"/>
        <pt x="572" y="393" on="0"/>
        <pt x="572" y="291" on="1"/>
        <pt x="572" y="229" on="1"/>
        <pt x="239" y="229" on="1"/>
        <pt x="239" y="181" on="1"/>
        <pt x="239" y="146" on="0"/>
        <pt x="284" y="111" on="0"/>
        <pt x="318" y="111" on="1"/>
        <pt x="352" y="111" on="0"/>
        <pt x="388" y="155" on="0"/>
        <pt x="388" y="192" on="1"/>
        <pt x="571" y="192" on="1"/>
        <pt x="571" y="104" on="0"/>
        <pt x="506" y="48" on="1"/>
        <pt x="438" y="-10" on="0"/>
        <pt x="322" y="-10" on="1"/>
        <pt x="307" y="-10" on="1"/>
        <pt x="184" y="-10" on="0"/>
        <pt x="108" y="55" on="1"/>
        <pt x="27" y="124" on="0"/>
      </contour>
      <contour>
        <pt x="121" y="717" on="1"/>
        <pt x="123" y="720" on="1"/>
        <pt x="274" y="720" on="1"/>
        <pt x="365" y="575" on="1"/>
        <pt x="247" y="575" on="1"/>
      </contour>
      <contour>
        <pt x="239" y="316" on="1"/>
        <pt x="377" y="316" on="1"/>
        <pt x="377" y="330" on="1"/>
        <pt x="377" y="359" on="0"/>
        <pt x="337" y="400" on="0"/>
        <pt x="308" y="400" on="1"/>
        <pt x="279" y="400" on="0"/>
        <pt x="239" y="359" on="0"/>
        <pt x="239" y="330" on="1"/>
      </contour>
    </TTGlyph>
    <TTGlyph name="eight" xMin="38" yMin="-10" xMax="577" yMax="696">
      <contour>
        <pt x="78" y="66" on="0"/>
        <pt x="38" y="140" on="0"/>
        <pt x="38" y="180" on="1"/>
        <pt x="38" y="220" on="0"/>
        <pt x="52" y="266" on="0"/>
        <pt x="66" y="284" on="1"/>
        <pt x="89" y="316" on="0"/>
        <pt x="139" y="347" on="1"/>
        <pt x="139" y="351" on="1"/>
        <pt x="100" y="381" on="0"/>
        <pt x="86" y="402" on="1"/>
        <pt x="61" y="442" on="0"/>
        <pt x="61" y="493" on="1"/>
        <pt x="61" y="544" on="0"/>
        <pt x="100" y="619" on="0"/>
        <pt x="133" y="644" on="1"/>
        <pt x="200" y="696" on="0"/>
        <pt x="307" y="696" on="1"/>
        <pt x="414" y="696" on="0"/>
        <pt x="482" y="644" on="1"/>
        <pt x="554" y="589" on="0"/>
        <pt x="554" y="495" on="1"/>
        <pt x="554" y="420" on="0"/>
        <pt x="506" y="377" on="1"/>
        <pt x="492" y="364" on="0"/>
        <pt x="476" y="351" on="1"/>
        <pt x="476" y="347" on="1"/>
        <pt x="526" y="316" on="0"/>
        <pt x="545" y="291" on="1"/>
        <pt x="577" y="247" on="0"/>
        <pt x="577" y="194" on="1"/>
        <pt x="577" y="140" on="0"/>
        <pt x="538" y="66" on="0"/>
        <pt x="503" y="41" on="1"/>
        <pt x="432" y="-10" on="0"/>
        <pt x="307" y="-10" on="1"/>
        <pt x="186" y="-10" on="0"/>
        <pt x="114" y="41" on="1"/>
      </contour>
      <contour>
        <pt x="237" y="192" on="1"/>
        <pt x="237" y="163" on="0"/>
        <pt x="278" y="122" on="0"/>
        <pt x="308" y="122" on="1"/>
        <pt x="337" y="122" on="0"/>
        <pt x="378" y="163" on="0"/>
        <pt x="378" y="192" on="1"/>
        <pt x="378" y="225" on="1"/>
        <pt x="378" y="254" on="0"/>
        <pt x="337" y="295" on="0"/>
        <pt x="308" y="295" on="1"/>
        <pt x="278" y="295" on="0"/>
        <pt x="237" y="254" on="0"/>
        <pt x="237" y="225" on="1"/>
      </contour>
      <contour>
        <pt x="237" y="473" on="1"/>
        <pt x="237" y="444" on="0"/>
        <pt x="278" y="403" on="0"/>
        <pt x="308" y="403" on="1"/>
        <pt x="337" y="403" on="0"/>
        <pt x="378" y="444" on="0"/>
        <pt x="378" y="473" on="1"/>
        <pt x="378" y="496" on="1"/>
        <pt x="378" y="525" on="0"/>
        <pt x="337" y="566" on="0"/>
        <pt x="308" y="566" on="1"/>
        <pt x="278" y="566" on="0"/>
        <pt x="237" y="525" on="0"/>
        <pt x="237" y="496" on="1"/>
      </contour>
    </TTGlyph>
    <TTGlyph name="ellipsis" xMin="48" yMin="0" xMax="905" yMax="183">
      <contour>
        <pt x="48" y="0" on="1"/>
        <pt x="48" y="183" on="1"/>
        <pt x="239" y="183" on="1"/>
        <pt x="239" y="0" on="1"/>
      </contour>
      <contour>
        <pt x="381" y="0" on="1"/>
        <pt x="381" y="183" on="1"/>
        <pt x="572" y="183" on="1"/>
        <pt x="572" y="0" on="1"/>
      </contour>
      <contour>
        <pt x="714" y="0" on="1"/>
        <pt x="714" y="183" on="1"/>
        <pt x="905" y="183" on="1"/>
        <pt x="905" y="0" on="1"/>
      </contour>
    </TTGlyph>
    <TTGlyph name="emdash" xMin="49" yMin="196" xMax="959" yMax="354">
      <contour>
        <pt x="49" y="196" on="1"/>
        <pt x="49" y="354" on="1"/>
        <pt x="959" y="354" on="1"/>
        <pt x="959" y="196" on="1"/>
      </contour>
    </TTGlyph>
    <TTGlyph name="endash" xMin="49" yMin="196" xMax="549" yMax="354">
      <contour>
        <pt x="49" y="196" on="1"/>
        <pt x="49" y="354" on="1"/>
        <pt x="549" y="354" on="1"/>
        <pt x="549" y="196" on="1"/>
      </contour>
    </TTGlyph>
    <TTGlyph name="equal" xMin="51" yMin="81" xMax="563" yMax="429">
      <contour>
        <pt x="51" y="81" on="1"/>
        <pt x="51" y="209" on="1"/>
        <pt x="563" y="209" on="1"/>
        <pt x="563" y="81" on="1"/>
      </contour>
      <contour>
        <pt x="51" y="301" on="1"/>
        <pt x="51" y="429" on="1"/>
        <pt x="563" y="429" on="1"/>
        <pt x="563" y="301" on="1"/>
      </contour>
    </TTGlyph>
    <TTGlyph name="eth" xMin="26" yMin="-10" xMax="588" yMax="739">
      <contour>
        <pt x="176" y="635" on="1"/>
        <pt x="140" y="669" on="0"/>
        <pt x="94" y="685" on="1"/>
        <pt x="96" y="689" on="1"/>
        <pt x="209" y="739" on="1"/>
        <pt x="257" y="722" on="0"/>
        <pt x="303" y="695" on="1"/>
        <pt x="374" y="728" on="1"/>
        <pt x="429" y="677" on="1"/>
        <pt x="370" y="649" on="1"/>
        <pt x="465" y="574" on="0"/>
        <pt x="526" y="474" on="1"/>
        <pt x="588" y="369" on="0"/>
        <pt x="588" y="266" on="1"/>
        <pt x="588" y="245" on="1"/>
        <pt x="588" y="132" on="0"/>
        <pt x="512" y="60" on="1"/>
        <pt x="438" y="-10" on="0"/>
        <pt x="323" y="-10" on="1"/>
        <pt x="291" y="-10" on="1"/>
        <pt x="176" y="-10" on="0"/>
        <pt x="102" y="61" on="1"/>
        <pt x="26" y="133" on="0"/>
        <pt x="26" y="245" on="1"/>
        <pt x="26" y="266" on="1"/>
        <pt x="26" y="366" on="0"/>
        <pt x="95" y="434" on="1"/>
        <pt x="160" y="498" on="0"/>
        <pt x="263" y="510" on="1"/>
        <pt x="258" y="538" on="0"/>
        <pt x="226" y="580" on="1"/>
        <pt x="160" y="549" on="1"/>
        <pt x="101" y="600" on="1"/>
      </contour>
      <contour>
        <pt x="238" y="181" on="1"/>
        <pt x="238" y="152" on="0"/>
        <pt x="278" y="111" on="0"/>
        <pt x="307" y="111" on="1"/>
        <pt x="336" y="111" on="0"/>
        <pt x="376" y="152" on="0"/>
        <pt x="376" y="181" on="1"/>
        <pt x="376" y="330" on="1"/>
        <pt x="376" y="359" on="0"/>
        <pt x="336" y="400" on="0"/>
        <pt x="307" y="400" on="1"/>
        <pt x="278" y="400" on="0"/>
        <pt x="238" y="359" on="0"/>
        <pt x="238" y="330" on="1"/>
      </contour>
    </TTGlyph>
    <TTGlyph name="exclam" xMin="37" yMin="0" xMax="275" yMax="686">
      <contour>
        <pt x="37" y="686" on="1"/>
        <pt x="275" y="686" on="1"/>
        <pt x="218" y="231" on="1"/>
        <pt x="91" y="231" on="1"/>
      </contour>
      <contour>
        <pt x="61" y="0" on="1"/>
        <pt x="61" y="183" on="1"/>
        <pt x="252" y="183" on="1"/>
        <pt x="252" y="0" on="1"/>
      </contour>
    </TTGlyph>
    <TTGlyph name="exclamdown" xMin="29" yMin="-177" xMax="267" yMax="511">
      <contour>
        <pt x="29" y="-177" on="1"/>
        <pt x="86" y="278" on="1"/>
        <pt x="213" y="278" on="1"/>
        <pt x="267" y="-177" on="1"/>
      </contour>
      <contour>
        <pt x="53" y="328" on="1"/>
        <pt x="53" y="511" on="1"/>
        <pt x="244" y="511" on="1"/>
        <pt x="244" y="328" on="1"/>
      </contour>
    </TTGlyph>
    <TTGlyph name="f" xMin="25" yMin="0" xMax="407" yMax="728">
      <contour>
        <pt x="406" y="596" on="1"/>
        <pt x="378" y="606" on="0"/>
        <pt x="357" y="606" on="1"/>
        <pt x="335" y="606" on="0"/>
        <pt x="314" y="603" on="0"/>
        <pt x="306" y="598" on="1"/>
        <pt x="287" y="584" on="0"/>
        <pt x="287" y="548" on="1"/>
        <pt x="287" y="511" on="1"/>
        <pt x="407" y="511" on="1"/>
        <pt x="407" y="369" on="1"/>
        <pt x="287" y="369" on="1"/>
        <pt x="287" y="0" on="1"/>
        <pt x="89" y="0" on="1"/>
        <pt x="89" y="369" on="1"/>
        <pt x="25" y="369" on="1"/>
        <pt x="25" y="511" on="1"/>
        <pt x="89" y="511" on="1"/>
        <pt x="89" y="577" on="1"/>
        <pt x="89" y="728" on="0"/>
        <pt x="272" y="728" on="1"/>
        <pt x="317" y="728" on="0"/>
        <pt x="394" y="711" on="0"/>
        <pt x="406" y="706" on="1"/>
      </contour>
    </TTGlyph>
    <TTGlyph name="figuredash" xMin="0" yMin="196" xMax="254" yMax="354">
      <contour>
        <pt x="0" y="196" on="1"/>
        <pt x="0" y="354" on="1"/>
        <pt x="254" y="354" on="1"/>
        <pt x="254" y="196" on="1"/>
      </contour>
    </TTGlyph>
    <TTGlyph name="five" xMin="30" yMin="-10" xMax="580" yMax="686">
      <contour>
        <pt x="30" y="224" on="1"/>
        <pt x="206" y="224" on="1"/>
        <pt x="206" y="191" on="0"/>
        <pt x="253" y="144" on="0"/>
        <pt x="286" y="144" on="1"/>
        <pt x="303" y="144" on="1"/>
        <pt x="336" y="144" on="0"/>
        <pt x="383" y="191" on="0"/>
        <pt x="383" y="224" on="1"/>
        <pt x="383" y="235" on="1"/>
        <pt x="383" y="268" on="0"/>
        <pt x="336" y="315" on="0"/>
        <pt x="303" y="315" on="1"/>
        <pt x="289" y="315" on="1"/>
        <pt x="253" y="315" on="0"/>
        <pt x="228" y="290" on="1"/>
        <pt x="222" y="284" on="0"/>
        <pt x="218" y="281" on="1"/>
        <pt x="60" y="303" on="1"/>
        <pt x="89" y="686" on="1"/>
        <pt x="529" y="686" on="1"/>
        <pt x="529" y="516" on="1"/>
        <pt x="238" y="516" on="1"/>
        <pt x="230" y="414" on="1"/>
        <pt x="256" y="436" on="0"/>
        <pt x="326" y="459" on="0"/>
        <pt x="367" y="459" on="1"/>
        <pt x="407" y="459" on="0"/>
        <pt x="489" y="427" on="0"/>
        <pt x="518" y="397" on="1"/>
        <pt x="580" y="334" on="0"/>
        <pt x="580" y="225" on="1"/>
        <pt x="580" y="125" on="0"/>
        <pt x="508" y="58" on="1"/>
        <pt x="432" y="-10" on="0"/>
        <pt x="320" y="-10" on="1"/>
        <pt x="290" y="-10" on="1"/>
        <pt x="172" y="-10" on="0"/>
        <pt x="100" y="58" on="1"/>
        <pt x="30" y="124" on="0"/>
      </contour>
    </TTGlyph>
    <TTGlyph name="florin" xMin="-106" yMin="-184" xMax="452" yMax="728">
      <contour>
        <pt x="-91" y="-52" on="1"/>
        <pt x="-64" y="-62" on="0"/>
        <pt x="-42" y="-62" on="1"/>
        <pt x="-21" y="-62" on="0"/>
        <pt x="0" y="-59" on="0"/>
        <pt x="9" y="-54" on="1"/>
        <pt x="30" y="-41" on="0"/>
        <pt x="35" y="-4" on="1"/>
        <pt x="88" y="369" on="1"/>
        <pt x="24" y="369" on="1"/>
        <pt x="44" y="511" on="1"/>
        <pt x="108" y="511" on="1"/>
        <pt x="117" y="577" on="1"/>
        <pt x="140" y="728" on="0"/>
        <pt x="321" y="728" on="1"/>
        <pt x="368" y="728" on="0"/>
        <pt x="440" y="711" on="0"/>
        <pt x="452" y="706" on="1"/>
        <pt x="437" y="596" on="1"/>
        <pt x="426" y="601" on="0"/>
        <pt x="382" y="606" on="0"/>
        <pt x="375" y="606" on="1"/>
        <pt x="367" y="606" on="0"/>
        <pt x="346" y="603" on="0"/>
        <pt x="337" y="598" on="1"/>
        <pt x="316" y="585" on="0"/>
        <pt x="311" y="548" on="1"/>
        <pt x="306" y="511" on="1"/>
        <pt x="426" y="511" on="1"/>
        <pt x="406" y="369" on="1"/>
        <pt x="286" y="369" on="1"/>
        <pt x="229" y="-33" on="1"/>
        <pt x="207" y="-184" on="0"/>
        <pt x="25" y="-184" on="1"/>
        <pt x="-22" y="-184" on="0"/>
        <pt x="-94" y="-167" on="0"/>
        <pt x="-106" y="-162" on="1"/>
      </contour>
    </TTGlyph>
    <TTGlyph name="four" xMin="22" yMin="0" xMax="588" yMax="696">
      <contour>
        <pt x="22" y="151" on="1"/>
        <pt x="22" y="300" on="1"/>
        <pt x="45" y="339" on="0"/>
        <pt x="81" y="420" on="1"/>
        <pt x="111" y="494" on="1"/>
        <pt x="162" y="617" on="0"/>
        <pt x="178" y="696" on="1"/>
        <pt x="355" y="696" on="1"/>
        <pt x="344" y="622" on="0"/>
        <pt x="274" y="489" on="1"/>
        <pt x="206" y="360" on="0"/>
        <pt x="152" y="298" on="1"/>
        <pt x="302" y="298" on="1"/>
        <pt x="302" y="400" on="1"/>
        <pt x="342" y="455" on="0"/>
        <pt x="390" y="577" on="1"/>
        <pt x="402" y="609" on="0"/>
        <pt x="407" y="630" on="1"/>
        <pt x="490" y="630" on="1"/>
        <pt x="490" y="298" on="1"/>
        <pt x="588" y="298" on="1"/>
        <pt x="588" y="151" on="1"/>
        <pt x="490" y="151" on="1"/>
        <pt x="490" y="0" on="1"/>
        <pt x="302" y="0" on="1"/>
        <pt x="302" y="151" on="1"/>
      </contour>
    </TTGlyph>
    <TTGlyph name="fraction" xMin="-11" yMin="0" xMax="495" yMax="686">
      <contour>
        <pt x="-11" y="0" on="1"/>
        <pt x="409" y="686" on="1"/>
        <pt x="495" y="686" on="1"/>
        <pt x="78" y="0" on="1"/>
      </contour>
    </TTGlyph>
    <TTGlyph name="g" xMin="4" yMin="-188" xMax="589" yMax="603">
      <contour>
        <pt x="209" y="170" on="1"/>
        <pt x="209" y="139" on="0"/>
        <pt x="266" y="139" on="1"/>
        <pt x="429" y="139" on="1"/>
        <pt x="548" y="139" on="0"/>
        <pt x="580" y="46" on="1"/>
        <pt x="589" y="17" on="0"/>
        <pt x="589" y="-17" on="1"/>
        <pt x="589" y="-85" on="0"/>
        <pt x="471" y="-188" on="0"/>
        <pt x="389" y="-188" on="1"/>
        <pt x="124" y="-188" on="1"/>
        <pt x="75" y="-188" on="0"/>
        <pt x="4" y="-117" on="0"/>
        <pt x="4" y="-68" on="1"/>
        <pt x="4" y="-63" on="1"/>
        <pt x="4" y="-26" on="0"/>
        <pt x="50" y="32" on="0"/>
        <pt x="80" y="46" on="1"/>
        <pt x="32" y="79" on="0"/>
        <pt x="32" y="133" on="1"/>
        <pt x="32" y="171" on="0"/>
        <pt x="86" y="230" on="0"/>
        <pt x="124" y="240" on="1"/>
        <pt x="47" y="293" on="0"/>
        <pt x="47" y="360" on="1"/>
        <pt x="47" y="430" on="0"/>
        <pt x="104" y="474" on="1"/>
        <pt x="164" y="521" on="0"/>
        <pt x="277" y="521" on="1"/>
        <pt x="305" y="521" on="1"/>
        <pt x="341" y="521" on="0"/>
        <pt x="371" y="515" on="1"/>
        <pt x="413" y="542" on="0"/>
        <pt x="433" y="577" on="1"/>
        <pt x="441" y="591" on="0"/>
        <pt x="441" y="603" on="1"/>
        <pt x="589" y="603" on="1"/>
        <pt x="589" y="542" on="0"/>
        <pt x="531" y="482" on="0"/>
        <pt x="479" y="468" on="1"/>
        <pt x="535" y="423" on="0"/>
        <pt x="535" y="361" on="1"/>
        <pt x="535" y="295" on="0"/>
        <pt x="476" y="247" on="1"/>
        <pt x="418" y="200" on="0"/>
        <pt x="335" y="200" on="1"/>
        <pt x="266" y="200" on="1"/>
        <pt x="235" y="200" on="0"/>
        <pt x="209" y="182" on="0"/>
      </contour>
      <contour>
        <pt x="168" y="-41" on="1"/>
        <pt x="168" y="-58" on="0"/>
        <pt x="197" y="-83" on="0"/>
        <pt x="218" y="-83" on="1"/>
        <pt x="361" y="-83" on="1"/>
        <pt x="382" y="-83" on="0"/>
        <pt x="411" y="-59" on="0"/>
        <pt x="411" y="-42" on="1"/>
        <pt x="411" y="-25" on="0"/>
        <pt x="382" y="0" on="0"/>
        <pt x="361" y="0" on="1"/>
        <pt x="218" y="0" on="1"/>
        <pt x="197" y="0" on="0"/>
        <pt x="168" y="-24" on="0"/>
      </contour>
      <contour>
        <pt x="234" y="360" on="1"/>
        <pt x="234" y="334" on="0"/>
        <pt x="269" y="297" on="0"/>
        <pt x="295" y="297" on="1"/>
        <pt x="321" y="297" on="0"/>
        <pt x="356" y="334" on="0"/>
        <pt x="356" y="360" on="1"/>
        <pt x="356" y="386" on="0"/>
        <pt x="321" y="423" on="0"/>
        <pt x="295" y="423" on="1"/>
        <pt x="269" y="423" on="0"/>
        <pt x="234" y="386" on="0"/>
      </contour>
    </TTGlyph>
    <TTGlyph name="germandbls" xMin="25" yMin="-66" xMax="627" yMax="728">
      <contour>
        <pt x="25" y="369" on="1"/>
        <pt x="25" y="511" on="1"/>
        <pt x="87" y="511" on="1"/>
        <pt x="93" y="611" on="0"/>
        <pt x="173" y="672" on="1"/>
        <pt x="247" y="728" on="0"/>
        <pt x="349" y="728" on="1"/>
        <pt x="515" y="728" on="0"/>
        <pt x="578" y="629" on="1"/>
        <pt x="601" y="593" on="0"/>
        <pt x="601" y="541" on="1"/>
        <pt x="601" y="466" on="0"/>
        <pt x="546" y="419" on="1"/>
        <pt x="529" y="404" on="0"/>
        <pt x="507" y="395" on="1"/>
        <pt x="507" y="390" on="1"/>
        <pt x="561" y="371" on="0"/>
        <pt x="627" y="276" on="0"/>
        <pt x="627" y="220" on="1"/>
        <pt x="627" y="163" on="0"/>
        <pt x="590" y="81" on="0"/>
        <pt x="558" y="54" on="1"/>
        <pt x="494" y="0" on="0"/>
        <pt x="384" y="0" on="1"/>
        <pt x="321" y="0" on="1"/>
        <pt x="321" y="148" on="1"/>
        <pt x="349" y="148" on="1"/>
        <pt x="382" y="148" on="0"/>
        <pt x="406" y="174" on="1"/>
        <pt x="430" y="199" on="0"/>
        <pt x="430" y="235" on="1"/>
        <pt x="430" y="270" on="0"/>
        <pt x="383" y="321" on="0"/>
        <pt x="349" y="321" on="1"/>
        <pt x="321" y="321" on="1"/>
        <pt x="321" y="443" on="1"/>
        <pt x="348" y="443" on="1"/>
        <pt x="375" y="443" on="0"/>
        <pt x="412" y="482" on="0"/>
        <pt x="412" y="511" on="1"/>
        <pt x="412" y="540" on="0"/>
        <pt x="375" y="579" on="0"/>
        <pt x="349" y="579" on="1"/>
        <pt x="322" y="579" on="0"/>
        <pt x="285" y="540" on="0"/>
        <pt x="285" y="511" on="1"/>
        <pt x="285" y="-66" on="1"/>
        <pt x="87" y="-66" on="1"/>
        <pt x="87" y="369" on="1"/>
      </contour>
    </TTGlyph>
    <TTGlyph name="grave" xMin="42" yMin="575" xMax="286" yMax="720">
      <contour>
        <pt x="42" y="717" on="1"/>
        <pt x="44" y="720" on="1"/>
        <pt x="195" y="720" on="1"/>
        <pt x="286" y="575" on="1"/>
        <pt x="168" y="575" on="1"/>
      </contour>
    </TTGlyph>
    <TTGlyph name="greater" xMin="61" yMin="-11" xMax="570" yMax="521">
      <contour>
        <pt x="61" y="-11" on="1"/>
        <pt x="61" y="127" on="1"/>
        <pt x="409" y="254" on="1"/>
        <pt x="61" y="382" on="1"/>
        <pt x="61" y="521" on="1"/>
        <pt x="570" y="324" on="1"/>
        <pt x="570" y="185" on="1"/>
      </contour>
    </TTGlyph>
    <TTGlyph name="greaterequal" xMin="53" yMin="0" xMax="564" yMax="520">
      <contour>
        <pt x="53" y="0" on="1"/>
        <pt x="53" y="128" on="1"/>
        <pt x="564" y="128" on="1"/>
        <pt x="564" y="0" on="1"/>
      </contour>
      <contour>
        <pt x="53" y="148" on="1"/>
        <pt x="53" y="286" on="1"/>
        <pt x="401" y="333" on="1"/>
        <pt x="53" y="381" on="1"/>
        <pt x="53" y="520" on="1"/>
        <pt x="562" y="403" on="1"/>
        <pt x="562" y="264" on="1"/>
      </contour>
    </TTGlyph>
    <TTGlyph name="guillemotleft" xMin="30" yMin="163" xMax="405" yMax="511">
      <contour>
        <pt x="30" y="337" on="1"/>
        <pt x="150" y="511" on="1"/>
        <pt x="224" y="511" on="1"/>
        <pt x="139" y="337" on="1"/>
        <pt x="224" y="163" on="1"/>
        <pt x="150" y="163" on="1"/>
      </contour>
      <contour>
        <pt x="211" y="337" on="1"/>
        <pt x="331" y="511" on="1"/>
        <pt x="405" y="511" on="1"/>
        <pt x="320" y="337" on="1"/>
        <pt x="405" y="163" on="1"/>
        <pt x="331" y="163" on="1"/>
      </contour>
    </TTGlyph>
    <TTGlyph name="guillemotright" xMin="37" yMin="163" xMax="412" yMax="511">
      <contour>
        <pt x="37" y="163" on="1"/>
        <pt x="122" y="337" on="1"/>
        <pt x="37" y="511" on="1"/>
        <pt x="111" y="511" on="1"/>
        <pt x="231" y="337" on="1"/>
        <pt x="111" y="163" on="1"/>
      </contour>
      <contour>
        <pt x="218" y="163" on="1"/>
        <pt x="303" y="337" on="1"/>
        <pt x="218" y="511" on="1"/>
        <pt x="292" y="511" on="1"/>
        <pt x="412" y="337" on="1"/>
        <pt x="292" y="163" on="1"/>
      </contour>
    </TTGlyph>
    <TTGlyph name="guilsinglleft" xMin="30" yMin="163" xMax="224" yMax="511">
      <contour>
        <pt x="30" y="337" on="1"/>
        <pt x="150" y="511" on="1"/>
        <pt x="224" y="511" on="1"/>
        <pt x="139" y="337" on="1"/>
        <pt x="224" y="163" on="1"/>
        <pt x="150" y="163" on="1"/>
      </contour>
    </TTGlyph>
    <TTGlyph name="guilsinglright" xMin="37" yMin="163" xMax="231" yMax="511">
      <contour>
        <pt x="37" y="163" on="1"/>
        <pt x="122" y="337" on="1"/>
        <pt x="37" y="511" on="1"/>
        <pt x="111" y="511" on="1"/>
        <pt x="231" y="337" on="1"/>
        <pt x="111" y="163" on="1"/>
      </contour>
    </TTGlyph>
    <TTGlyph name="h" xMin="50" yMin="0" xMax="552" yMax="720">
      <contour>
        <pt x="248" y="451" on="1"/>
        <pt x="300" y="521" on="0"/>
        <pt x="374" y="521" on="1"/>
        <pt x="402" y="521" on="1"/>
        <pt x="464" y="521" on="0"/>
        <pt x="552" y="433" on="0"/>
        <pt x="552" y="371" on="1"/>
        <pt x="552" y="0" on="1"/>
        <pt x="354" y="0" on="1"/>
        <pt x="354" y="320" on="1"/>
        <pt x="354" y="345" on="0"/>
        <pt x="323" y="380" on="0"/>
        <pt x="301" y="380" on="1"/>
        <pt x="279" y="380" on="0"/>
        <pt x="248" y="345" on="0"/>
        <pt x="248" y="320" on="1"/>
        <pt x="248" y="0" on="1"/>
        <pt x="50" y="0" on="1"/>
        <pt x="50" y="720" on="1"/>
        <pt x="248" y="720" on="1"/>
      </contour>
    </TTGlyph>
    <TTGlyph name="hungarumlaut" xMin="42" yMin="575" xMax="513" yMax="720">
      <contour>
        <pt x="42" y="575" on="1"/>
        <pt x="133" y="720" on="1"/>
        <pt x="284" y="720" on="1"/>
        <pt x="286" y="717" on="1"/>
        <pt x="160" y="575" on="1"/>
      </contour>
      <contour>
        <pt x="269" y="575" on="1"/>
        <pt x="360" y="720" on="1"/>
        <pt x="511" y="720" on="1"/>
        <pt x="513" y="717" on="1"/>
        <pt x="387" y="575" on="1"/>
      </contour>
    </TTGlyph>
    <TTGlyph name="hyphen" xMin="49" yMin="196" xMax="303" yMax="354">
      <contour>
        <pt x="49" y="196" on="1"/>
        <pt x="49" y="354" on="1"/>
        <pt x="303" y="354" on="1"/>
        <pt x="303" y="196" on="1"/>
      </contour>
    </TTGlyph>
    <TTGlyph name="i" xMin="50" yMin="0" xMax="247" yMax="720">
      <contour>
        <pt x="50" y="0" on="1"/>
        <pt x="50" y="510" on="1"/>
        <pt x="247" y="510" on="1"/>
        <pt x="247" y="0" on="1"/>
      </contour>
      <contour>
        <pt x="50" y="577" on="1"/>
        <pt x="50" y="720" on="1"/>
        <pt x="247" y="720" on="1"/>
        <pt x="247" y="577" on="1"/>
      </contour>
    </TTGlyph>
    <TTGlyph name="iacute" xMin="50" yMin="0" xMax="327" yMax="720">
      <contour>
        <pt x="50" y="0" on="1"/>
        <pt x="50" y="510" on="1"/>
        <pt x="247" y="510" on="1"/>
        <pt x="247" y="0" on="1"/>
      </contour>
      <contour>
        <pt x="83" y="575" on="1"/>
        <pt x="174" y="720" on="1"/>
        <pt x="325" y="720" on="1"/>
        <pt x="327" y="717" on="1"/>
        <pt x="201" y="575" on="1"/>
      </contour>
    </TTGlyph>
    <TTGlyph name="icircumflex" xMin="-54" yMin="0" xMax="352" yMax="720">
      <contour>
        <pt x="-54" y="575" on="1"/>
        <pt x="85" y="720" on="1"/>
        <pt x="213" y="720" on="1"/>
        <pt x="352" y="575" on="1"/>
        <pt x="222" y="575" on="1"/>
        <pt x="148" y="652" on="1"/>
        <pt x="74" y="575" on="1"/>
      </contour>
      <contour>
        <pt x="50" y="0" on="1"/>
        <pt x="50" y="510" on="1"/>
        <pt x="247" y="510" on="1"/>
        <pt x="247" y="0" on="1"/>
      </contour>
    </TTGlyph>
    <TTGlyph name="idieresis" xMin="-37" yMin="0" xMax="335" yMax="720">
      <contour>
        <pt x="-37" y="573" on="1"/>
        <pt x="-37" y="720" on="1"/>
        <pt x="115" y="720" on="1"/>
        <pt x="115" y="573" on="1"/>
      </contour>
      <contour>
        <pt x="50" y="0" on="1"/>
        <pt x="50" y="510" on="1"/>
        <pt x="247" y="510" on="1"/>
        <pt x="247" y="0" on="1"/>
      </contour>
      <contour>
        <pt x="183" y="573" on="1"/>
        <pt x="183" y="720" on="1"/>
        <pt x="335" y="720" on="1"/>
        <pt x="335" y="573" on="1"/>
      </contour>
    </TTGlyph>
    <TTGlyph name="igrave" xMin="-34" yMin="0" xMax="247" yMax="720">
      <contour>
        <pt x="-34" y="717" on="1"/>
        <pt x="-32" y="720" on="1"/>
        <pt x="119" y="720" on="1"/>
        <pt x="210" y="575" on="1"/>
        <pt x="92" y="575" on="1"/>
      </contour>
      <contour>
        <pt x="50" y="0" on="1"/>
        <pt x="50" y="510" on="1"/>
        <pt x="247" y="510" on="1"/>
        <pt x="247" y="0" on="1"/>
      </contour>
    </TTGlyph>
    <TTGlyph name="infinity" xMin="39" yMin="91" xMax="784" yMax="476">
      <contour>
        <pt x="601" y="91" on="1"/>
        <pt x="486" y="91" on="0"/>
        <pt x="409" y="204" on="1"/>
        <pt x="369" y="153" on="0"/>
        <pt x="281" y="91" on="0"/>
        <pt x="218" y="91" on="1"/>
        <pt x="143" y="91" on="0"/>
        <pt x="94" y="142" on="1"/>
        <pt x="39" y="198" on="0"/>
        <pt x="39" y="281" on="1"/>
        <pt x="39" y="368" on="0"/>
        <pt x="94" y="422" on="1"/>
        <pt x="147" y="476" on="0"/>
        <pt x="229" y="476" on="1"/>
        <pt x="290" y="476" on="0"/>
        <pt x="380" y="422" on="0"/>
        <pt x="419" y="368" on="1"/>
        <pt x="448" y="401" on="1"/>
        <pt x="515" y="476" on="0"/>
        <pt x="601" y="476" on="1"/>
        <pt x="677" y="476" on="0"/>
        <pt x="729" y="426" on="1"/>
        <pt x="784" y="373" on="0"/>
        <pt x="784" y="290" on="1"/>
        <pt x="784" y="199" on="0"/>
        <pt x="728" y="142" on="1"/>
        <pt x="676" y="91" on="0"/>
      </contour>
      <contour>
        <pt x="229" y="190" on="1"/>
        <pt x="281" y="190" on="0"/>
        <pt x="330" y="246" on="1"/>
        <pt x="356" y="277" on="1"/>
        <pt x="324" y="322" on="1"/>
        <pt x="284" y="378" on="0"/>
        <pt x="227" y="378" on="1"/>
        <pt x="192" y="378" on="0"/>
        <pt x="141" y="330" on="0"/>
        <pt x="141" y="288" on="1"/>
        <pt x="141" y="245" on="0"/>
        <pt x="193" y="190" on="0"/>
      </contour>
      <contour>
        <pt x="469" y="285" on="1"/>
        <pt x="529" y="204" on="0"/>
        <pt x="570" y="194" on="1"/>
        <pt x="585" y="190" on="0"/>
        <pt x="603" y="190" on="1"/>
        <pt x="620" y="190" on="0"/>
        <pt x="650" y="207" on="0"/>
        <pt x="660" y="220" on="1"/>
        <pt x="681" y="247" on="0"/>
        <pt x="681" y="285" on="1"/>
        <pt x="681" y="323" on="0"/>
        <pt x="635" y="378" on="0"/>
        <pt x="595" y="378" on="1"/>
        <pt x="545" y="378" on="0"/>
        <pt x="498" y="320" on="1"/>
        <pt x="474" y="291" on="1"/>
        <pt x="470" y="287" on="0"/>
      </contour>
    </TTGlyph>
    <TTGlyph name="integral" xMin="20" yMin="-250" xMax="301" yMax="751">
      <contour>
        <pt x="301" y="683" on="1"/>
        <pt x="216" y="683" on="0"/>
        <pt x="216" y="642" on="1"/>
        <pt x="229" y="311" on="1"/>
        <pt x="231" y="245" on="0"/>
        <pt x="236" y="111" on="0"/>
        <pt x="238" y="50" on="1"/>
        <pt x="242" y="-70" on="0"/>
        <pt x="242" y="-138" on="1"/>
        <pt x="242" y="-192" on="0"/>
        <pt x="197" y="-223" on="1"/>
        <pt x="158" y="-250" on="0"/>
        <pt x="101" y="-250" on="1"/>
        <pt x="20" y="-250" on="1"/>
        <pt x="20" y="-182" on="1"/>
        <pt x="105" y="-182" on="0"/>
        <pt x="105" y="-141" on="1"/>
        <pt x="93" y="129" on="0"/>
        <pt x="85" y="390" on="0"/>
        <pt x="83" y="450" on="1"/>
        <pt x="79" y="572" on="0"/>
        <pt x="79" y="639" on="1"/>
        <pt x="79" y="692" on="0"/>
        <pt x="124" y="724" on="1"/>
        <pt x="163" y="751" on="0"/>
        <pt x="220" y="751" on="1"/>
        <pt x="301" y="751" on="1"/>
      </contour>
    </TTGlyph>
    <TTGlyph name="j" xMin="-68" yMin="-187" xMax="249" yMax="720">
      <contour>
        <pt x="-68" y="-53" on="1"/>
        <pt x="-42" y="-65" on="0"/>
        <pt x="-19" y="-65" on="1"/>
        <pt x="4" y="-65" on="0"/>
        <pt x="25" y="-60" on="0"/>
        <pt x="32" y="-52" on="1"/>
        <pt x="50" y="-35" on="0"/>
        <pt x="50" y="4" on="1"/>
        <pt x="50" y="510" on="1"/>
        <pt x="249" y="510" on="1"/>
        <pt x="249" y="-26" on="1"/>
        <pt x="249" y="-107" on="0"/>
        <pt x="148" y="-187" on="0"/>
        <pt x="66" y="-187" on="1"/>
        <pt x="18" y="-187" on="0"/>
        <pt x="-56" y="-170" on="0"/>
        <pt x="-68" y="-165" on="1"/>
      </contour>
      <contour>
        <pt x="50" y="577" on="1"/>
        <pt x="50" y="720" on="1"/>
        <pt x="249" y="720" on="1"/>
        <pt x="249" y="577" on="1"/>
      </contour>
    </TTGlyph>
    <TTGlyph name="k" xMin="50" yMin="0" xMax="607" yMax="720">
      <contour>
        <pt x="50" y="0" on="1"/>
        <pt x="50" y="720" on="1"/>
        <pt x="248" y="720" on="1"/>
        <pt x="248" y="321" on="1"/>
        <pt x="378" y="511" on="1"/>
        <pt x="604" y="511" on="1"/>
        <pt x="425" y="280" on="1"/>
        <pt x="607" y="0" on="1"/>
        <pt x="374" y="0" on="1"/>
        <pt x="284" y="145" on="1"/>
        <pt x="248" y="114" on="1"/>
        <pt x="248" y="0" on="1"/>
      </contour>
    </TTGlyph>
    <TTGlyph name="l" xMin="50" yMin="0" xMax="248" yMax="720">
      <contour>
        <pt x="50" y="0" on="1"/>
        <pt x="50" y="720" on="1"/>
        <pt x="248" y="720" on="1"/>
        <pt x="248" y="0" on="1"/>
      </contour>
    </TTGlyph>
    <TTGlyph name="less" xMin="44" yMin="-11" xMax="553" yMax="521">
      <contour>
        <pt x="44" y="185" on="1"/>
        <pt x="44" y="324" on="1"/>
        <pt x="553" y="521" on="1"/>
        <pt x="553" y="382" on="1"/>
        <pt x="205" y="254" on="1"/>
        <pt x="553" y="127" on="1"/>
        <pt x="553" y="-11" on="1"/>
      </contour>
    </TTGlyph>
    <TTGlyph name="lessequal" xMin="50" yMin="0" xMax="561" yMax="520">
      <contour>
        <pt x="50" y="0" on="1"/>
        <pt x="50" y="128" on="1"/>
        <pt x="561" y="128" on="1"/>
        <pt x="561" y="0" on="1"/>
      </contour>
      <contour>
        <pt x="52" y="264" on="1"/>
        <pt x="52" y="403" on="1"/>
        <pt x="561" y="520" on="1"/>
        <pt x="561" y="381" on="1"/>
        <pt x="213" y="333" on="1"/>
        <pt x="561" y="286" on="1"/>
        <pt x="561" y="148" on="1"/>
      </contour>
    </TTGlyph>
    <TTGlyph name="logicalnot" xMin="33" yMin="158" xMax="571" yMax="484">
      <contour>
        <pt x="33" y="334" on="1"/>
        <pt x="33" y="484" on="1"/>
        <pt x="571" y="484" on="1"/>
        <pt x="571" y="158" on="1"/>
        <pt x="421" y="158" on="1"/>
        <pt x="421" y="334" on="1"/>
      </contour>
    </TTGlyph>
    <TTGlyph name="lozenge" xMin="26" yMin="0" xMax="509" yMax="686">
      <contour>
        <pt x="26" y="343" on="1"/>
        <pt x="198" y="686" on="1"/>
        <pt x="337" y="686" on="1"/>
        <pt x="509" y="343" on="1"/>
        <pt x="337" y="0" on="1"/>
        <pt x="198" y="0" on="1"/>
      </contour>
      <contour>
        <pt x="162" y="343" on="1"/>
        <pt x="269" y="121" on="1"/>
        <pt x="375" y="343" on="1"/>
        <pt x="269" y="565" on="1"/>
      </contour>
    </TTGlyph>
    <TTGlyph name="lslash" xMin="17" yMin="0" xMax="335" yMax="720">
      <contour>
        <pt x="17" y="255" on="1"/>
        <pt x="17" y="360" on="1"/>
        <pt x="76" y="389" on="1"/>
        <pt x="76" y="720" on="1"/>
        <pt x="274" y="720" on="1"/>
        <pt x="274" y="488" on="1"/>
        <pt x="335" y="519" on="1"/>
        <pt x="335" y="414" on="1"/>
        <pt x="274" y="384" on="1"/>
        <pt x="274" y="0" on="1"/>
        <pt x="76" y="0" on="1"/>
        <pt x="76" y="285" on="1"/>
      </contour>
    </TTGlyph>
    <TTGlyph name="m" xMin="50" yMin="0" xMax="824" yMax="521">
      <contour>
        <pt x="219" y="437" on="1"/>
        <pt x="282" y="521" on="0"/>
        <pt x="357" y="521" on="1"/>
        <pt x="384" y="521" on="1"/>
        <pt x="427" y="521" on="0"/>
        <pt x="496" y="478" on="0"/>
        <pt x="515" y="443" on="1"/>
        <pt x="535" y="478" on="0"/>
        <pt x="604" y="521" on="0"/>
        <pt x="647" y="521" on="1"/>
        <pt x="674" y="521" on="1"/>
        <pt x="736" y="521" on="0"/>
        <pt x="824" y="433" on="0"/>
        <pt x="824" y="371" on="1"/>
        <pt x="824" y="0" on="1"/>
        <pt x="630" y="0" on="1"/>
        <pt x="630" y="324" on="1"/>
        <pt x="630" y="349" on="0"/>
        <pt x="602" y="379" on="0"/>
        <pt x="582" y="379" on="1"/>
        <pt x="562" y="379" on="0"/>
        <pt x="534" y="349" on="0"/>
        <pt x="534" y="324" on="1"/>
        <pt x="534" y="0" on="1"/>
        <pt x="340" y="0" on="1"/>
        <pt x="340" y="324" on="1"/>
        <pt x="340" y="349" on="0"/>
        <pt x="312" y="379" on="0"/>
        <pt x="292" y="379" on="1"/>
        <pt x="272" y="379" on="0"/>
        <pt x="244" y="349" on="0"/>
        <pt x="244" y="324" on="1"/>
        <pt x="244" y="0" on="1"/>
        <pt x="50" y="0" on="1"/>
        <pt x="50" y="511" on="1"/>
        <pt x="198" y="511" on="1"/>
      </contour>
    </TTGlyph>
    <TTGlyph name="macron" xMin="71" yMin="662" xMax="389" yMax="736">
      <contour>
        <pt x="71" y="662" on="1"/>
        <pt x="71" y="736" on="1"/>
        <pt x="389" y="736" on="1"/>
        <pt x="389" y="662" on="1"/>
      </contour>
    </TTGlyph>
    <TTGlyph name="minus" xMin="51" yMin="213" xMax="563" yMax="363">
      <contour>
        <pt x="51" y="213" on="1"/>
        <pt x="51" y="363" on="1"/>
        <pt x="563" y="363" on="1"/>
        <pt x="563" y="213" on="1"/>
      </contour>
    </TTGlyph>
    <TTGlyph name="mu" xMin="56" yMin="-161" xMax="624" yMax="511">
      <contour>
        <pt x="246" y="-2" on="1"/>
        <pt x="254" y="-46" on="0"/>
        <pt x="254" y="-83" on="1"/>
        <pt x="254" y="-161" on="1"/>
        <pt x="56" y="-161" on="1"/>
        <pt x="56" y="511" on="1"/>
        <pt x="254" y="511" on="1"/>
        <pt x="254" y="191" on="1"/>
        <pt x="254" y="166" on="0"/>
        <pt x="285" y="131" on="0"/>
        <pt x="307" y="131" on="1"/>
        <pt x="329" y="131" on="0"/>
        <pt x="360" y="166" on="0"/>
        <pt x="360" y="191" on="1"/>
        <pt x="360" y="511" on="1"/>
        <pt x="558" y="511" on="1"/>
        <pt x="558" y="148" on="1"/>
        <pt x="558" y="128" on="0"/>
        <pt x="578" y="111" on="0"/>
        <pt x="592" y="111" on="1"/>
        <pt x="606" y="111" on="0"/>
        <pt x="624" y="120" on="1"/>
        <pt x="624" y="13" on="1"/>
        <pt x="588" y="-10" on="0"/>
        <pt x="522" y="-10" on="1"/>
        <pt x="456" y="-10" on="0"/>
        <pt x="390" y="33" on="0"/>
        <pt x="376" y="71" on="1"/>
        <pt x="349" y="35" on="0"/>
        <pt x="290" y="10" on="1"/>
        <pt x="269" y="1" on="0"/>
      </contour>
    </TTGlyph>
    <TTGlyph name="multiply" xMin="81" yMin="30" xMax="533" yMax="482">
      <contour>
        <pt x="81" y="120" on="1"/>
        <pt x="216" y="256" on="1"/>
        <pt x="81" y="392" on="1"/>
        <pt x="171" y="482" on="1"/>
        <pt x="307" y="347" on="1"/>
        <pt x="443" y="482" on="1"/>
        <pt x="533" y="392" on="1"/>
        <pt x="398" y="256" on="1"/>
        <pt x="533" y="120" on="1"/>
        <pt x="443" y="30" on="1"/>
        <pt x="307" y="165" on="1"/>
        <pt x="171" y="30" on="1"/>
      </contour>
    </TTGlyph>
    <TTGlyph name="n" xMin="50" yMin="0" xMax="552" yMax="521">
      <contour>
        <pt x="219" y="437" on="1"/>
        <pt x="275" y="521" on="0"/>
        <pt x="374" y="521" on="1"/>
        <pt x="402" y="521" on="1"/>
        <pt x="464" y="521" on="0"/>
        <pt x="552" y="433" on="0"/>
        <pt x="552" y="371" on="1"/>
        <pt x="552" y="0" on="1"/>
        <pt x="354" y="0" on="1"/>
        <pt x="354" y="320" on="1"/>
        <pt x="354" y="345" on="0"/>
        <pt x="323" y="380" on="0"/>
        <pt x="301" y="380" on="1"/>
        <pt x="279" y="380" on="0"/>
        <pt x="248" y="345" on="0"/>
        <pt x="248" y="320" on="1"/>
        <pt x="248" y="0" on="1"/>
        <pt x="50" y="0" on="1"/>
        <pt x="50" y="511" on="1"/>
        <pt x="199" y="511" on="1"/>
      </contour>
    </TTGlyph>
    <TTGlyph name="nine" xMin="30" yMin="-10" xMax="576" yMax="696">
      <contour>
        <pt x="65" y="327" on="0"/>
        <pt x="30" y="405" on="0"/>
        <pt x="30" y="458" on="1"/>
        <pt x="30" y="510" on="0"/>
        <pt x="70" y="598" on="0"/>
        <pt x="105" y="630" on="1"/>
        <pt x="179" y="696" on="0"/>
        <pt x="288" y="696" on="1"/>
        <pt x="316" y="696" on="1"/>
        <pt x="425" y="696" on="0"/>
        <pt x="500" y="625" on="1"/>
        <pt x="576" y="553" on="0"/>
        <pt x="576" y="446" on="1"/>
        <pt x="576" y="240" on="1"/>
        <pt x="576" y="133" on="0"/>
        <pt x="500" y="61" on="1"/>
        <pt x="425" y="-10" on="0"/>
        <pt x="316" y="-10" on="1"/>
        <pt x="288" y="-10" on="1"/>
        <pt x="185" y="-10" on="0"/>
        <pt x="119" y="48" on="1"/>
        <pt x="47" y="111" on="0"/>
        <pt x="47" y="220" on="1"/>
        <pt x="225" y="220" on="1"/>
        <pt x="225" y="215" on="1"/>
        <pt x="225" y="184" on="0"/>
        <pt x="265" y="140" on="0"/>
        <pt x="296" y="140" on="1"/>
        <pt x="302" y="140" on="1"/>
        <pt x="333" y="140" on="0"/>
        <pt x="379" y="184" on="0"/>
        <pt x="379" y="215" on="1"/>
        <pt x="379" y="301" on="1"/>
        <pt x="353" y="273" on="0"/>
        <pt x="282" y="249" on="0"/>
        <pt x="245" y="249" on="1"/>
        <pt x="207" y="249" on="0"/>
        <pt x="126" y="275" on="0"/>
      </contour>
      <contour>
        <pt x="223" y="440" on="1"/>
        <pt x="223" y="409" on="0"/>
        <pt x="267" y="365" on="0"/>
        <pt x="298" y="365" on="1"/>
        <pt x="304" y="365" on="1"/>
        <pt x="335" y="365" on="0"/>
        <pt x="379" y="409" on="0"/>
        <pt x="379" y="440" on="1"/>
        <pt x="379" y="481" on="1"/>
        <pt x="379" y="512" on="0"/>
        <pt x="335" y="556" on="0"/>
        <pt x="304" y="556" on="1"/>
        <pt x="298" y="556" on="1"/>
        <pt x="267" y="556" on="0"/>
        <pt x="223" y="512" on="0"/>
        <pt x="223" y="481" on="1"/>
      </contour>
    </TTGlyph>
    <TTGlyph name="notequal" xMin="51" yMin="0" xMax="563" yMax="511">
      <contour>
        <pt x="51" y="81" on="1"/>
        <pt x="51" y="209" on="1"/>
        <pt x="222" y="209" on="1"/>
        <pt x="285" y="301" on="1"/>
        <pt x="51" y="301" on="1"/>
        <pt x="51" y="429" on="1"/>
        <pt x="372" y="429" on="1"/>
        <pt x="428" y="511" on="1"/>
        <pt x="536" y="511" on="1"/>
        <pt x="480" y="429" on="1"/>
        <pt x="563" y="429" on="1"/>
        <pt x="563" y="301" on="1"/>
        <pt x="394" y="301" on="1"/>
        <pt x="331" y="209" on="1"/>
        <pt x="563" y="209" on="1"/>
        <pt x="563" y="81" on="1"/>
        <pt x="245" y="81" on="1"/>
        <pt x="190" y="0" on="1"/>
        <pt x="79" y="0" on="1"/>
        <pt x="134" y="81" on="1"/>
      </contour>
    </TTGlyph>
    <TTGlyph name="ntilde" xMin="50" yMin="0" xMax="552" yMax="720">
      <contour>
        <pt x="219" y="437" on="1"/>
        <pt x="275" y="521" on="0"/>
        <pt x="374" y="521" on="1"/>
        <pt x="402" y="521" on="1"/>
        <pt x="464" y="521" on="0"/>
        <pt x="552" y="433" on="0"/>
        <pt x="552" y="371" on="1"/>
        <pt x="552" y="0" on="1"/>
        <pt x="354" y="0" on="1"/>
        <pt x="354" y="320" on="1"/>
        <pt x="354" y="345" on="0"/>
        <pt x="323" y="380" on="0"/>
        <pt x="301" y="380" on="1"/>
        <pt x="279" y="380" on="0"/>
        <pt x="248" y="345" on="0"/>
        <pt x="248" y="320" on="1"/>
        <pt x="248" y="0" on="1"/>
        <pt x="50" y="0" on="1"/>
        <pt x="50" y="511" on="1"/>
        <pt x="199" y="511" on="1"/>
      </contour>
      <contour>
        <pt x="91" y="577" on="1"/>
        <pt x="91" y="631" on="0"/>
        <pt x="132" y="676" on="1"/>
        <pt x="173" y="720" on="0"/>
        <pt x="231" y="720" on="1"/>
        <pt x="263" y="720" on="0"/>
        <pt x="343" y="692" on="0"/>
        <pt x="384" y="680" on="0"/>
        <pt x="404" y="680" on="1"/>
        <pt x="423" y="680" on="0"/>
        <pt x="449" y="703" on="0"/>
        <pt x="454" y="720" on="1"/>
        <pt x="535" y="720" on="1"/>
        <pt x="535" y="666" on="0"/>
        <pt x="494" y="622" on="1"/>
        <pt x="453" y="577" on="0"/>
        <pt x="395" y="577" on="1"/>
        <pt x="364" y="577" on="0"/>
        <pt x="304" y="596" on="1"/>
        <pt x="262" y="610" on="1"/>
        <pt x="242" y="617" on="0"/>
        <pt x="223" y="617" on="1"/>
        <pt x="203" y="617" on="0"/>
        <pt x="177" y="594" on="0"/>
        <pt x="172" y="577" on="1"/>
      </contour>
    </TTGlyph>
    <TTGlyph name="numbersign" xMin="27" yMin="0" xMax="633" yMax="696">
      <contour>
        <pt x="27" y="166" on="1"/>
        <pt x="27" y="273" on="1"/>
        <pt x="150" y="273" on="1"/>
        <pt x="178" y="394" on="1"/>
        <pt x="72" y="394" on="1"/>
        <pt x="72" y="502" on="1"/>
        <pt x="199" y="502" on="1"/>
        <pt x="242" y="696" on="1"/>
        <pt x="361" y="696" on="1"/>
        <pt x="317" y="502" on="1"/>
        <pt x="427" y="502" on="1"/>
        <pt x="470" y="696" on="1"/>
        <pt x="587" y="696" on="1"/>
        <pt x="542" y="502" on="1"/>
        <pt x="633" y="502" on="1"/>
        <pt x="633" y="394" on="1"/>
        <pt x="523" y="394" on="1"/>
        <pt x="497" y="273" on="1"/>
        <pt x="601" y="273" on="1"/>
        <pt x="601" y="166" on="1"/>
        <pt x="470" y="166" on="1"/>
        <pt x="434" y="0" on="1"/>
        <pt x="318" y="0" on="1"/>
        <pt x="354" y="166" on="1"/>
        <pt x="242" y="166" on="1"/>
        <pt x="207" y="0" on="1"/>
        <pt x="90" y="0" on="1"/>
        <pt x="125" y="166" on="1"/>
      </contour>
      <contour>
        <pt x="266" y="272" on="1"/>
        <pt x="379" y="272" on="1"/>
        <pt x="407" y="393" on="1"/>
        <pt x="293" y="393" on="1"/>
      </contour>
    </TTGlyph>
    <TTGlyph name="o" xMin="26" yMin="-10" xMax="588" yMax="521">
      <contour>
        <pt x="26" y="245" on="1"/>
        <pt x="26" y="266" on="1"/>
        <pt x="26" y="378" on="0"/>
        <pt x="102" y="450" on="1"/>
        <pt x="176" y="521" on="0"/>
        <pt x="291" y="521" on="1"/>
        <pt x="323" y="521" on="1"/>
        <pt x="438" y="521" on="0"/>
        <pt x="512" y="450" on="1"/>
        <pt x="588" y="378" on="0"/>
        <pt x="588" y="266" on="1"/>
        <pt x="588" y="245" on="1"/>
        <pt x="588" y="132" on="0"/>
        <pt x="512" y="60" on="1"/>
        <pt x="438" y="-10" on="0"/>
        <pt x="323" y="-10" on="1"/>
        <pt x="291" y="-10" on="1"/>
        <pt x="176" y="-10" on="0"/>
        <pt x="102" y="61" on="1"/>
        <pt x="26" y="133" on="0"/>
      </contour>
      <contour>
        <pt x="238" y="181" on="1"/>
        <pt x="238" y="152" on="0"/>
        <pt x="278" y="111" on="0"/>
        <pt x="307" y="111" on="1"/>
        <pt x="336" y="111" on="0"/>
        <pt x="376" y="152" on="0"/>
        <pt x="376" y="181" on="1"/>
        <pt x="376" y="330" on="1"/>
        <pt x="376" y="359" on="0"/>
        <pt x="336" y="400" on="0"/>
        <pt x="307" y="400" on="1"/>
        <pt x="278" y="400" on="0"/>
        <pt x="238" y="359" on="0"/>
        <pt x="238" y="330" on="1"/>
      </contour>
    </TTGlyph>
    <TTGlyph name="oacute" xMin="26" yMin="-10" xMax="588" yMax="720">
      <contour>
        <pt x="26" y="245" on="1"/>
        <pt x="26" y="266" on="1"/>
        <pt x="26" y="378" on="0"/>
        <pt x="102" y="450" on="1"/>
        <pt x="176" y="521" on="0"/>
        <pt x="291" y="521" on="1"/>
        <pt x="323" y="521" on="1"/>
        <pt x="438" y="521" on="0"/>
        <pt x="512" y="450" on="1"/>
        <pt x="588" y="378" on="0"/>
        <pt x="588" y="266" on="1"/>
        <pt x="588" y="245" on="1"/>
        <pt x="588" y="132" on="0"/>
        <pt x="512" y="60" on="1"/>
        <pt x="438" y="-10" on="0"/>
        <pt x="323" y="-10" on="1"/>
        <pt x="291" y="-10" on="1"/>
        <pt x="176" y="-10" on="0"/>
        <pt x="102" y="61" on="1"/>
        <pt x="26" y="133" on="0"/>
      </contour>
      <contour>
        <pt x="238" y="181" on="1"/>
        <pt x="238" y="152" on="0"/>
        <pt x="278" y="111" on="0"/>
        <pt x="307" y="111" on="1"/>
        <pt x="336" y="111" on="0"/>
        <pt x="376" y="152" on="0"/>
        <pt x="376" y="181" on="1"/>
        <pt x="376" y="330" on="1"/>
        <pt x="376" y="359" on="0"/>
        <pt x="336" y="400" on="0"/>
        <pt x="307" y="400" on="1"/>
        <pt x="278" y="400" on="0"/>
        <pt x="238" y="359" on="0"/>
        <pt x="238" y="330" on="1"/>
      </contour>
      <contour>
        <pt x="249" y="575" on="1"/>
        <pt x="340" y="720" on="1"/>
        <pt x="491" y="720" on="1"/>
        <pt x="493" y="717" on="1"/>
        <pt x="367" y="575" on="1"/>
      </contour>
    </TTGlyph>
    <TTGlyph name="ocircumflex" xMin="26" yMin="-10" xMax="588" yMax="720">
      <contour>
        <pt x="26" y="245" on="1"/>
        <pt x="26" y="266" on="1"/>
        <pt x="26" y="378" on="0"/>
        <pt x="102" y="450" on="1"/>
        <pt x="176" y="521" on="0"/>
        <pt x="291" y="521" on="1"/>
        <pt x="323" y="521" on="1"/>
        <pt x="438" y="521" on="0"/>
        <pt x="512" y="450" on="1"/>
        <pt x="588" y="378" on="0"/>
        <pt x="588" y="266" on="1"/>
        <pt x="588" y="245" on="1"/>
        <pt x="588" y="132" on="0"/>
        <pt x="512" y="60" on="1"/>
        <pt x="438" y="-10" on="0"/>
        <pt x="323" y="-10" on="1"/>
        <pt x="291" y="-10" on="1"/>
        <pt x="176" y="-10" on="0"/>
        <pt x="102" y="61" on="1"/>
        <pt x="26" y="133" on="0"/>
      </contour>
      <contour>
        <pt x="103" y="575" on="1"/>
        <pt x="242" y="720" on="1"/>
        <pt x="370" y="720" on="1"/>
        <pt x="509" y="575" on="1"/>
        <pt x="379" y="575" on="1"/>
        <pt x="305" y="652" on="1"/>
        <pt x="231" y="575" on="1"/>
      </contour>
      <contour>
        <pt x="238" y="181" on="1"/>
        <pt x="238" y="152" on="0"/>
        <pt x="278" y="111" on="0"/>
        <pt x="307" y="111" on="1"/>
        <pt x="336" y="111" on="0"/>
        <pt x="376" y="152" on="0"/>
        <pt x="376" y="181" on="1"/>
        <pt x="376" y="330" on="1"/>
        <pt x="376" y="359" on="0"/>
        <pt x="336" y="400" on="0"/>
        <pt x="307" y="400" on="1"/>
        <pt x="278" y="400" on="0"/>
        <pt x="238" y="359" on="0"/>
        <pt x="238" y="330" on="1"/>
      </contour>
    </TTGlyph>
    <TTGlyph name="odieresis" xMin="26" yMin="-10" xMax="588" yMax="720">
      <contour>
        <pt x="26" y="245" on="1"/>
        <pt x="26" y="266" on="1"/>
        <pt x="26" y="378" on="0"/>
        <pt x="102" y="450" on="1"/>
        <pt x="176" y="521" on="0"/>
        <pt x="291" y="521" on="1"/>
        <pt x="323" y="521" on="1"/>
        <pt x="438" y="521" on="0"/>
        <pt x="512" y="450" on="1"/>
        <pt x="588" y="378" on="0"/>
        <pt x="588" y="266" on="1"/>
        <pt x="588" y="245" on="1"/>
        <pt x="588" y="132" on="0"/>
        <pt x="512" y="60" on="1"/>
        <pt x="438" y="-10" on="0"/>
        <pt x="323" y="-10" on="1"/>
        <pt x="291" y="-10" on="1"/>
        <pt x="176" y="-10" on="0"/>
        <pt x="102" y="61" on="1"/>
        <pt x="26" y="133" on="0"/>
      </contour>
      <contour>
        <pt x="120" y="573" on="1"/>
        <pt x="120" y="720" on="1"/>
        <pt x="272" y="720" on="1"/>
        <pt x="272" y="573" on="1"/>
      </contour>
      <contour>
        <pt x="238" y="181" on="1"/>
        <pt x="238" y="152" on="0"/>
        <pt x="278" y="111" on="0"/>
        <pt x="307" y="111" on="1"/>
        <pt x="336" y="111" on="0"/>
        <pt x="376" y="152" on="0"/>
        <pt x="376" y="181" on="1"/>
        <pt x="376" y="330" on="1"/>
        <pt x="376" y="359" on="0"/>
        <pt x="336" y="400" on="0"/>
        <pt x="307" y="400" on="1"/>
        <pt x="278" y="400" on="0"/>
        <pt x="238" y="359" on="0"/>
        <pt x="238" y="330" on="1"/>
      </contour>
      <contour>
        <pt x="340" y="573" on="1"/>
        <pt x="340" y="720" on="1"/>
        <pt x="492" y="720" on="1"/>
        <pt x="492" y="573" on="1"/>
      </contour>
    </TTGlyph>
    <TTGlyph name="oe" xMin="26" yMin="-10" xMax="915" yMax="521">
      <contour>
        <pt x="479" y="34" on="1"/>
        <pt x="412" y="-10" on="0"/>
        <pt x="323" y="-10" on="1"/>
        <pt x="291" y="-10" on="1"/>
        <pt x="176" y="-10" on="0"/>
        <pt x="102" y="61" on="1"/>
        <pt x="26" y="133" on="0"/>
        <pt x="26" y="245" on="1"/>
        <pt x="26" y="266" on="1"/>
        <pt x="26" y="378" on="0"/>
        <pt x="102" y="450" on="1"/>
        <pt x="176" y="521" on="0"/>
        <pt x="291" y="521" on="1"/>
        <pt x="323" y="521" on="1"/>
        <pt x="411" y="521" on="0"/>
        <pt x="477" y="478" on="1"/>
        <pt x="546" y="521" on="0"/>
        <pt x="643" y="521" on="1"/>
        <pt x="668" y="521" on="1"/>
        <pt x="784" y="521" on="0"/>
        <pt x="850" y="456" on="1"/>
        <pt x="915" y="393" on="0"/>
        <pt x="915" y="291" on="1"/>
        <pt x="915" y="229" on="1"/>
        <pt x="582" y="229" on="1"/>
        <pt x="582" y="181" on="1"/>
        <pt x="582" y="146" on="0"/>
        <pt x="627" y="111" on="0"/>
        <pt x="661" y="111" on="1"/>
        <pt x="695" y="111" on="0"/>
        <pt x="731" y="155" on="0"/>
        <pt x="731" y="192" on="1"/>
        <pt x="914" y="192" on="1"/>
        <pt x="914" y="104" on="0"/>
        <pt x="849" y="48" on="1"/>
        <pt x="781" y="-10" on="0"/>
        <pt x="665" y="-10" on="1"/>
        <pt x="650" y="-10" on="1"/>
        <pt x="550" y="-10" on="0"/>
      </contour>
      <contour>
        <pt x="238" y="181" on="1"/>
        <pt x="238" y="152" on="0"/>
        <pt x="278" y="111" on="0"/>
        <pt x="307" y="111" on="1"/>
        <pt x="336" y="111" on="0"/>
        <pt x="376" y="152" on="0"/>
        <pt x="376" y="181" on="1"/>
        <pt x="376" y="330" on="1"/>
        <pt x="376" y="359" on="0"/>
        <pt x="336" y="400" on="0"/>
        <pt x="307" y="400" on="1"/>
        <pt x="278" y="400" on="0"/>
        <pt x="238" y="359" on="0"/>
        <pt x="238" y="330" on="1"/>
      </contour>
      <contour>
        <pt x="582" y="316" on="1"/>
        <pt x="720" y="316" on="1"/>
        <pt x="720" y="330" on="1"/>
        <pt x="720" y="359" on="0"/>
        <pt x="680" y="400" on="0"/>
        <pt x="651" y="400" on="1"/>
        <pt x="622" y="400" on="0"/>
        <pt x="582" y="359" on="0"/>
        <pt x="582" y="330" on="1"/>
      </contour>
    </TTGlyph>
    <TTGlyph name="ogonek" xMin="69" yMin="-143" xMax="270" yMax="0">
      <contour>
        <pt x="190" y="-90" on="1"/>
        <pt x="220" y="-90" on="0"/>
        <pt x="257" y="-76" on="1"/>
        <pt x="270" y="-119" on="1"/>
        <pt x="222" y="-143" on="0"/>
        <pt x="166" y="-143" on="1"/>
        <pt x="101" y="-143" on="0"/>
        <pt x="78" y="-106" on="1"/>
        <pt x="69" y="-92" on="0"/>
        <pt x="69" y="-69" on="1"/>
        <pt x="69" y="-47" on="0"/>
        <pt x="105" y="-12" on="0"/>
        <pt x="123" y="0" on="1"/>
        <pt x="193" y="0" on="1"/>
        <pt x="179" y="-9" on="0"/>
        <pt x="146" y="-36" on="0"/>
        <pt x="146" y="-56" on="1"/>
        <pt x="146" y="-90" on="0"/>
      </contour>
    </TTGlyph>
    <TTGlyph name="ograve" xMin="26" yMin="-10" xMax="588" yMax="720">
      <contour>
        <pt x="26" y="245" on="1"/>
        <pt x="26" y="266" on="1"/>
        <pt x="26" y="378" on="0"/>
        <pt x="102" y="450" on="1"/>
        <pt x="176" y="521" on="0"/>
        <pt x="291" y="521" on="1"/>
        <pt x="323" y="521" on="1"/>
        <pt x="438" y="521" on="0"/>
        <pt x="512" y="450" on="1"/>
        <pt x="588" y="378" on="0"/>
        <pt x="588" y="266" on="1"/>
        <pt x="588" y="245" on="1"/>
        <pt x="588" y="132" on="0"/>
        <pt x="512" y="60" on="1"/>
        <pt x="438" y="-10" on="0"/>
        <pt x="323" y="-10" on="1"/>
        <pt x="291" y="-10" on="1"/>
        <pt x="176" y="-10" on="0"/>
        <pt x="102" y="61" on="1"/>
        <pt x="26" y="133" on="0"/>
      </contour>
      <contour>
        <pt x="120" y="717" on="1"/>
        <pt x="122" y="720" on="1"/>
        <pt x="273" y="720" on="1"/>
        <pt x="364" y="575" on="1"/>
        <pt x="246" y="575" on="1"/>
      </contour>
      <contour>
        <pt x="238" y="181" on="1"/>
        <pt x="238" y="152" on="0"/>
        <pt x="278" y="111" on="0"/>
        <pt x="307" y="111" on="1"/>
        <pt x="336" y="111" on="0"/>
        <pt x="376" y="152" on="0"/>
        <pt x="376" y="181" on="1"/>
        <pt x="376" y="330" on="1"/>
        <pt x="376" y="359" on="0"/>
        <pt x="336" y="400" on="0"/>
        <pt x="307" y="400" on="1"/>
        <pt x="278" y="400" on="0"/>
        <pt x="238" y="359" on="0"/>
        <pt x="238" y="330" on="1"/>
      </contour>
    </TTGlyph>
    <TTGlyph name="one" xMin="73" yMin="0" xMax="567" yMax="696">
      <contour>
        <pt x="73" y="0" on="1"/>
        <pt x="73" y="153" on="1"/>
        <pt x="225" y="153" on="1"/>
        <pt x="225" y="473" on="1"/>
        <pt x="73" y="473" on="1"/>
        <pt x="73" y="588" on="1"/>
        <pt x="171" y="594" on="0"/>
        <pt x="292" y="658" on="1"/>
        <pt x="326" y="677" on="0"/>
        <pt x="354" y="696" on="1"/>
        <pt x="421" y="696" on="1"/>
        <pt x="421" y="153" on="1"/>
        <pt x="567" y="153" on="1"/>
        <pt x="567" y="0" on="1"/>
      </contour>
    </TTGlyph>
    <TTGlyph name="onehalf" xMin="34" yMin="0" xMax="736" yMax="686">
      <contour>
        <pt x="34" y="312" on="1"/>
        <pt x="34" y="394" on="1"/>
        <pt x="116" y="394" on="1"/>
        <pt x="116" y="566" on="1"/>
        <pt x="34" y="566" on="1"/>
        <pt x="34" y="628" on="1"/>
        <pt x="104" y="632" on="0"/>
        <pt x="185" y="686" on="1"/>
        <pt x="221" y="686" on="1"/>
        <pt x="221" y="394" on="1"/>
        <pt x="299" y="394" on="1"/>
        <pt x="299" y="312" on="1"/>
      </contour>
      <contour>
        <pt x="142" y="0" on="1"/>
        <pt x="562" y="686" on="1"/>
        <pt x="648" y="686" on="1"/>
        <pt x="231" y="0" on="1"/>
      </contour>
      <contour>
        <pt x="449" y="0" on="1"/>
        <pt x="449" y="19" on="1"/>
        <pt x="449" y="50" on="0"/>
        <pt x="469" y="92" on="0"/>
        <pt x="492" y="112" on="1"/>
        <pt x="598" y="204" on="1"/>
        <pt x="627" y="230" on="0"/>
        <pt x="627" y="261" on="1"/>
        <pt x="627" y="277" on="0"/>
        <pt x="606" y="298" on="0"/>
        <pt x="590" y="298" on="1"/>
        <pt x="583" y="298" on="1"/>
        <pt x="567" y="298" on="0"/>
        <pt x="545" y="277" on="0"/>
        <pt x="545" y="261" on="1"/>
        <pt x="545" y="246" on="1"/>
        <pt x="450" y="246" on="1"/>
        <pt x="450" y="256" on="1"/>
        <pt x="450" y="311" on="0"/>
        <pt x="486" y="345" on="1"/>
        <pt x="524" y="382" on="0"/>
        <pt x="587" y="382" on="1"/>
        <pt x="604" y="382" on="1"/>
        <pt x="664" y="382" on="0"/>
        <pt x="736" y="316" on="0"/>
        <pt x="736" y="263" on="1"/>
        <pt x="736" y="191" on="0"/>
        <pt x="654" y="134" on="1"/>
        <pt x="595" y="90" on="1"/>
        <pt x="736" y="90" on="1"/>
        <pt x="736" y="0" on="1"/>
      </contour>
    </TTGlyph>
    <TTGlyph name="onequarter" xMin="37" yMin="0" xMax="739" yMax="686">
      <contour>
        <pt x="37" y="311" on="1"/>
        <pt x="37" y="393" on="1"/>
        <pt x="119" y="393" on="1"/>
        <pt x="119" y="565" on="1"/>
        <pt x="37" y="565" on="1"/>
        <pt x="37" y="627" on="1"/>
        <pt x="107" y="631" on="0"/>
        <pt x="188" y="685" on="1"/>
        <pt x="224" y="685" on="1"/>
        <pt x="224" y="393" on="1"/>
        <pt x="302" y="393" on="1"/>
        <pt x="302" y="311" on="1"/>
      </contour>
      <contour>
        <pt x="145" y="0" on="1"/>
        <pt x="565" y="686" on="1"/>
        <pt x="651" y="686" on="1"/>
        <pt x="234" y="0" on="1"/>
      </contour>
      <contour>
        <pt x="434" y="81" on="1"/>
        <pt x="434" y="162" on="1"/>
        <pt x="469" y="226" on="0"/>
        <pt x="514" y="355" on="0"/>
        <pt x="518" y="375" on="1"/>
        <pt x="613" y="375" on="1"/>
        <pt x="607" y="334" on="0"/>
        <pt x="581" y="284" on="1"/>
        <pt x="538" y="202" on="0"/>
        <pt x="504" y="161" on="1"/>
        <pt x="585" y="161" on="1"/>
        <pt x="585" y="216" on="1"/>
        <pt x="607" y="248" on="0"/>
        <pt x="638" y="328" on="0"/>
        <pt x="641" y="339" on="1"/>
        <pt x="686" y="339" on="1"/>
        <pt x="686" y="161" on="1"/>
        <pt x="739" y="161" on="1"/>
        <pt x="739" y="81" on="1"/>
        <pt x="686" y="81" on="1"/>
        <pt x="686" y="0" on="1"/>
        <pt x="585" y="0" on="1"/>
        <pt x="585" y="81" on="1"/>
      </contour>
    </TTGlyph>
    <TTGlyph name="ordfeminine" xMin="34" yMin="376" xMax="390" yMax="695">
      <contour>
        <pt x="329" y="376" on="1"/>
        <pt x="252" y="376" on="0"/>
        <pt x="241" y="425" on="1"/>
        <pt x="225" y="407" on="0"/>
        <pt x="179" y="376" on="0"/>
        <pt x="152" y="376" on="1"/>
        <pt x="124" y="376" on="0"/>
        <pt x="85" y="382" on="0"/>
        <pt x="70" y="392" on="1"/>
        <pt x="34" y="413" on="0"/>
        <pt x="34" y="468" on="1"/>
        <pt x="34" y="553" on="0"/>
        <pt x="151" y="568" on="1"/>
        <pt x="188" y="572" on="0"/>
        <pt x="235" y="572" on="1"/>
        <pt x="235" y="589" on="1"/>
        <pt x="235" y="606" on="0"/>
        <pt x="213" y="625" on="0"/>
        <pt x="199" y="625" on="1"/>
        <pt x="184" y="625" on="0"/>
        <pt x="158" y="610" on="0"/>
        <pt x="158" y="594" on="1"/>
        <pt x="44" y="594" on="1"/>
        <pt x="43" y="603" on="1"/>
        <pt x="43" y="642" on="0"/>
        <pt x="121" y="695" on="0"/>
        <pt x="187" y="695" on="1"/>
        <pt x="207" y="695" on="1"/>
        <pt x="280" y="695" on="0"/>
        <pt x="350" y="639" on="0"/>
        <pt x="350" y="597" on="1"/>
        <pt x="350" y="471" on="1"/>
        <pt x="350" y="459" on="0"/>
        <pt x="363" y="449" on="0"/>
        <pt x="372" y="449" on="1"/>
        <pt x="380" y="449" on="0"/>
        <pt x="390" y="454" on="1"/>
        <pt x="390" y="390" on="1"/>
        <pt x="366" y="376" on="0"/>
      </contour>
      <contour>
        <pt x="158" y="477" on="1"/>
        <pt x="158" y="449" on="0"/>
        <pt x="194" y="449" on="1"/>
        <pt x="211" y="449" on="0"/>
        <pt x="235" y="471" on="0"/>
        <pt x="235" y="491" on="1"/>
        <pt x="235" y="517" on="1"/>
        <pt x="194" y="517" on="0"/>
        <pt x="158" y="494" on="0"/>
      </contour>
    </TTGlyph>
    <TTGlyph name="ordmasculine" xMin="30" yMin="378" xMax="367" yMax="697">
      <contour>
        <pt x="30" y="531" on="1"/>
        <pt x="30" y="544" on="1"/>
        <pt x="30" y="612" on="0"/>
        <pt x="76" y="654" on="1"/>
        <pt x="122" y="697" on="0"/>
        <pt x="189" y="697" on="1"/>
        <pt x="208" y="697" on="1"/>
        <pt x="275" y="697" on="0"/>
        <pt x="322" y="654" on="1"/>
        <pt x="367" y="612" on="0"/>
        <pt x="367" y="544" on="1"/>
        <pt x="367" y="531" on="1"/>
        <pt x="367" y="464" on="0"/>
        <pt x="322" y="420" on="1"/>
        <pt x="277" y="378" on="0"/>
        <pt x="208" y="378" on="1"/>
        <pt x="189" y="378" on="1"/>
        <pt x="120" y="378" on="0"/>
        <pt x="76" y="420" on="1"/>
        <pt x="30" y="464" on="0"/>
      </contour>
      <contour>
        <pt x="157" y="493" on="1"/>
        <pt x="157" y="475" on="0"/>
        <pt x="182" y="451" on="0"/>
        <pt x="199" y="451" on="1"/>
        <pt x="216" y="451" on="0"/>
        <pt x="240" y="475" on="0"/>
        <pt x="240" y="493" on="1"/>
        <pt x="240" y="582" on="1"/>
        <pt x="240" y="599" on="0"/>
        <pt x="216" y="624" on="0"/>
        <pt x="199" y="624" on="1"/>
        <pt x="182" y="624" on="0"/>
        <pt x="157" y="599" on="0"/>
        <pt x="157" y="582" on="1"/>
      </contour>
    </TTGlyph>
</ttFont>
